<?xml version="1.0" encoding="UTF-8"?>
<svg id="Layer_2" data-name="Layer 2" xmlns="http://www.w3.org/2000/svg" viewBox="0 0 22.45 22.5">
  <g id="Layer_1-2" data-name="Layer 1">
    <g>
      <path d="M19.64,15.46c-4.72,4.76-11.63,4.91-16.51.3C1.87,14.57.89,13.19.11,11.66c-.15-.29-.15-.54,0-.83,1.51-2.98,3.89-5.43,7.03-6.68,2.71-1.07,5.69-1.04,8.38.08,3.05,1.27,5.35,3.68,6.82,6.59.14.27.16.52.02.79-.71,1.41-1.6,2.7-2.72,3.83ZM14.5,17.04c2.81-1.02,4.99-3.19,6.37-5.79-1.38-2.62-3.58-4.79-6.38-5.8-2.19-.79-4.55-.76-6.73.08-2.7,1.04-4.83,3.17-6.17,5.72,1.36,2.58,3.51,4.71,6.24,5.75,2.16.81,4.48.84,6.67.05Z"/>
      <path d="M6.7,1.7c.26.35.16.82-.17,1.06s-.78.18-1.03-.16l-.48-.64c-.25-.33-.19-.79.12-1.04s.81-.22,1.06.13l.49.66Z"/>
      <path d="M16.96,2.59c-.26.35-.73.4-1.04.18s-.42-.71-.17-1.05l.5-.67c.25-.33.72-.38,1.04-.15s.41.7.17,1.03l-.49.66Z"/>
      <path d="M6.22,21.44c-.26.35-.73.4-1.05.16s-.41-.7-.17-1.03l.5-.67c.25-.34.72-.38,1.03-.16.33.24.42.71.17,1.05l-.49.66Z"/>
      <path d="M17.44,20.55c.26.35.15.82-.16,1.05-.34.24-.8.18-1.06-.17l-.48-.65c-.25-.34-.16-.81.17-1.05.31-.22.78-.18,1.03.16l.49.66Z"/>
      <path d="M11.97,1.48c0,.44-.34.75-.73.76s-.77-.31-.77-.75v-.76c0-.42.34-.73.72-.74.41-.01.77.31.77.74v.74Z"/>
      <path d="M11.97,21.73c0,.44-.34.75-.73.76s-.77-.31-.77-.75v-.76c0-.42.34-.73.72-.74.41-.01.77.31.77.74v.74Z"/>
      <path d="M10.71,6.03c2.91-.29,5.45,1.86,5.73,4.71s-1.84,5.45-4.71,5.73-5.41-1.81-5.72-4.67,1.78-5.48,4.7-5.77ZM10.8,7.52c-2.1.24-3.54,2.14-3.29,4.18s2.1,3.5,4.14,3.27c2.05-.23,3.53-2.09,3.3-4.15s-2.05-3.54-4.14-3.3Z"/>
    </g>
  </g>
</svg>