<?xml version="1.0" encoding="UTF-8"?>
<svg id="Layer_2" data-name="Layer 2" xmlns="http://www.w3.org/2000/svg" viewBox="0 0 1073.77 904.95">
  <g id="Layer_3" data-name="Layer 3">
    <g>
      <path d="M1020,660.27c-8.53,2.89-8.01-2.65-8.02-7.98-.07-60.54-.27-121.09-.29-181.63-.03-118.9.17-237.79-.12-356.69-.04-17-2.39-33.99-3.45-50.99-.15-2.33.23-5.41,1.65-7.01,13.98-15.77,28.23-31.31,43.28-47.87,6.75,9.71,12.95,18.63,19.41,27.93V0c-7.02.03-14.04.06-21.06.12-2.41.02-5.28,1.76-7.13,3.54-14.94,14.42-29.8,28.93-44.35,43.75-1.9,1.94-2.65,5.75-2.64,8.69.03,13.85.81,27.71.79,41.56-.35,185.39-.79,370.77-1.24,556.16,0,2.03-.56,4.05-.81,5.71h-22V180.67c-19.44,14.07-36.76,25.95-53.33,38.79-18.72,14.5-37.38,28.22-63.13,23.52-.84-.15-1.88.72-4.04,1.63v41.86c-14.04,0-26.79.32-39.51-.12-8.19-.28-11.65,1.96-11.52,11.05.47,34.29.12,68.59.08,102.89,0,7.84,0,15.68,0,24.14-11.06,0-19.8-.34-28.51.09-9.29.46-18.04-2.39-26.66,7.57-11.58,13.38-27.48,22.97-41.26,34.52-2.17,1.82-4.12,5.36-4.11,8.1.03,33.16.67,66.32.71,99.47.1,74.08-.06,148.15-.11,222.23,0,9.37,0,18.73,0,27.79h-15.05c.07-170.2,1.04-339.5-5.32-509.61-18.45,11.8-36.12,23.49-51.67,37.52-7.98,7.2-19.47,10.19-24.37,22.32-2.08,5.14-13.66,6.44-22.05,9.96v29.81h-53.65v200.58c-4.59.96-8.35,1.74-12.64,2.64,0-31.96-.78-62.94.29-93.85.64-18.48-.82-35.19-16.12-47.84-1.08-.89-1.67-2.37-2.55-3.53-18.84-24.56-37.53-49.24-56.69-73.54-2.89-3.66-7.86-7.7-12.08-7.94-16.18-.93-32.44-.37-49.54-.37v312.82c-16.24,4.29-31.58,8.35-45.97,12.16,0,13.68-.01,27.04,0,40.39.03,31.38.21,62.76-.11,94.14-.03,3.29-3.04,6.54-4.67,9.82-1.49-3.42-3.03-6.83-4.45-10.29-.26-.62-.04-1.44-.04-2.17-.3-103.63-.6-207.25-.9-310.88-.01-3.89,0-7.78,0-11.48h-58.93c1.31,5.58,2.43,10.33,3.85,16.36-7.54.96-14.55,1.86-22.18,2.83v143.26c-29.16-2.6-57.65-5.11-87.04,2.84,17.33,3.46,33.21,6.63,49.1,9.8-.16.72-.31,1.43-.47,2.15h-27.48c.61,3.87,1.18,7.52,1.99,12.73h63.81c.02,1.18.03,2.35.05,3.53-20.89,2.12-41.79,4.23-63.45,6.43.32,2.95.66,5.97,1.05,9.55h64.21c-7.55,4.2-15.2,6.42-23.02,7.45-11.55,1.52-23.24,1.96-34.8,3.42-2.44.31-4.57,3.04-6.85,4.66,2.6,1.4,5.06,3.24,7.83,4.05,1.95.56,4.31-.48,6.49-.48,16.62-.05,33.25-.03,49.87-.03-28.2,12.48-55.94,9.8-84.52,2.69-14.33-3.57-30.28-.62-45.5-.62-.07.32-.14.65-.21.97,5.43,1.28,10.86,2.56,15.76,3.71-1.89,4.44-4.87,8.2-4.88,11.97-.08,19.32-.24,38.71,1.25,57.94,1.52,19.61,1.4,20.82-20.09,25.07v-81.58c-20.11-2.18-38.72-4.2-57.71-6.26-.24,3.96-.46,7.49-.69,11.23-7.22.7-13.93,1.35-21.13,2.05v88.88H0v35.52h893.06v-9.77h179.4v-191.35h-21.76v126.76c-1.08-.01-2.16-.03-3.24-.04v-124.98h-17.78v94.79c-1.29,0-2.57,0-3.86,0v-100.18h46.64v-34.5h-18.63c-.01-.79-.02-1.58-.04-2.36h18.66V38.64c-17.98,10.18-35.48,20.09-52.46,29.71v591.91ZM47.16,864.47c-3.1-3.61-6.37-5.64-6.41-7.73-.37-22.1-.23-44.21-.23-66.6,6.89,2.85,10.73,45.55,6.64,74.33ZM54.49,850.98c-.54,0-1.08,0-1.63,0v-62.19c.54-.01,1.08-.02,1.63-.03v62.21ZM67.45,862.36c-.69,0-1.39,0-2.08.01v-74.9c.69,0,1.39,0,2.08-.01v74.9ZM136.59,844.24c-.33.02-.65.04-.98.06v-75.19c.33-.01.65-.03.98-.04v75.17ZM151.29,858.91c-1.05.02-2.11.04-3.16.07v-94.4c1.05.05,2.11.11,3.16.16v94.17ZM250.99,840.94h-53.99c.01-.47.03-.93.04-1.4h54.1c-.05.47-.1.93-.15,1.4ZM208.86,821.76c-.11-.96-.23-1.91-.34-2.87,14.03-2.03,28.06-4.05,42.09-6.08.19,1.55.38,3.09.57,4.64-14.11,1.44-28.22,2.88-42.33,4.31ZM198.05,803.95c11.17-12.04,37.39-14.79,50.86-6.76-16.95,2.25-33.91,4.51-50.86,6.76ZM190.34,785.1c-.13-1.12-.26-2.23-.39-3.35,20.28-7.82,40.87-12.83,63.05-3.96-20.89,2.44-41.77,4.87-62.66,7.31ZM283.95,547.84c-14.64,6.81-17.73,17.99-16.77,33.66,1.86,30.5,1.22,61.15,1.51,91.74.04,4.33-.53,8.67-.9,14.27-4.47-.34-7.56-.57-11.02-.83v-134.86c10.14-3.59,19.82-7.01,29.51-10.44l1.34,2.43c-1.2,1.37-2.14,3.32-3.65,4.02ZM388.58,418.15c.03-5.04,3.01-10.07,4.62-15.1,1.73,5.27,4.95,10.53,4.98,15.8.5,83.15.53,166.3.84,249.46.04,10.15,1.11,20.3,1.77,31.57-3.85.48-7.76.96-12.29,1.52-.29-2.37-.76-4.41-.75-6.45.18-92.27.34-184.54.84-276.8ZM430.85,864.11c-.91,0-1.82.02-2.73.02-.27-3.58-.76-7.16-.76-10.74-.06-32.82.11-65.64-.23-98.46-.05-4.29,4-12.06-5.89-11.84-9.01.2-8.69,6.83-8.69,13.14,0,30.99,0,61.97,0,92.96,0,3.53,0,7.05,0,10.58-1.46.03-2.92.07-4.38.1-.96-37.44-.19-74.95-.64-114.53-21.66,4.3-41.9,8.31-63.1,12.52v-32.05c20.62-5.53,41.15-11.17,61.8-16.33,1.64-.41,4.83,1.99,6.06,3.89,6.48,10.01,12.63,20.23,18.72,30.49.85,1.43,1,3.44,1.01,5.18.12,35.73.21,71.47.18,107.2,0,2.62-.86,5.24-1.33,7.86ZM439.46,700.76v-256.33c7.75,8.22,7.69,248.55,0,256.33ZM538.18,519.18c-.27.13-.53.26-.8.4v-98.37c.27,0,.53,0,.8,0v97.99ZM554.18,440.45v176.1c-1.34,0-2.68,0-4.02,0v-182.15h26.29l.17,4.15c-7.4.63-14.8,1.25-22.43,1.9ZM655.22,372.34c-13.01,9.68-25.19,18.21-36.65,27.62-3.19,2.62-6.03,7.84-6.03,11.87.05,76.24.59,152.48.93,228.72.28,62.76.44,125.51.65,188.27.01,3.94,0,7.89,0,13.43-6.49-.47-11.06-.81-15.93-1.17,0-65.21,0-129.4,0-193.59.01-78.8.14-157.61-.06-236.41-.03-10.19,1.12-17.58,11.01-24.54,16.1-11.33,29.91-25.9,46.07-40.33v26.14ZM728.59,488c-3.18,2.47-5.6,8.03-5.61,12.17-.24,102.45-.09,204.9-.11,307.35,0,5.95-.95,11.9-1.46,17.85-1.46-.08-2.93-.15-4.39-.23-.22-3.65-.62-7.3-.62-10.95-.12-94.43-.25-188.86-.26-283.29,0-14.15.55-28.31.87-42.46,0-.32.52-.85.44-.93-12.74-13.33,2.94-16.49,8.58-22.44,8.99-9.49,19.07-17.95,29.35-27.46,6.02,6.4,11.72,12.45,17.36,18.44-14.81,10.59-29.82,20.83-44.14,31.94ZM845.01,319.45h-19.49c-.92,174.21-.23,347.96,5.68,522.62h-19.29V310.67c22.31-4.49,33.59-1.49,33.11,8.77ZM865.94,258.07h38.34c-.49,9.22-.95,17.74-1.44,26.98h-36.89v-26.98ZM907.18,647.09c-7.12-14.84-3.88-30.5-4.46-45.8-.59-15.66-.11-31.36-.1-47.05,0-16.05-.02-32.1.03-48.15.05-15.68.25-31.37.25-47.05,0-16.05-.16-32.1-.23-48.14-.07-15.68-.14-31.37-.17-47.05-.03-15.98,0-31.95,0-48.54h-19.99v331.32c-1.38-.03-2.76-.05-4.14-.08v-335.31h28.8v335.86ZM934.58,646.33c-.98-.14-1.95-.27-2.93-.41v-346.37c1.27-.11,2.55-.22,3.82-.33.65,7.11,1.9,14.22,1.87,21.33-.25,68.18-.69,136.36-1.13,204.54-.24,37.18-.55,74.36-.88,111.54-.03,3.23-.5,6.46-.76,9.68ZM992.29,857.59h-13.94v-149.05c-7.02.9-13.97,1.8-22.08,2.84v122.48c-.99,0-1.98.02-2.98.02v-120.46h-17.67c0-12.46-.23-24.34.24-36.18.07-1.88,3.2-5.06,5.12-5.23,16.66-1.43,33.36-2.32,51.3-3.44v189.02Z"/>
      <path d="M1072.46,36.03v2.62c.44-.25.87-.49,1.3-.74-.44-.63-.87-1.25-1.3-1.88Z"/>
    </g>
  </g>
</svg>