<?xml version="1.0" encoding="UTF-8"?>
<svg id="Layer_2" data-name="Layer 2" xmlns="http://www.w3.org/2000/svg" viewBox="0 0 862.79 759.53">
  <g id="Layer_3" data-name="Layer 3">
    <g>
      <path d="M379.15,0c12.91,4.25,24.67,10.46,35.02,20.17l.62,13.93,2.04-11.06c25.29,23.71,34.23,60.29,26.51,93.35-1.36,5.81-4.56,9.85-6.67,15.13-4.37,10.9-7.08,22.6-8.9,34.34-1.61,10.38-.03,20.61.14,31.38l11.7-15.98c-6.71-37.54,23.19-79.08,54.99-98.09-.87,12.12-2.18,23.27-.44,34.54l3.02-14.71,4.47-24.18c30.42-18.88,82.06-26.39,115.42-8.1-11.59,2.43-21.28,6-30.63,12.43-13.97,9.6-26.3,21.16-37.71,34.27,24.38-.32,50.12,7.53,67.63,23.79l-3.47,4.1,6.93-1.53c8.34,9.35,15.99,19.28,19.8,31.47-19.36-7.03-33.2-10.38-53.12-11.88l-7.2-4.23,2.3,3.84c-16.19-.38-25.77-.5-40.71-7.9-7.13-3.54-13.71-7.27-20.45-11.69l3.15-4.38c-17.18,2.95-31.88.93-50.27,3.93l38.16,6.29c-17.88,17.98-42.72,32.9-68.43,34.79-7.59,9.98-16.81,18.94-13.81,32.33,6.16-6.4,14.13-8.17,20.47-12.67,9.18-6.51,17.17-13.8,28.31-17.23,37.44-11.53,78.64-5.47,110.94,16.72,24.04,16.52,42.05,42.44,40.99,72.52l9.51,18.67c4.37-12,5.1-24.33,5.25-36.79.05-4.1-.62-7.22-1.78-11.08-7.06-23.41-4.99-48.22,4.29-70.66,1.44-3.48,2.65-5.92,5.21-9.2l9.45,20.36-5.01-28.08c14.38-24.51,47.36-49.9,77.06-50.78-8.39,11.9-14.88,23.86-19.01,37.36l-6.89,22.46c-3.76,11.48-9.5,31.95-18.76,39.6-7.23,5.97-14.58,11.01-22.09,16.59l20.73-7.46c-7.55,11.38-15.93,20.78-25.6,29.82-3.67,3.43-8.39,5.57-12.57,8l-.09,23.53c6.18-7.11,14.72-10.79,21.47-16.77,2.47-7.03,4.77-14.41,9.75-20.86,14.77-19.08,34.63-33.21,58.03-40.39l-6.98,29.14c5.29-10.14,9.57-20.24,13.96-31.33,28.12-8.57,64.6-8.2,92.12,6.71-22.82,4.72-34.58,14.08-52.56,26.52-9.11,6.3-17.86,12.81-28.18,17.78-9.14-3.27-18.5-6.64-28.29-9-1.42.39-1.51.51-.08.62l22.85,11.17c-17.98,11.96-56.67,18.64-77.15,13.82-9.29,4.42-18.08,10.69-25.1,18.45l-5.38,21.21c6.93-3.78,15.54-5.1,22.1-9.31,5.03-3.23,8.61-8.54,14.09-11.68,11.57-6.62,23.34-11.12,36.77-12.87,33.26-4.33,70.81,2.77,96.72,23.57-.74.56-1.37,1.06-1.55,1.15l-22.2,10.95c-1.28.7-1.36.85-.07.76l28.94-9.04c17.96,14.4,31.49,33.17,39.09,54.91,2.47,7.09,6.09,16.21,4.35,22.58l-.43,1.57c-.05.19-.64-.6-.78-.79-5.69-7.35-11.5-14.25-19.25-19.55-15.66-10.73-34.27-13.86-52.88-17.24-4.65-9.52-8.9-18.86-14.93-28.32l7.94,26.66-20.67-6.53c-5.75-1.82-11.25-3.9-16.9-6.17-3.35-1.35-6.41-3.37-8.92-6.11l-27.69-30.22c-.32-.35-.91-.89-1.06-.97-.16-.1-.67-.08-.6.09l.65,1.4,5.12,10.72,9.27,18.5-21.89-4.72c-11.76-2.54-22.27-7.58-32.75-13.66-8.78,2.99-17.03,6.56-24.89,11.45l-9.62,20.07c8.78-.16,17.11,1.52,24.86,5.59l14.43-5.68c8.37-3.3,15.81-7.25,25.18-7.5,19.78-.52,45.72,7.64,61.49,21.28l-27.07,10.63,22.71-3.91c3.24-.56,8.15-1.27,11.27-.62,4.32,2.59,7.8,6.24,11.27,9.95,23.22,24.83,38.14,64.85,30.48,98.9-.29,1.46-.53,1.23-1.12,0-10.94-25.37-24.63-40.91-49.07-53.53l-14.84-7.66c-.41-1.65-.82-3.72-1.1-5.5l-2.63-16.67c-.19-1.34-.32-1.24-.83.12l.02,18.99c-27.27-14.12-50.68-32.65-65.7-59.45-3.69,1.01-6.62,1.99-10.74,3.61,12.52,19.28,18.29,39.05,20.05,62.23,5.27.63,10.41.83,15.03,2.57,8.24,3.11,11.2.91,24.54,9.71,16.52,10.9,28.82,26.66,36.22,45.42l-15.29-3.57c-1.35.5-1.58.66-.17.65l16.73,6.04c12.23,30.5,11.78,71.07-4.8,99.45-1.41,2.41-2.9,4.54-5.28,5.98-1.12-28.93-9.52-43.1-24.7-65.96l.43-1.33.24-1.22.23-1.2.22-1.13.21-1.13c.05-.25.29-1,.31-1.16l2.23-21.4c.06-1.35-.06-1.34-.64-.12l-7.57,23.67c-19.61-26.34-30.51-56.21-23.78-88.16.04-.19.43-1.2.59-1.15.24.08-.53-.18-1.04-.35l-13.54-1.79c-.65,37.5-13.58,73.87-38.52,102.24,16.82-1.5,31.1.86,39.07,17.15,2.95,6.02,4.23,13.14,5.42,19.57.33,1.06,2.37,2.95,2.93,3.88l.6,6.12c8.68,1.46,16.75,4.08,23.44,9.8,20.39,17.44,21.37,47.74,15.05,72.08-4.74,18.23-13.48,34.65-27.24,47.5-11.43,10.67-29.3,19.31-44.51,13.38-9.3-3.63-13.14-13.47-9.86-22.78,7.72-21.95-2.13-32.52-6.82-54.35-2.5-11.64-2.71-23.42.52-34.78,3.62-12.7,12.03-23.19,24.31-28.02,4.52-1.78,9.03-2.15,13.98-3.21-2.28-3.44.94-6.3,1.2-8.78.81-7.72-2.7-15.86-7-22.14-4.75-6.93-12.13-10.33-20.53-9.92-6.12.3-12.59,1.29-18.08,4.13-7.89,4.09-23.42,23.56-54.26,33.27-23.36,7.35-47.9,6.69-69.45,17.1-15.2,7.34-26.62,19.63-34.69,34.42-18.67,34.25-17.65,74.61-7.91,111.39l29.51.62,17.51.3c21.49.37,216.35,4.94,218.03,21.14.45,4.33-13.05,7.11-16.8,7.79-16.61,3.02-32.77,5.05-49.73,6.45-36.42,3.03-72.25,4.94-108.74,6.01l-44.37,1.31-61.42.97h-65.21s-64.21-.98-64.21-.98c-44.51-.67-88.38-3.21-132.78-6.92-20.05-1.67-39.26-3.97-58.71-8.02-3.57-.74-6.58-2.1-9.28-4.43-3.52-3.03,4.64-6.66,7.6-7.36,28.09-6.63,66.27-9.55,95.69-11.38,38.16-2.38,75.58-4.13,113.65-4.61l28.35-.36c5.92-.08,11.55-.08,17.39-.67l7.37-24.2c4.82-15.84,7.27-31.94,9.17-48.48,2.8-24.3.26-54.53-9.17-77.05-7.99-19.07-21.51-34.78-39.83-44.42-11.26-5.92-22.78-9.99-35.08-13.17-30.69-7.92-51.99-14.79-75.39-37.52-15.96-15.5-28.74-33.47-39.45-52.93l-6.98-12.68c-7.89,10.69-11.65,31.15-9.2,43.3.7,3.5,3.83,6.8,3.08,10.76,34.96,4.8,44.67,35.17,39.98,65.99-2.92,19.14-9.77,37.04-21.73,52.23-9.82,12.47-25.32,23.26-41.68,21.03-6.66-.91-11.71-5.34-12.88-12.13-1.76-10.25,4.34-16.71-1.89-33.68l-6.89-18.79c-5.55-15.13-6.09-31.41-1.16-46.58,5.14-15.83,17.65-26.46,34.38-28.06-2.22-4.15,1.59-6.87,1.9-9.54,1.14-9.81,1.05-19.31,4-28.97,1.93-6.31,5.09-12.83,8.31-18.57.18-.32.12-1.65-.05-1.64-11.04-2.09-21.38-.52-31.51,4.27,3.34,23.62-6.19,49.12-20.48,69.03l-11.88-27.41c-.29-.68-.6-2.48-.84-3.43-.17-.14-.81-.43-.75-.17l.35,1.44.29,1.1,6.01,23.07,2.75,12.12-10.26,18.11-5.35,9.77c-1,1.83-1.87,3.2-3.42,5.67l-11.49-18.98c-.22-.37-.57-1.11-.64-1.33-.1-.31-.65.42-.5.84l7.77,21.97c.4,1.14,1.14,3.07.69,3.91l-11.5,21.64c-6.9,12.97-9.87,30.38-7.99,45.12l1.03,8.14c.03.27-.02,1.18,0,1.25.23,1.13-22.57-16.82-29.29-55.28-3.98-22.79-2.01-45.78,5.62-67.89l35.97-16.27c-6.03-.9-11.36,1.27-16.96,2.78l-15.28,4.09c9.85-26.72,29.92-47.45,55.76-58.65,9.4-4.07,18.53-3.62,28-5.4,10.75-2.02,20.45-7.15,32.73-3.97l-6.32-13.04c-9.69-5.1-20.23-8.17-31.26-9.18-2.94,3.03-5.59,5.87-8.83,8.39-10.38,8.06-20.7,15.45-31.7,22.68-25.6,16.83-31.34,32.22-51.09,50.08-17.83,16.12-33.15,28.67-41.42,53.58-2.25-1.23-4.06-17.97-4-21.06l.13-6.6c.2-10.05,3.8-30.33,8.37-38.79.14-.26.64.49.84.92l5.35,11.37c.2.43,1.54,1.06,2.18,1.11-1.57-6.15-3.04-10.92-4.93-16.52-.8-2.35-.97-4.87.15-7.17,4.92-10.18,10.24-19.9,17.98-27.98l1.42-.13,9.33-.89,16.64-1.26c.33-.03,1.53-.98,1.31-1l-1.39-.15-22.83-2.48c18.16-22.37,64.45-42.74,89.71-33.38l11.96,4.43c8.13,3.01,19.55,2.73,27.26,7.02.45.25,1.83.4,2.12.47.39.09-.35-1.22-.5-1.61l-9.59-24.75c-4.56-3.26-10.42-5.29-16.23-7.37-19.64,10.19-42.5,11.24-65.04,7.58l19.42-15.46c.66.14-.1-.05-.78-.23-9.29,4.13-17.88,9.57-27.14,14.64-11.27-1.67-22.42-5.62-33.51-9.44-15.89-5.47-31.88-7.37-48.22-5.4v-7.47c23.17-18.77,52.69-27.5,82.9-25.88,4.24.23,9.26.53,12.9,2.01l14.06,16.24.86-.93-8.97-14.47c19.05,2.55,38.17,9.6,48.47,24.24l7.08,10.05c2.26,3.21,8.09,3.69,11.85,5.96l-9.82-26.47c-1.33-3.58-2.84-7.13-6.02-9.63-6.7-5.28-13.74-11.39-21.63-14.89-24.51,3.63-51.05,1.78-73.25-9.92l14.52-7.28c-4.99-.71-18.23,5.38-20.81,3.64-19.38-13.06-35.82-29.21-49.51-48.24,20.78-3.1,41.28-1.58,60.78,4.73,3.78,7.16,6.3,14.11,11.2,19.96l-6.25-18.4c28.2,7.8,51.16,25.64,64.81,50.46l21.37,14.69c-4.74-7.5-4.77-17.98-9.96-24.74-4.76-6.2-11.26-10.66-16.06-17.29-18.29-25.29-26.29-56.76-19.52-87.64,3.83,2.91,5.49,5.86,9.63,7.92l-8.14-14.53c4.21-20.23,14.32-38.79,30.6-52.8-1.14,27.37,2.95,42.71,11.19,67.71,1.14,3.46,2.16,7.33,2.55,10.84-4.56,10.87-9.09,20.84-12.9,32.54,4.67-7.95,8.61-16.2,14.63-24.96,5.46,23.72,3.51,50.29-5.61,72.05-1.48,3.53-.79,6.7.5,10.11,3.19,8.44,5.65,16.59,10.41,24.8l7.1-22.75c-4.97-22.5-.19-42.74,11.12-62.42,4.86-8.45,10.11-15.9,17.93-22.84l4.31,16.16-.61-19.76c16.56-15.31,36.97-24.75,59.26-27.76,9.58-1.29,18.39-1.46,28.1,1.16-11.57,6.13-21.31,13.67-29.03,23.71l-16.82,21.89-24.45,9.4,21.98-3.94c-19.21,30.78-34.62,52.95-67.99,67.2-9.23,29.85-9.87,20.85,3.07,48.38,2.73-10.81,8.01-18.67,13.81-27.25,7.41-10.95,15.29-20.55,26.85-27.58,9.14-5.56,18.7-9.96,29.56-12.82-2.4,6.84-4.71,12.76-5.94,19.74,5.38-6.8,8.32-13.71,14.22-20.83,24.72-4.96,59.79,1.85,80.72,16.19-5.59,3.69-10.71,5.87-16.59,8.52,8.1,2.17,15.72,4.25,23.06,8.37-5.17,20.76-5.87,40.99-2.48,62.29-19.84-15.52-38.67-31.67-48.04-54.86l-5.75-.09-14.96-9.34,9.14,11.51c-26.46,9.81-62.65,16.89-88.51,3.97-5.29,7.71-9.21,16.04-10.16,24.93,8.92-6.37,17.83-9.26,27.88-8.56l13.48.93c20.98-8.29,53.25,1.21,72.08,11.63,17.48,9.67,32.36,22.7,43.12,40.1l-31.49-6.1c7.29,4.59,14.24,8.41,22.09,11.06l16.09,5.43c9.78,19.21,18.96,38.85,20.61,60.38-16.43-3.23-30.51-9-45.37-15.85l8.6,17.88c9.06,18.84,23.29,33.84,41.21,44.5,11.05,6.58,20.68,13.99,30.5,22.85-.87-10.75-2.12-20.52-2.12-30.91,0-19.88,2-38.88,5.43-58.47l9.03-51.58c-16.22-17.27-16.87-25.79-24.28-47.89l-8.83,13.55-6.42-15.54c-1.16,4.78,3.17,19.9,1.61,22.32l-11.68,18.11c-1.78,2.75-3.9,5.06-6.17,7.45-9.46-16.36-12.08-39.91-9.41-58.14l16.98-12.62c-6.11,1.62-10.82,4.02-16.61,6.34,2.48-15.54,7.29-29.44,15.14-42.2,16.2-26.31,35.97-23.69,39.06-25.25l14.63-7.38c-6.36-3.9-13.67-6.38-20.53-7.9-16.41,9.71-30.06,16.73-48.97,18.56l11.67-11.57-19.91,12.93c-14.11,2.34-27.95,2.38-42.08,2.05l5.63-8.74c-3.29,2.63-5.33,5.26-8.11,8.74l-17.13.65c-10.81.41-20.9,1.33-32.04,2.84,16.97-32.28,55.68-52.1,91.11-53.76,6.99,5.13,13.09,10.1,20.27,14.19-4.31-5.39-9.13-9.04-14.12-13.97,14.09-.86,26.73,4.26,38.84,10.58,6.62,3.46,10.81,9.3,16.68,13.13,6.69,4.37,16.24,3.81,22.93,9.2.16-6.42.8-11.54-.16-17.04-2.51-4.88-7.47-9.71-11.55-13.4l-17.49-.83c-16.64-.79-55.25-17.16-68.71-29.07,6.78-2.99,12.47-5.18,18.52-8.49-9.6-1.31-17.76.46-26.75,1.91l-15.73-10.43c-9.47-6.28-19.07-10.98-30.29-15.96,21.35-9.02,44.99-10.99,67.49-5.67,3.74,4.09,7.04,8.55,10.29,12.89,1.39,1.86,11.52,15.85,13.78,14.57-3.09-8.46-7.76-15.67-11.89-24.38,27.16,8.39,60.1,32.46,63.85,61.7l8.81,9.48c.27-12.86,1.08-24.48.57-36.9-.25-5.97-5.12-11.22-7.64-16.02-2.69-.39-4.71-.5-6.81-1.17-21.44-6.84-40.45-21.92-56.46-38.59l18.03-2.51-22.64-2.8c-21.43-25.36-30.09-47.54-63.12-61.28,33.36-8.34,70.24.09,96.09,21.89l6.04,23.27,1.51,6-1.78-24.01c4.75,3.22,7.53,6.39,11.01,10.04,16.54,17.37,24.29,40.78,22.46,64.91.97,3.96,3.63,7.88,5.82,11.04l7.73-33.89c-2.24-3.62-4.37-7.37-6.56-11.29l-14.54-25.94c-10.89-19.42-12.98-24.99-18.29-47.22l2.93-1.9c-1.18-.39-2.98-1.09-3.86-1.84-3.65-15.65-10.03-30.46-19.16-43.31h7.47ZM429.93,240.07c2.65,23.32,3.67,44.96,3.71,67.76.05,29.79-1.2,58.65-4.76,88.5,10.69-3.23,22.96-8.48,30.08-17.11-3.29-12.79-2.82-24.92-.54-37.68,3.04-17.02,10.36-32.41,22.38-44.99,30.42-31.84,81.09-41.7,119.27-17.95,3.75,2.34,6.43,6.44,9.56,9.25,9.32,5.1,17.53,10.41,22.94,20.5,1.88-2.87,3.04-5.74,3.65-8.74-2.83-7.43-6.21-14.41-9.95-21.33l-17.02-8.95c-15.91-8.37-32.12-14.97-49.27-20.91-3.64-16.32-14.07-33.86-26.56-45.18,6.97,10.61,12.96,20.69,17.12,32.44,1.28,3.61,2.77,7.01,2.68,10.96l-44.03-11.15c-22.19-5.62-39.54-13.01-58.09-26.97-8.63,2.65-16.19,7.74-22.2,14.33l1.1,12.31c8.04-1.44,22.76-4.33,30.08-3.03,23.55,2.34,39.83,13,51.91,33.55-14.76,5.69-26.43,14.38-36.73,26.1-.8-6.32-.88-11.51-2.59-17.51l-2.53,15.69c-14.04-14.22-25.87-32.38-25.24-52.69-5.07.36-9.85.9-14.96,2.79ZM415.14,363.74c4.29-24.13,6.27-63.46,5.83-87.3l-.61-33.46c-5.9,1.29-10.38,3.39-14.84,6.37,7.71,15.67,2.1,41.04-5.67,55.86-.25,6.98-2.92,8.62-5.05,14.82,3.7,15.69,7.72,32.49,20.33,43.71ZM627.49,316.26c-4.71-2.03-7.4-2.98-11.22-3.85-12.57,14.69-29.69,22.89-48.08,27.51l1.77-9.11-4.5,10.08-19.94,2.8c4.45-12.57,11.34-22.57,20.86-30.69,7.91-6.75,17.86-10.25,28.06-10.94,8.68-.58,15.66,2.07,23.04,5.96,3.55,1.87,7.79,2.74,11.82,4.25-3.6-9.73-13.28-17.07-22.36-20.55-11.68,2.11-22.36,5.54-33.1,10.41l-42.42,19.22-24.6,13.32-.09-16.28c-4.51,7.4-2.5,18.92-7.11,22.26-14.17,10.25-25.95,22.58-35.74,37.09-.83,1.24-1.13,3.31-.81,4.43l24.08-7.21c7.83-7.64,16.77-13.21,27.28-16.89,28.23-9.9,59.03-6.36,84.33,10.3,8.9-18.57,20.75-33.35,28.73-52.11ZM298.14,481.88c11.41,3.24,22.42,5.07,34.63,7.33-14.64-19.45-21.07-37.54-26.97-60.96-13.02-8.5-23.94-15.54-34.6-26.88l-11.46-41.48c-.04,12.76,2.93,24.26,4,37.23-11-9.97-20.35-20.4-28.81-31.95-6.82-9.31-11.29-19.33-13.93-30.79-14.79-3.11-29.3-3.15-39.93,9.29,4.57,11.69,9.8,22.38,15.67,33.01,2.92-1.09,5.1-1.59,7.77-1.64,29.12-.52,50.59,16.96,61,43.02,3.34,8.37,5.96,16.41,6.3,26.27-10.72-4.25-20.93-8.84-31.14-14.29l-2.5-6.06-.59,4.46c-7.3-4.43-13.12-8.75-19.71-13.9,18.8,31.55,44.33,57.13,80.25,67.33ZM650.49,452.79l-13.02-22.13,10.42,26.86c-12.02,24.02-37.82,49.62-65.54,54.11,11.96-17.73,18.74-33.47,19.89-54.84l.81-22.7,21.46-20.15-20.58,12.95c2.77-22.11,10.28-42.58,23.29-59.8,4.48-5.93,9.91-10.25,16.74-12.54,2.71-4.74,5.7-8.83,9.33-13.69-7.82-3.36-15.91-4.75-24.26-3.44l-18.21,36.2c-6.98,13.87-12.4,27.78-17.43,42.44l-15.24,44.4c-9.04,26.33-25.38,56.94-44.72,77.62,11.81.14,23-1.07,34.59-2.67,11.59-1.6,22-5.24,32.3-10.68,12.24-6.66,22.94-14.92,33.12-24.53,12.59-11.89,21.65-26.12,28.51-42.03,14.11-32.68,14.92-69.09,1.89-102.14-1.85-4.7-3.78-8.57-7.13-12.38-3.16,3.42-5.24,6.48-7.43,10.48,10.34,10.08,14.51,27.53,14.94,41.52.6,19.93-4.43,39.23-13.72,57.11ZM523.69,467.16l-7.22-7.07c1.55,4.01,3.19,6.99,5.14,10.52-4.4,8.65-9.6,16.39-15.9,23.77-10.37-17.73-12.09-43.21,1.31-58.5,5.44-6.2,11.72-8.82,19.44-10.94-.36.1,14.74-7.2,15.2-8.68l-14.92-9.13-22.16,19.9c-5.02,4.21-9.92,7.84-15.64,11.08-12.6,7.14-24.18,14.88-36.82,23.54-3.36-21.04,3.6-42.37,19.03-56.95,9.53-9.01,20.85-14.09,33.79-17.41l-16.06-7.07c-9.4.5-18.05,3.36-26.49,6.57-3.87,5.14-8.11,9.25-13.36,12.63l-14.42,9.28c-2.65,1.7-5.06,3.38-7.75,5.44-5.21,43.23-6.84,80.98,7.04,122.96l12.77,38.63c7.93-7.89,14.66-15.27,22.93-21.83,7.53-5.97,15.14-10.86,23.14-16.24,43.32-28.47,61.6-61.63,79.06-109.57l-25.62-9.08c-5.58,2.67-11.09,5.56-16.47,8.89,3.64,13.78-.16,26.34-6.02,39.27ZM582.7,399.89c-5.4.08-8.64-.03-12.59-.65l7.85,11.36,4.74-10.71Z"/>
      <path d="M257.4,135.99c-2.89,1.26-5.72,1.79-8.27,1.05l-13.02-3.82,12.51-7.92c-8.18-12.46-17.06-23.54-27.07-35.63,26.67-4.21,53.11-.15,76.17,11.98,11.23,5.9,21,12.63,29.29,23.04-4.18.18-8.07.03-12.4-.07-19.87-.45-38.85,3.37-57.2,11.38Z"/>
      <path d="M233.02,132.7c-26.83-6.72-50.21-10.77-78.3-5.64,12.91-19.16,41.55-34,63.86-36.68,6.85,6.91,12.26,14.25,17.44,22.18l8.21,12.58-11.22,7.57Z"/>
    </g>
  </g>
</svg>