<?xml version="1.0" encoding="UTF-8"?>
<svg id="Layer_2" data-name="Layer 2" xmlns="http://www.w3.org/2000/svg" viewBox="0 0 1007.99 729.75">
  <defs>
    <style>
      .cls-1 {
        fill: none;
      }
    </style>
  </defs>
  <g id="Layer_3" data-name="Layer 3">
    <g>
      <path class="cls-1" d="M450.3,708.97c-3.39,1.95-6.18,4.15-9.07,6.85,3.66-1.02,7.34-3.03,9.07-6.85Z"/>
      <path class="cls-1" d="M197.98,568.15c1.67-2.78,11.94-19.72,7.63-21.43-2.73,2.12-4.62,4.26-6.41,7.05-26.98,41.89-66.66,99.39-100.85,135.37-4.75,5-10.13,8.88-13.91,14.94,9.15-6.63,16.72-14.18,24.56-21.74l9.85-9.51c18.73-18.08,34.75-37.77,49.39-58.88,10.46-15.08,20.35-30.15,29.75-45.81Z"/>
      <path class="cls-1" d="M522.83,558.6l-21.56,20.8-8.99,8.96-6.77,6.89c-9.47,9.64-19.07,18.95-27.53,29.7,12.32-8.89,22.31-19,33.23-28.63l9.94-9.23,17.95-17.29,6.26-6.4c3.68-3.77,6.83-7.58,9.24-12.68-1.79-1.31-10.54,6.68-11.78,7.88Z"/>
      <path class="cls-1" d="M709.78,580.88l-36.44,40.34-60.35,65.84c6.2-4.05,11.22-9.07,16.61-13.91l14.33-12.9,15.74-14.57,22.34-21.51c13.52-13.01,36.4-40.93,46.87-56.83.52-.8.62-2.14.54-3.38-4.69.41-16.26,13.19-19.63,16.92Z"/>
      <g>
        <path class="cls-1" d="M167.39,641.23c.82-.45,2.2-1.23,2.84-1.88l14.09-14.12,8.2-8.52c30.31-31.52,59.42-67.83,81.22-105.53,15.98-27.63,31.06-55.39,44.96-83.94,2.41-4.95,4.27-10.37,4.8-15.23.04-.4-.38-1.64-.69-1.55-2.13.6-6.31,6.03-7.85,8.18-9.05,12.68-17.44,25.22-25.77,38.41-14.43,22.83-29.15,45.32-44.74,67.53-20.58,29.3-39.54,59.29-59.05,89.13l-18.01,27.54Z"/>
        <path class="cls-1" d="M522.83,558.6l-21.56,20.8-8.99,8.96-6.77,6.89c-9.47,9.64-19.07,18.95-27.53,29.7,12.32-8.89,22.31-19,33.23-28.63l9.94-9.23,17.95-17.29,6.26-6.4c3.68-3.77,6.83-7.58,9.24-12.68-1.79-1.31-10.54,6.68-11.78,7.88Z"/>
        <path class="cls-1" d="M448.98,330.13c4.69-9.85,8.96-19.24,12.84-29.3,1.25-3.25,2.29-6.65,2.29-10.04,0-2.85-1.42-5.58-2.2-8.36-2.39-8.59-3.8-17.14-5.17-25.94-.68-4.35-1.44-8.42-3.37-12.72-3.81,4.9-5.6,9.9-7.72,15.13-3.52,8.71-5.25,17.62-5.4,27l-.27,17.5c-.11,7.27-2.32,14-5.63,20.53l-11.67,23.03c-6.87,13.56-20.62,38.36-32.15,55.65-3.36,5.04-6.53,9.45-9.29,12.74-.48.57-2.22,1.01-2.87.71-1.89-.85.5-7.08,1.1-8.38l3.68-8.03,11.55-25.21,12.92-26.86c5.92-12.3,11.43-24.32,16.5-36.91,1.11-2.75,1.81-5.2,2.15-8.53-3.39,2.46-5.41,5.42-7.68,8.62-5.87,8.29-11.26,16.5-16.62,25.13l-16.16,26.02c-6.28,10.1-12.62,20.04-19.45,29.69-3.96,5.6-8.08,11.11-12.44,16.5-5.82,7.19-11.54,13.65-16.34,21.52-6.82,11.2-13.08,22.16-19.3,34.02l-17.03,32.5c-10.89,20.78-21.61,41.27-33.91,61.36-15.59,25.45-72.94,89.85-95.55,112.7l-17.94,18.13-5.48,5.72c-.46.77-.16.85.67.55l23.94-19.31,101.66-82.25,49.28-42.17,5.02-4.61c18.64-17.12,37.17-49.39,49.15-71.74,11.59-21.62,22.56-43.36,33.22-65.37,2.33-4.81,4.65-9.63,6.95-14.46l30.7-64.55Z"/>
        <path class="cls-1" d="M197.98,568.15c1.67-2.78,11.94-19.72,7.63-21.43-2.73,2.12-4.62,4.26-6.41,7.05-26.98,41.89-66.66,99.39-100.85,135.37-4.75,5-10.13,8.88-13.91,14.94,9.15-6.63,16.72-14.18,24.56-21.74l9.85-9.51c18.73-18.08,34.75-37.77,49.39-58.88,10.46-15.08,20.35-30.15,29.75-45.81Z"/>
        <path class="cls-1" d="M709.78,580.88l-36.44,40.34-60.35,65.84c6.2-4.05,11.22-9.07,16.61-13.91l14.33-12.9,15.74-14.57,22.34-21.51c13.52-13.01,36.4-40.93,46.87-56.83.52-.8.62-2.14.54-3.38-4.69.41-16.26,13.19-19.63,16.92Z"/>
        <path class="cls-1" d="M450.3,708.97c-3.39,1.95-6.18,4.15-9.07,6.85,3.66-1.02,7.34-3.03,9.07-6.85Z"/>
        <path class="cls-1" d="M508.7,557.29c5.77-6.74,10.87-13.5,15.24-21.1,5.23-9.11,12.39-24.65,24.47-24.29,9.07.27,24.14,9.78,34.23,12.07-7.27-5.21-14.61-9.42-22.32-13.49-15.26-8.05-32.12-13.43-46.55-.73-5.24,4.62-9.97,9.47-14.36,15.02l-29.62,37.54-36.58,48.51c-10.43,13.83-20.9,27.09-32.08,40.31-6.71,7.94-13.65,15.09-21.95,21.38-3,3.03-6.78,4.86-9.3,8.56,25.13-16.4,51.62-34.32,72.59-54.81l9.78-9.56,26.75-27.3c10.33-10.54,20.13-20.94,29.7-32.11Z"/>
        <path d="M342.6,334.29c4.5-1.23,8.63-4.48,12.76-8.79,25.64-26.77,69.21-112.19,88.46-148.03l20.78-38.68c.18-.34,1.11-1.24,1.34-1,.23.24.8.86,1,1.17l7.91,12.12,43.36,69.85,21.33,33.86c1.97,3.13,4.13,5.71,6.5,8.54,4.35,5.2,11.32-.45,22.36,7.35,4.81,3.4,8.82,7.4,12.44,12.04,5.86,7.52,10.97,15.13,16.01,23.31l4.07,6.6c32-33.21,51.58-77.68,51.58-126.56C652.5,83.3,566.03,0,459.36,0s-193.14,83.3-193.14,186.07c0,60.49,29.97,114.24,76.39,148.22Z"/>
        <path d="M378.37,416.07c.65.29,2.39-.14,2.87-.71,2.76-3.29,5.93-7.7,9.29-12.74-2.49-.94-4.95-1.93-7.39-2.96l-3.68,8.03c-.6,1.3-2.99,7.53-1.1,8.38Z"/>
        <path d="M1007.41,725.03l-8.32-7.01-9.51-.09c-4.06-.04-6.31-3.11-6.17-6.85.07-2,.01-4.22-.13-6.27l-42.26-35.11-19.19-16.37-8.56-7.96c-11.99-11.15-16.93-18.69-23.85-33.25-4.99-10.49-9.75-20.72-15.5-30.86-3.9-6.87-8.68-12.82-14.42-18.31-18.16-17.38-42.6-22.37-67.31-16.95-9.14,2-12.33,4.02-21.12-.23l-14.95-7.24c-7.99-3.87-28.54-13.41-34.86-4.01-2.74,4.08-5.13,8.12-7.33,12.52-6.32,12.6-21.72,28.64-32.22,38.59-7.57,7.17-14.89,14.11-23.81,19.68-8.33,5.2-16.86,9.34-25.86,13.39l-30.63,13.78-9.45-7.82c-5.82-4.82-13.91-4.37-20.47-.67-4.99,2.82-9.68,5.78-14.19,9.57-31.84,26.8-65.42,51.38-101.12,73.17-.87.11-1.78.3-.85-.12,3.46-2.88,6.42-5.25,9.79-7.73l30.87-22.68c21.39-15.72,42.84-35.22,58.16-56.61l26.15-36.5,14.21-20.33c20.07,2.41,32.67,14.47,52.53,2.12,7.35-4.57,13.71-10.03,20.24-15.72,13.8-12.01,30.96-27.15,50.65-27.34,9.87-.1,19.4,2.49,28.46,6.44l25.6,11.16c2.84,1.24,6.13,2.24,9.07,1.29,1.61-.52,3.25-2.28,3.53-3.51.32-1.42-.48-3.87-1.48-5.12-4.3-5.4-8.92-10.14-13.81-15.02l-10.08-10.04c-19.85-19.78-38.62-40.27-55.67-62.43-5.97-7.75-11.32-15.3-17.8-22.54-10.52-11.76-17.89-16.33-34.52-14.79l-16.33,1.51-32.66-53.01c-35.27,36.6-85.63,59.51-141.56,59.51-17.07,0-33.61-2.14-49.37-6.15-10.66,22.01-21.63,43.75-33.22,65.37-11.98,22.35-30.52,54.62-49.15,71.74l-5.02,4.61-49.28,42.17-101.66,82.25-23.94,19.31c-.83.31-1.13.22-.67-.55l5.48-5.72,17.94-18.13c22.61-22.85,79.96-87.25,95.55-112.7,12.3-20.08,23.02-40.57,33.91-61.36l17.03-32.5c6.22-11.86,12.48-22.82,19.3-34.02,4.79-7.87,10.52-14.33,16.34-21.52,4.36-5.39,8.48-10.9,12.44-16.5-7.82-4.23-15.31-8.96-22.41-14.16-4.32,1.18-8.97.51-14.29-2.89-10.73-6.85-21.07.72-28.04,8.74-7.51,8.64-13.62,17.96-19.34,27.9-18.62,32.41-40.32,66.88-64.14,95.89-3.43,4.18-7.73,6.43-13.12,7.11-13.51,1.71-27.55,3.92-39.28,10.54-5.15,2.91-8.78,6.75-11.93,11.64-9.75,15.13-17.95,30.68-26.38,46.59-22.25,41.99-52.77,84.61-85.02,119.98l-20.7,22.71c-.29.31-1.18.63-1.31.34l-.55-1.19c-1.62-3.47-6.92-16.13-9.57-17.06-3.41-1.21-9.32,18.77-10.29,22.01l904.83-.07,47.52-.34,23.12-.41,13.28-.4c3.64-.11,17.14-.32,19.17-2.03.23-.19-.21-1.22-.52-1.47ZM244.44,524.56c15.6-22.21,30.31-44.69,44.74-67.53,8.33-13.19,16.73-25.73,25.77-38.41,1.54-2.15,5.71-7.58,7.85-8.18.31-.09.74,1.15.69,1.55-.53,4.87-2.39,10.29-4.8,15.23-13.9,28.55-28.98,56.31-44.96,83.94-21.81,37.7-50.91,74.01-81.22,105.53l-8.2,8.52-14.09,14.12c-.64.65-2.02,1.42-2.84,1.88l18.01-27.54c19.51-29.84,38.47-59.83,59.05-89.13ZM108.99,682.35c-7.83,7.56-15.4,15.11-24.56,21.74,3.78-6.06,9.16-9.94,13.91-14.94,34.19-35.98,73.88-93.48,100.85-135.37,1.8-2.79,3.68-4.93,6.41-7.05,4.31,1.71-5.96,18.65-7.63,21.43-9.39,15.66-19.29,30.73-29.75,45.81-14.64,21.11-30.66,40.8-49.39,58.88l-9.85,9.51ZM525.37,563.39l-6.26,6.4-17.95,17.29-9.94,9.23c-10.92,9.63-20.91,19.75-33.23,28.63,8.46-10.75,18.06-20.06,27.53-29.7l6.77-6.89,8.99-8.96,21.56-20.8c1.24-1.2,9.99-9.19,11.78-7.88-2.41,5.09-5.55,8.91-9.24,12.68ZM441.22,715.82c2.9-2.7,5.68-4.9,9.07-6.85-1.73,3.82-5.41,5.83-9.07,6.85ZM442.47,626.25c-20.97,20.5-47.46,38.42-72.59,54.81,2.52-3.7,6.3-5.53,9.3-8.56,8.3-6.29,15.24-13.44,21.95-21.38,11.18-13.22,21.65-26.48,32.08-40.31l36.58-48.51,29.62-37.54c4.38-5.56,9.11-10.41,14.36-15.02,14.42-12.7,31.29-7.32,46.55.73,7.72,4.07,15.06,8.28,22.32,13.49-10.08-2.28-25.16-11.79-34.23-12.07-12.09-.36-19.24,15.18-24.47,24.29-4.36,7.6-9.47,14.36-15.24,21.1-9.57,11.17-19.37,21.56-29.7,32.11l-26.75,27.3-9.78,9.56ZM728.87,567.34c-10.48,15.9-33.35,43.82-46.87,56.83l-22.34,21.51-15.74,14.57-14.33,12.9c-5.38,4.84-10.41,9.86-16.61,13.91l60.35-65.84,36.44-40.34c3.37-3.73,14.94-16.51,19.63-16.92.08,1.24-.02,2.58-.54,3.38Z"/>
        <path d="M385.81,361.91l16.16-26.02c5.36-8.63,10.75-16.84,16.62-25.13,2.27-3.21,4.29-6.16,7.68-8.62-.33,3.33-1.04,5.78-2.15,8.53-5.07,12.6-10.59,24.61-16.5,36.91l-12.92,26.86-11.55,25.21c2.44,1.03,4.9,2.02,7.39,2.96,11.53-17.29,25.28-42.09,32.15-55.65l11.67-23.03c3.31-6.53,5.52-13.26,5.63-20.53l.27-17.5c.15-9.38,1.88-18.29,5.4-27,2.11-5.23,3.91-10.23,7.72-15.13,1.93,4.3,2.69,8.37,3.37,12.72,1.38,8.8,2.78,17.34,5.17,25.94.77,2.78,2.19,5.51,2.2,8.36,0,3.39-1.03,6.79-2.29,10.04-3.88,10.06-8.16,19.45-12.84,29.3l-30.7,64.55c-2.3,4.84-4.62,9.65-6.95,14.46,15.76,4,32.31,6.15,49.37,6.15,55.93,0,106.29-22.91,141.56-59.51l-4.07-6.6c-5.04-8.18-10.14-15.79-16.01-23.31-3.62-4.64-7.63-8.63-12.44-12.04-11.04-7.8-18-2.15-22.36-7.35-2.37-2.83-4.54-5.41-6.5-8.54l-21.33-33.86-43.36-69.85-7.91-12.12c-.2-.31-.77-.93-1-1.17-.23-.24-1.16.66-1.34,1l-20.78,38.68c-19.25,35.84-62.82,121.26-88.46,148.03-4.12,4.31-8.26,7.55-12.76,8.79,7.1,5.2,14.59,9.94,22.41,14.16,6.82-9.65,13.17-19.58,19.45-29.69Z"/>
      </g>
    </g>
  </g>
</svg>