<?xml version="1.0" encoding="UTF-8"?>
<svg id="Layer_2" data-name="Layer 2" xmlns="http://www.w3.org/2000/svg" viewBox="0 0 1322.94 638.73">
  <g id="Layer_3" data-name="Layer 3">
    <g>
      <path d="M672.26,466.38c5.6,3.8,10.72,5.29,17.43,3.87l73.92-15.66c5.03-1.07,9.9.45,14.26,3.29l115.61,75.22c3.46,2.25,6.66,3.76,10.17,5.37l-2.4-17.74,19.43,11.54-13.81-18.36,33.23-8.54,7.45,55.32c57.97,6.02,114.55,10.14,170.9,17.03l-224-17.63c.11,5.11,2.43,11.25,6.93,14.28l79.26,3.81,183.56,5.99,29.2,24.36-102.83,5.3-145.5,5.89c-7.53.3-15.5,18.4-28.48,18.99-20.83.94-35.76-16.65-89.99-13.26l-74.1,4.64c-16.02,1-26.01-7.2-40.63-15.68l80.8-19.08-257.84-155.01L225.22,255.11c-29.13-17.42-54.05-38.64-72.65-66.44-18-26.9-29.55-56.5-34.55-88.22-2.75-17.45-1.69-34.37,3.81-50.89,2.08-6.25,7.14-9.74,13.33-11.64,33.56-10.3,67.8-8.74,100.4,3.9l46.42,18c11.32,4.39,21.17,11.13,26.43,22.29l12.49,26.51c2.44,5.17,5.96,12.25,11,15.73l114.76,79.12c37.67,25.97,73.93,51.81,113.39,74.85,6.15,3.59,12.26,8.92,20.25,6.12-38.15-30.1-75.64-56.97-114.22-84.33l-102.48-72.7c-3.54-2.51-7.05-6.2-5.14-10.52l196.22,135.79c8.46,5.85,15.32,10.23,24.09,15.28l-6.58-19.24c7.06,2.38,10.89,7.56,12.74,15.01.41,1.67-1.56,4.26-3.92,6.18l42.34,31.71c-22.14-1.49-41.26-5.93-61.6-9.48-5.65-.99-9.67.71-11.48,6.33l-3.81,11.86,19.15,21.18c9.64,10.66,21.52,9.57,34.31,11.08l81.46,9.66,152.9,18.32c-25.34,19.09-32.04,36.77-22.91,67.59l-122.28,26.59c-5.5,1.2-9.75.6-14.11-2.36l-63.04-42.72c-23.77-16.11-59.99-32.98-86.8-14.63-3.31,2.26-6.41,6.41-6.19,9.95.2,3.24,2.66,7.09,5.76,10.11-1.73-9.62,1.2-16.59,10.88-19.37,19.87-5.71,41.67-3.74,59.92,8.63l76.73,52.02ZM513.48,278.38c.49-3.65-11.04-14.36-14.22-16.95-64.01-52.12-131.69-99.93-203.5-141.43-10.22-5.91-20.36-10.03-31.87-13.45,3.15,7.61,8.37,10.92,13.86,15.13,23.65,18.1,45.63,36.9,70.77,53.32l132.55,86.57c3.19,2.08,31.93,20.39,32.41,16.8ZM889.23,544.03c-29.49-23.58-60.01-45.1-95.36-60.43,22.23,24.17,64.6,48.85,95.36,60.43Z"/>
      <path d="M1060.17,425.73l-14.08-11.26c1.57,13.52,7.1,26.71,17.79,36.13,5.33,4.7,11.94,8.27,17.46,12.65l32.39,25.72-17.44-50.9,226.66-.12-22.24-28.7-72.82-4.62-323.26-25.46,36.25,41.45c6.63,9.33,17.09,15.14,29.17,15.08l78.3-.35-15.48-37.16,1.72-1.72c.31-.32,1.95.44,2.38.87l25.61,26.1c.46.47.94,2.16.93,2.74-.02.77-2.62.1-3.32-.46Z"/>
      <path d="M353.88,129.89l-8-56.39,347.51,245.73-131.43-21.88c-5.41,3.21-8.34,8.53-10.02,14.13,22.06,5.47,41.79,9.05,63.98,12.28l235.88,34.42c133.2,19.44,266.45,31.07,400.89,43.43-31.85-6.87-64-9.57-97.27-14.02l-230.56-30.82-223.03-35.34-48.62-36.01L333.07,47.64C299.36,22.61,259.48,7.36,217.86,1.26c-23.45-3.43-46.79-.1-66.28,12.85-7.27,4.83-13.21,11.77-20.17,17.64,7.56.83,15.24-.52,20.51-6.1,1.92-2.03,1.11-8.25.26-10.52,25.46-8.38,51.56-7.8,77.48-.66,34.74,9.57,66.62,24.94,96.14,44.98l7.08,58.11-.59-48.62c10.83,1.74,13.36,18.9,11.61,21.74-.78,1.26-4.29,1.47-7.86,1.76l1.65,27.1,16.19,10.34Z"/>
      <path d="M369.29,465.04c4.79,4.43,12.66,3.89,18.34,3.11,22.14-3.03,42.78-3.45,65.08-2.64l114.88,4.18-151.2-91.97c-4.9-3.67-10.14-3.84-15.74-1.99l-94.41,31.03,63.04,58.28Z"/>
      <path d="M185.84,481.92c.63.49,1.14,3.2.69,3.09-.71-.17-2.76-.73-3.51-1.16l-11.69-6.6,7.27,16.35c4.19,8.2,10.97,13.29,19.01,17.65l42.61,23.06-24.76-43.81,21.09-5.22c-11.16-16.98-12.71-34.74-4.85-53.7L0,499.34l42.84,22.34,134.94-23.52-21.25-33.94c-.44-.71-.43-3.28.28-3.22s2.47.45,3.14.96l25.9,19.95Z"/>
      <path d="M916.97,507.62c41.03-11.79,48.14-52.18,40.76-59.65-14.32-14.48-28.53-27.94-44.03-42.11,2.59,20.55-4.11,39.16-18.89,50.92-16.06,12.77-35.48,13.98-57.45,7.63l45.86,36.36c10.03,7.96,20.75,10.59,33.75,6.86Z"/>
      <path d="M304.43,535.32c10.05,7.25,21.07,8.9,32.56,5.99,23.39-5.92,40.1-23.78,43.05-47.28,1.07-6.8-2.07-12.32-7.33-16.46l-41.96-33.06c.88,18.04-2.59,33.62-14.96,45.34-16.92,16.03-39.46,16.97-62.9,9.16,16.21,14.24,34.31,23.89,51.54,36.32Z"/>
      <path d="M873.65,451.54c14.58-6.26,24.04-19.43,25.21-34.52,1.28-16.55-10.16-31.69-27.03-34.54-24.57-4.16-47.17,14.36-46.6,38.18.27,11.56,6.24,21.51,14.58,27.21,9.8,6.7,22.28,8.64,33.85,3.67Z"/>
      <path d="M295.02,485.83c11.22-6.94,18.84-17.49,19.93-30.32,1.38-16.28-10.14-31.58-26.68-34.68-13.61-2.55-26.17,3.42-34.54,12.41-9.09,9.77-12.36,23.32-8.09,36.07,3.13,9.33,10.82,16.46,18.59,19.59,10.44,4.2,21.31,2.79,30.79-3.07Z"/>
      <path d="M38.29,481.8c116.77-37.18,229.6-80.89,347.33-120.51-3.71-7.78-12.36-9.95-21.48-8-107.25,44.15-216.99,81.57-325.85,128.52Z"/>
      <path d="M821.92,440.04c-2.04-24.74-3.97-47.19,22.3-60.06,23.87-11.69,40.44-1.96,59.43,10.8-3.74-9.34-12.57-13.9-21.35-17.17-20.08-7.45-43.47-2.67-56.63,13.59-12.79,15.8-15.38,36.62-3.75,52.85Z"/>
      <path d="M245.92,432.92c9.41-12.53,25.13-19.89,40.56-19.2,12.71.56,21.99,7.45,32.16,14.23-10.67-16.72-31.81-22.61-51.16-16.92-26.7,7.84-41.94,37.47-28.77,61.48-1.35-14.13-1.86-27.51,7.21-39.58Z"/>
      <path d="M158.08,26.62c11.04.33,20.88.74,31.67-.44,4.5-.49,7.32-7.91,8.65-13.17-10.68-.21-20.99-.04-31.8,2.82-3.45.91-6.81,7.52-8.53,10.79Z"/>
      <path d="M222.23,29.98l1.73-12.56c-5.59-1.49-10.96-3.34-16.15-2.79-5.88.63-8.4,7.91-9.38,12.49l23.8,2.86Z"/>
      <path d="M263.52,32.26c-2.34-.49,1.69,20.69,18.19,21.49,1.25-10.13-5.37-18.78-15.62-20.94l-2.58-.54Z"/>
      <path d="M261.53,44.72l-4.42-12.06c-1.85-5.05-7.19-8.59-12.53-9.82-2.39,11.28,5.09,20.26,16.95,21.88Z"/>
      <path d="M406.85,144.95c2.07-9.07,1.15-19.4-9.97-23.13-3.05,9.07-.65,19.25,9.97,23.13Z"/>
      <path d="M243.95,39.09l-4.6-12.39c-1.4-3.78-4.4-6.81-8.55-8.41-1.82,3.84-4.05,10.22-1.19,14.13,2.99,4.09,10.01,5.42,14.34,6.67Z"/>
      <path d="M427.97,144.53c-1.83-.69-2.05,17.72,9.38,22.53,4.07-9.81.87-18.65-9.38-22.53Z"/>
      <path d="M469.41,188.38c2.89-8.12.71-17.84-9.39-21.96-1.46,7.67-1.99,18.18,9.39,21.96Z"/>
      <path d="M489.86,190.86c-1.22,9.51,1.58,15.89,9.83,18.81,1.44-5.7,1.08-11.79-2.26-16.79-1.52-2.27-7.24-4.64-7.57-2.02Z"/>
      <path d="M518.59,213.39c.83,7.14,1.95,14.53,9.32,15.83,3.93-5.29,2.01-16.14-6.9-19.13-.83-.28-2.07,1.54-2.42,3.29Z"/>
      <path d="M556.16,249.71c3.17-7.57,1.01-16.3-7.45-20.63-3.28,6.91-1.74,16.18,7.45,20.63Z"/>
      <path d="M625.8,284.08c-4.41,7.84-.53,16.05,7.41,19.04,2.79-6.93,1.64-15.85-7.41-19.04Z"/>
      <path d="M607.95,285.97c1.74-8.22,1.01-18.75-8.99-20.17-.89,7.88.31,15.49,8.99,20.17Z"/>
      <path d="M734.54,601.76c7.68-1.44,34.92-10.92,37.93-13.63,9.35-8.4-43.41,13.3-37.93,13.63Z"/>
      <path d="M811.55,473.35c.29.91,2.26,3.35,2.87,2.92l2.93-2.05-5.32-14.2c-.24-.64-2.63-2.4-3.1-1.99-.63.55-1.56,2.35-1.3,3.15l3.91,12.17Z"/>
      <path d="M896.83,531.08l-7.59-18.72c-5.53,7.7-.73,16.33,7.59,18.72Z"/>
      <path d="M847.53,488.63c2.43,7.12,3.92,10.89,7.09,17.15,2.39-5.55,1.78-9.87.05-14.35-1.05-2.72-5.49-5.3-7.14-2.81Z"/>
      <path d="M836.21,487.64l-5.49-17.1c-4.06,2.71-4.39,6.53-3.03,10.27,1.08,2.98,4.13,5.61,8.52,6.82Z"/>
      <path d="M870.54,512.75c.27,1.01,1.42,2.69,1.87,3.3s3.57-1.13,3.35-1.85l-4.01-13.57c-.14-.48-1.62-1.74-1.97-1.47-.52.4-2.27,2.16-2.1,2.79l2.85,10.8Z"/>
      <path d="M648.6,304.97c1.03,3.75,6.63,4.13,9.07,2.19l-8.06-10.75c-.88,2.34-1.72,5.97-1,8.57Z"/>
      <path d="M790.95,457.91l5.36,3.96-2.13-12.73c-1.94.93-3.46,1.76-4.19,2.7-.87,1.13-.17,5.24.95,6.07Z"/>
    </g>
  </g>
</svg>