<?xml version="1.0" encoding="UTF-8"?>
<svg id="Layer_2" data-name="Layer 2" xmlns="http://www.w3.org/2000/svg" viewBox="0 0 847.31 570.09">
  <g id="Layer_3" data-name="Layer 3">
    <path d="M411.99,482.65c-1.39,27.78-3.34,54.3-6.69,81.51-.31,2.54-3.69,3.87-6.07,3.88l-117.45.43-124.27.84-90.45.38-29.92.2-25.31.2c-1.39.01-3.64-1.02-4.29-2.06-.61-.98.23-3.33,1.47-4.49l69.61-65.75,145.74-136.76,81.35-79.18c13.77-13.4,25.67-27.52,36.52-43.15,13.53-19.51,20.95-42.81,3.04-62.41-5.32-5.83-11.63-10.03-18.62-14.26-1.11-.02-2.43.07-1.04.7,6.66,3.91,12.42,7.72,17.28,13.03,18.3,19.94,8.17,43.33-5.74,62.17-10.99,14.89-23,28.16-36.59,40.85l-51.58,48.18-146.34,130.26L6.1,543.56c-.8.72-2.12,1.3-2.8,1.41s-2.34-1.13-2.72-1.81l-.58-40.45.31-41.57c.03-4.54,1.25-7.34,4.97-9.87l175.67-119.47,64.77-45.33c20.04-14.03,38.65-28.84,56.42-45.49,13.39-12.54,36.11-36.96,30.52-56.91.52,18.96-12.62,35.63-26.13,48.66-12.3,11.86-25.11,22.29-38.86,32.63-19.5,14.66-38.9,28.5-59.52,41.75l-104.62,67.21-95.31,60.19c-1.51.95-3.86.94-5.01.08-.83-.62-1.78-2.6-1.79-3.77l-.1-16.65c-.02-2.55,1.35-5.43,3.77-6.8l57.37-32.56c1.98-1.12,1.8-5.08.25-6.51l-54.41,28.52c-1.35.71-4.17.5-5.14-.21s-1.93-3.06-1.92-4.35l.02-7.1c0-1.93,1.54-4.53,3.65-5.58l58.85-29.2.42-16.34c.04-1.35.77-3.71,1.62-4.55,2.33-2.28,12.08-1.59,13.79.74,1.86,2.53,1.25,6.66,1.3,9.99l1.64,1.04,43.17-22.06.37-15.09c.07-2.83,2.26-4.58,4.99-4.42,3.17.18,6.99-.12,9.34,2.2.39,1.91.74,5.31.96,7.34l.14,1.27c.02.22.98.23,1.42,0l35.76-18.73c2.85-1.49,3.9-2.63,3.95-6.02.05-3.46-1.09-9,1.27-11.58s8.21-1.38,10.62.55l1.12,6.44c.1.58,1.54.73,2.06.44l25.68-14.49.36-9.31c.05-1.24.71-3.44,1.57-4.12,1.76-1.41,8.42-1.05,9.04.89.46,1.4.86,3.17,1.37,5.33l16.51-9.71c.21-3.96.3-7.69.85-11.17,1.62-2.55,6.98-2.05,8.7-.6l1.84,4.58c3.46-2.05,6.8-4.08,9.38-6.27.22-3.14.38-6.38.79-9.49.19-1.43,3.87-2.02,5.24-1.83,4.64.64,3.22,5.72,5.16,4.32l7.61-5.5c.34-2.89.66-6.2,1.16-8.67.25-1.23,3.56-2.39,4.62-1.86l3.62,1.8c4.68,2.32,2.63-8.31,4.57-9.91,2.59-2.14,6.52,1.02,7.01.09,1.96-3.71-.37-4.73,1.86-9.1l4.61-1.39,2.84-7.91c2.31-6.43-1.19-14.67-6.35-19.47-16.32-15.2-16.58-13.06-36.42-13.07h-112.48s-157.84.1-157.84.1c-6.81,0-5.79-8.19-5.05-13.37.38-2.69,3.31-3.48,5.55-3.53l9.97-.22,30.81.05,122.75,2.09,28.1,1.57,38.09,3.15,52.4,2.18c1.15-4.98,3.93-8.47,8.52-10.52,17.66-7.91,48.86-10.45,68.15-12.7l-31.8-7.02c.29,2.2.48,4.18-.29,5.11-.67.81-3.47,1.34-4.53,1.04l-29.19-8.09c-3.97-1.1-24.61-5.46-25.74-.28-.65,3,3.34,5.2,1.66,8.18-2.54,4.49-22.08-2.3-27.1-3.97l-89.88-29.82c-20.28-6.73-53.03-15.06-73.78-14.01-4.46.23-16.04,2.55-16.05,7.36-.01,7.29,38.28,20.56,32.73,30.42-.99,1.75-3.53,3.25-5.68,3.22-8.04-.11-15.65-.57-23.61-1.68l-31.54-4.39c-11.56-1.61-22.69-2.96-34.3-3.73-2.65-.18-4.45-2.18-4.42-4.91l.43-40.09L6.38,4.53C6.43,2.05,8.7-.23,11.11.02c10.21,1.07,19.66,3.47,29.21,7.25,16.75,6.63,32.19,14.5,47.83,23.44,19.2,10.97,38.56,20.01,58.74,29.17,5.58,2.53,11.59,5.89,17.6,6.57l29.71-7.46c9.55-2.4,18.2-1.39,27.5,2.08,24.67,9.18,48.26,20.18,71.26,33.04,3.4,1.9,6.39,2.38,10.32,2.33,21.34-.31,41.94.41,63.28,1.38,19.22.87,37.49.29,56.64.25l38.8-.09c16.86-.04,33.11-.56,49.9-1.33,7.05-.33,13.14-1.39,19.27-4.83l15.78-8.85c6.01-3.37,12.47-4.17,19.33-3.48l8.28.84c4.83.49,9.28-.61,13.44-3.13l27.75-16.79c8.32-5.03,17.91-5.08,26.4-.77,7.51,3.81,14.5,7.99,21.75,12.36,11.59,6.99,16.22-6.67,43.23-.01,10.25,2.52,32.29,7.17,41.43,2.52,34.15-17.38,50.04-45.03,89.09-39.02,2.41.37,4.77,2.59,4.76,5.34l-.16,50.51.94,57.9c.06,3.71-2.74,6.19-6.3,6.1l-38.18-.94-163.81.04-154.89.19-11.45-.03c3.23,1.54,6.11,1,9.9,1.33l133.97,11.7,67.08,5.45,142.29,9.62,16.65,1.17c2.4.17,5.24,2.04,5.24,4.64v7.49c0,2.68-2.5,4.93-5.52,4.61l-210-22.39,121.51,15.48,89.38,11.71c2.78.36,4.71,2.99,4.71,5.36v12.8c.01,2.66-2.46,4.75-5.12,4.2l-39.63-8.2c-60.36-12.49-121.1-22.68-182.36-31.27l-247.86-34.76c15.63,4.46,31.37,7.72,47.07,12.66,4.86,1.53,9.58,2.92,14.47,3.82,8,1.48,14.83,6.28,21.77,6.66,3.78.21,4.15.06,7.19,2.28,3.85,2.83,10.89,4.73,15.67,5.48,1.18.18,4.3-1.93,4.92-1.11l2.93,3.88c2.5,3.32,9.61,4.07,13.89,4.94,1.94-.71,4.56-1.54,6.2-1.18,1.28.28,1.64,3.94,2.81,4.5,4.27,2.05,10.16,4.11,14.43,5.31,1.9-1.01,4.27-2.02,5.97-1.61s2.64,2.67,3.12,4.97l27.54,10.29c1.67-1.87,3.13-2.86,4.73-3.07,1.33-.18,4.73.71,5,2.12l1.02,5.39,18.69,7.02c3.3-3.9,8.53-4.37,11.72-1.21l.7,6.13,32.14,12.63c1.55-6.68,9.79-5.67,12.58-4.33,1,.48,1.61,3.1,1.65,4.25l.2,5.52,45.9,18.26c.53-1.42,1.41-4.12,2.58-4.56,3.2-1.2,8.56-1.71,12.02-.55s1.47,9.75,2.65,12.22l45.64,18.47c.77-2.14,1.82-5.33,3.43-5.79,4.96-1.42,15.86-3.38,16.08,4.03l.28,9.7,67.51,27.23c2.39.96,3.64,3.24,4.16,5.05.41,1.42-1.66,5.71-3.55,4.92l-172.76-72.53-56.39-22.51,46.07,19.91,182.5,80.66c2.53,1.12,4.07,3.9,4.08,6.17l.03,9.27c0,1.13-1.13,3.26-2.03,3.81-.77.47-2.89.63-3.87.15l-65.94-32.53c-.64,4.98-.61,9.07-.26,13.85l66.79,35.53c2.4,1.28,5.71,3.52,5.71,6.48l.09,59.45c0,1.82-1.56,3.66-3.06,4.1-1.21.35-3.06-.16-4.62-1.23l-182.01-125.74-121.56-80.81c-28.82-19.16-77.48-45.79-110.07-57.72,47.69,22.56,110.89,60.98,153.52,92.16l93.25,68.22,170.53,129.84c2.89,2.2,4.3,4.82,4.35,8.32l1.07,77.12c.02,1.64-.79,3.94-1.67,4.84-.75.76-2.73,1.14-4.35,1.14l-111.67.19-49.79.29-127.18.82-74.97.43-32.11.5c-3.45.05-6.34-2.01-6.5-5.71l-3.55-79.59c-8.19-.65-15.58-.67-23.52-.06ZM367.82,146.88c2.12-3.41,4.99-5.37,8.7-6.55,14.79-4.74,29.67-7.48,45.16-9.77,1.3-.61,3.45-2.13,4.75-2.51,14.09-4.14,27.36-7.88,41.52-13.34-7.49-.8-14.84-1.33-22.88-1.32l-90.07.14,23.19,4.02c4.89.85,16.48,2.19,16.91,6.82.12,1.32-1.52,3.93-3.1,4.36-8.02,2.17-15.64,3.58-23.76,5.19-10.93,2.17-21.44,3.68-32.69,8.71,10.97,2.31,21.5,3.17,32.27,4.26ZM423.84,143.62l64.2-1.23,49.83-1.03c4.88-.1,9.64-3.1,14.47-4.03,16.26-5.31,32.42-9.04,49.31-11.69,8-1.26,15.37-2.42,23.13-5.46-9.87-.38-18.85-.25-28.7-.04l-75.18,1.65c-18.05.4-35.14,3.57-52.86,5.89l-28.62,6.57-45.36,9.43,29.78-.05ZM306.62,151.46c-1.31-1.68-2.86-3.45-3.03-4.94-.28-2.41,1.9-4.3,5.16-5.8-2.52.35-4.84,1.09-6.65,3.06-1.08,1.17,0,4,1.05,4.86l3.47,2.82ZM371.37,177.47c-.86-2.25-5.8-5.16-7.02-3.52,1.1,2.22,7.74,5.39,7.02,3.52ZM386.9,189.13l-5.43-5.45c-.17-.17-1.66-.44-1.78-.22l-.74,1.3,5,5.04c.4.4,2.48-.14,2.94-.66ZM397.85,206.81c.6.28,1.9-.15,2.96-.61l-4.29-6.59c-.29-.45-1.09-1.16-1.52-1.3-.57-.18-1.85.29-2.51.62l3.79,6.26c.3.49,1.09,1.39,1.57,1.62ZM557.01,230.94c.09-.45-.38-1.6-.99-1.85l-26.26-10.63c1.69,1.59,26.9,14.22,27.25,12.48ZM413.45,231.79l-5.42-13.2c-1.31-.07-3.18.28-3.97.93l4.45,12.54c1.28.52,3.53.24,4.94-.27ZM586.04,242.18l-17.53-7.6c-.56-.24-1.8,1.53-1.55,1.87.33.45,1.05,1.41,1.59,1.67l17.06,8.13c1.06-.05,1.37-3.41.43-4.07ZM631.07,262.23l-32.1-14.33c-.9,1.02-1.1,4.54.09,5.15l31.92,16.32c.73-2.37.72-4.77.1-7.13ZM423.18,268.93l-3.83-18.51c-1.64-1.05-4.84-.99-6.05.55l2.58,18.58c2.49.92,5.37.62,7.3-.61ZM691.4,290.47l-46.01-21.51c-.71,2.75-.72,4.86-.36,7.69l46.23,24.12c.64-3.52.56-6.85.13-10.29ZM216.94,284.35c-7.37,3.23-13.97,7.14-20.85,12.46,7.14-2.98,14.04-7.54,20.85-12.46ZM429.49,325.81l-3.19-32.13c-3.62-.2-5.84-.13-8.97.24l.57,32.11,11.59-.23ZM753.71,333.4c.48-5.16.47-8.27.32-12.83l-45.58-21.83c-.65,4.21-.63,7.56.06,11.13l45.2,23.53ZM181.53,306.48c.6-.35.86-2.02.51-2.38l-40.61,22.43c-.56.31-.45,2.37.16,2.82l39.95-22.87ZM123.65,340c.88-.5,2.07-1.25,2.17-1.92s-.31-2.05-.7-3.02l-43.91,23.69c-1,.54-.76,3.84,0,5.2l42.44-23.94ZM434.6,417.83l-.67-19.69-2.14-35.59c-4.76-.42-9.23-.35-14.2.14l-2.04,40.17-.35,15.22,19.4-.25Z"/>
  </g>
</svg>