<?xml version="1.0" encoding="UTF-8"?>
<svg id="Layer_2" data-name="Layer 2" xmlns="http://www.w3.org/2000/svg" viewBox="0 0 523.78 854.73">
  <g id="Layer_3" data-name="Layer 3">
    <path d="M520.38,854.73h-204.47l4.58-69.34-25.3,4.68c-1.74.32-4.82,2.69-4.76,4.16l.65,16.18.56,20.49c.25,9.07,5.93,16.36,10.18,23.82h-67.15c-1.08-10.18-4.58-19.89-9.55-29.49-5.45-8.8-9.3-18.03-9.57-28.45-.06-2.23-.11-6.19-1.56-7.69-3.84-3.97-7.4-7.28-11.96-10.33-2.82-1.88-9.08.41-10.4,3.1-1.87,3.82-2.01,8.62-3.93,12-6.41,11.27-7.09,22.48-4.59,34.92,1.71,8.51.39,17.54.36,25.95h-55.42c.75-4.94,1.16-10.49,3.67-15.23,2.95-5.59,6.29-11.04,6.76-17.5l2.28-31.16c.28-3.77-5.54-6.28-9.13-5.98-8.18.66-15.63,1.93-23.51,3.37-2.12-12.42-15.48-5.91-21.67-12.13-3.87-3.89-1.67-10.27-1.65-14.89l.09-22.17c.08-19.84,7.41-22.43,18.5-36.98l-19.01-1.05-.4-44.66c-.08-8.74-.35-18.16,6.83-24.44l10.25-8.96-15.26-2.88c-1.58-.3-2.66-3.8-3.15-5.06-5.09-2.77-7.82-8.01-7.05-14.08l2.47-19.33,7.88-65.59c.65-5.45,2.29-11.54,1.13-16.81-2.73-12.48-6.07-24.3-9.96-36.48l-29.73,92.69c-4.1,12.78-1.81,25.11,3.12,37.08,2.15,5.22,2.61,11.41,2.4,17.05l-.9,24.77c-.17,4.79-2.92,10.66-9.1,10.68-2.43.01-4.97-4.4-5.4-6.42l-3.03-14.15c-3.86,3.34-4.64,6.81-4.26,10.63,1.45,14.5,13.85,17.38,16.68,25.51.6,1.71-.32,5.16-1.65,5.84-1.16.6-4.03,1.28-5.28.83-7.33-2.65-13.81-5.67-20.13-9.68-15.55-9.87-14-26.19-11.52-41.27,2.9-17.57,4.82-34.51,5.87-52.19l2.87-48.39c2.39-40.31,6.79-68.01,20.36-106.13,1.43-4.03-.46-7.9-3.85-9.94l-26.71-16.07c-7.71-4.64-8.69-12.99-4.18-20.16l51.43-81.75,14.85,33.14c.29.64,2.2,1.16,2.34.73.1-.3.46-1.3.38-2-1.45-12-2.42-27.94-2.6-40.89-.07-4.83-.77-8.86,2.51-12.8.87-1.05,3.2-2.51,4.47-2.49s3.85,1.95,4.18,3.23l7.31,28.16,5.32,36.12c1.19-10.88.62-21.46.66-32.41.04-12.89.52-25.05,1.97-37.99.24-2.12-2.98-4.36-4.78-5.13l-5.74-2.44c6.04-9.93,23.97-10.89,32.47-3.01,11.11,10.3,20.49,21.47,30.08,33.24.71.88,3.29,1.12,4.45.58,17.77-8.32,36.28-13.51,56.2-14.68,3.67-.21,6.84-.55,10.39-1.63-6.91-2.64-14.02-4.02-21.03-3.15l-16.28,2.02c1.87-11.38,4.97-28.93,19.69-31.82,16.22-3.19,23.86,5.64,29.1,19.02,3.54-8.45-3.89-19.19-11.07-24.34-8.96-6.43-20.99-5.98-29.12,1.64-3.89,3.65-6.77,8.72-8.74,13.63l-5.93,14.81c-10.59-15.91-14.15-27.19-35.33-32.33,6.87-15.92,32.45-26.16,48.57-29.91-11-3.18-20.77,0-31.52,3.98l-10.37-17.46c-4.74-7.98-14.08-1.52-22-12.86-4.35-6.22-18.04-26.75-5.44-31.35l-7.94-19.1-4.58,3.38-1.41-19.32-8.67,7.5,9.18-33.67-12.57,15.67-1.72-.66c-.32-.13.03-1.61.23-1.91l20.97-31.02c-.09,8.59-1.72,15.4-3.07,23.52.3.42,1.12.97,2.51,1.73,7.77-21.32,12.8-32.41,34.96-44.86-15.23,1.3-23.3,14.09-39.14,19-3.56,1.1-5.59,1.84-9.15,3.95.27.37-.43-.59-.84-1.16,1.97-4.27,4.65-8.74,9.36-10.96l45.5-21.43c4.22-1.99,7.71-3.82,11.84-6.06l-19.48,3.52c14.15-18.47,46.2-12.89,64.77-4.22-2.41-9.58-3.28-8.99,4.08-16.59,1.25-1.4,1.88.06,1.5,1.55-3.03,2.2-5.59,8.46-2.09,10.59,9.97,2.95,20,4.56,30.6,6.22-4.55-6.33-11.82-7.42-19.2-9.57,12.53-4.87,27.7,3.5,36.51,12.65,5.38,5.59,10.75,10.95,17.44,15.04s13.25,4.25,21.76,6.31c-5.57,2.02-10.28,3.04-15.88,4.43l6.17,6.89c-5.04-1.21-8.21-2.55-12.36-4.17l8.32,13.37c4.15,6.66,5.77,14.16,4.82,22.13l-4.78-6.25c-1.07,10.07-1.09,19.29.35,28.84l4.77,7.84-7.58-.75-7.19,16.72c4.89,1.51,7.45,4.76,5.74,8.77l-6.68,15.64c-6.04,14.12-17.72,13.61-24.12,20.14-4.64,4.72-6.4,11.48-10.28,17.42l26.75,31.23c.41.48.95,2.16.44,2.54-2.89,2.19-8.66-2.9-16.7-.81-5.68,1.48-8.7,6.65-8.99,11.85-.52,9.49-1.78,17.83-4.96,27.27l22.15,10.64c6.83-10.89,13.45-20.8,21.25-30.61,5.52-6.93,13.71-9.16,22.22-5.46,1.78.78,4.44,2.03,5.14,3.37,2.06,3.92-3.94,8,.72,11.46,11.38,8.45,2.98,17.59,2.23,25.84,5.49-3.08,13.59-19.79,19.44-12.89,2.82,3.33,5.12,6.71,7.28,10.52l31.78,56.16c3.86,6.81,7.68,13.04,12.32,19.34,4.24,5.75,7.98,11.39,10.98,17.82,1.63,3.49.46,8.1-3.16,10.31l-27.04,16.47c-4.48,2.73-5.99,6.13-3.97,11.08,6.17,15.14,12.72,29.87,17.5,45.61,5.53,18.23,8.95,36.18,11.48,54.99l8.22,61.26c2.07,15.41,5.34,29.91,9.48,44.89,4.91,17.77-4.86,29.37-20.72,37.8-.38,5.41,4,12.25,10.1,13.45,8.52,1.67,16.37,3.39,24.33,6.45-6.81,14.93-8.5,30.14-6.21,46.12,2.54,17.76,5.57,34.78,9.44,52.21l.76-38.29,1.06-22.98c.48-10.39,2.62-20.76,8.88-29.66-3.9,15.86-5.23,30.56-3.85,46.33l3.16,36.02c2.77-8.8,2.04-17.14,3.42-25.82l6.21-38.92c1.52-9.53,8.95-24.78,19.95-21.97,9.48,2.42,6.76,8.28,13.94,10.58,5,1.6,10.71,4.53,12.16,9.77l14.24,51.62c1.1,4,2.98,6.44,8.26,6.83l-9.38,10.79,14.08-7.14c2.19,4.13,3.28,8.17,2.64,12.59l-6.79,46.77c-.37,2.57,1.02,5.33,3.47,6.16,6.06,2.05,9.26,7.03,8.07,12.96l-3.15,15.78ZM124.01,329.65c9.37-17.61,25.02-29.71,45.19-35.14,31.02-8.36,64-7.05,94.61,2.47,13.83,4.3,24.56,12.24,33.27,22.82,5.78,7.55,9.24,15.77,13.39,24.25-3.54-21.38-15.52-39.03-35.14-50.07-20.66-11.63-43.86-16.25-67.97-15.89-17.69.26-34.48,1.91-50.58,8.53-25.86,10.63-44.31,31.34-49.71,57.38-2.45,11.83-3.43,23.29-4.23,35.37l-4.12,62.36c-.39,5.88,3.98,11.24,8.8,13.9l.79-38.89c.5-24.94,3.58-64.33,15.68-87.08ZM126.5,422.2c.23-12.47,1.38-24.05,3.87-35.91,4.27-20.31,19.66-35.83,41.31-40.77,26.77-6.1,54.19-5.76,81.08.18,30.43,6.72,48.27,25.04,51.66,54.18,2.24,19.28,2.92,38.07,3.92,57.42.26,5.14.56,9.73,1.83,14.44l.91-21.55c.61-14.48.51-28.63,0-43.1-1.05-29.82-13.91-54.46-43.77-67.22-29.8-12.74-70.82-12.79-101.46-3.96-22.82,6.58-38.67,23-44.71,44.24-4.01,14.11-5.32,28.16-4.67,42.92l2.22,50.22-18.85-13.09.13,23.38.6,10.92c.57,10.36,3.27,19.76,9.78,28.29l4.77-10.65,2.76,15.73c1.04,5.9,2.09,12.36,7.72,16.72l.27-88.26.64-34.15ZM225.5,428.79c3.4-.22,6.38-3.36,6.41-6.66l.34-33.75,43.08-.21c-3.26-4.48-7.88-4.27-12.4-4.27l-94.77.11c-4.6,0-9.72-.63-12.82,4.01l45.78.24.08,27.21c0,2.57.57,5.42,1.05,8.33,1.14,7.01,16.62,5.42,23.24,4.99ZM210.5,501.63c19.45-.06,37.41.12,56.05-2.12l10.26-1.23c-9.36-.58-18.54-.24-28.42.42-38.19,1.15-71.79-.02-109.48-5.86-.6,18.17-1.62,35.73.54,53.35,1.21,9.86,11.56,16.03,21.09,16.96-7.2-6.09-11.28-13.66-10.71-22.62l1.79-28.05c.9-6.36-2.22-11.01-7.55-15.56,22.79,2.18,43.71,4.78,66.43,4.71ZM337.12,693.26c3.16-14.01,8.45-26.49,13.49-39.74,3.1-8.14-.33-17.73.81-26.19,2.31-17.08,14.4-44.85,12.53-53.38-3.35-15.29-9.65-29.2-14.79-43.85-3.51-10.02-7.25-19.18-12.11-29.27-3.27,8.86-5.35,16.51-9.09,24.41-2.46,5.19-5,10.56-4.31,16.59l7.47,65.1c.85,7.44-11.01,3.65-10.45,11.42l8,111.11c4.97-12.11,5.74-24.15,8.45-36.2ZM334.38,853.71c4.79-.88,11.68-2.32,12.57-6.76l13.44-89.56c4.06-27.04,8.91-52.98,14.95-79.64,2.11-9.32-1.67-18.1-10.25-23.73-9.02,12.45-13.01,44.37-14.91,59.72l-8.6,69.49c-2.95,23.85-5.65,46.67-7.21,70.48ZM403.58,840.71l35.59,3.06c-1.41-1.86-3.25-2.17-5.46-2.58l-38.27-7.06c-4.46-.82-9.03,1.6-10.84,5.25-1.61,3.24-2.09,7.16-1.71,10.29,2.34-3.17,2.78-7.99,5.63-9.52,4.66-2.49,9.95.12,15.05.56Z"/>
  </g>
</svg>