<?xml version="1.0" encoding="UTF-8"?>
<svg id="Layer_2" data-name="Layer 2" xmlns="http://www.w3.org/2000/svg" viewBox="0 0 896.87 970.71">
  <g id="Layer_3" data-name="Layer 3">
    <path d="M896.87,113.11v49.65c-125.38,63.11-248.74,135.97-364.73,224.5-59.89,45.71-127.29,106.68-176.81,168.62-23.66,29.59-43.54,61.75-60.82,97.67-15.18,31.55-35.85,56.51-59.88,77.29-43.68,37.78-97.18,58.58-147.51,78.54-17.36,6.89-67.03,25.66-77.29,42.01l11.73-8.11c15.79-10.92,32.85-16.38,50.11-23.52l81.67-33.76c30.4-12.57,58.1-31.01,84.59-53.68,22.49-19.25,41.73-42.64,56.85-71.2,14.77-27.91,30.37-53.44,49.23-77.26,23.88-30.15,48.66-57.63,75.58-83.64,31.44-30.4,63.57-58.52,97.24-85.08,65.72-51.84,133.64-98.57,203.71-140.79,58.28-35.12,116.79-68.85,176.35-98.25v98.08c-66.65,28.62-132.49,60.77-197.45,96.55-53.53,29.48-105.16,62.14-155.18,100.26l21.28,1.7c49.81-35.96,101.01-67.78,153.94-96.59,58.6-31.89,117.57-61.64,177.42-87.76v56.29l-107.98,52.52c-45.97,22.36-89.8,49.72-133,78.05,1.79,1.77,2.68,2.89,3.14,4.1.38.99-.24,5.18-2.65,5.03l-152.71-9.94c-.73,6.08-.71,10.26-.44,15.59,22.71,20.99,40.79,48.2,52.13,80.9,8.63,24.88,11.93,50.26,11.95,77.6l.21,313.05c2.33,1.14,4.45,1.41,7.49,1l-.47-322.2c-.09-59.67-25.63-118.47-64.13-151.66l.4-10,147.77,8.5c.16,5.83.13,9.9-.13,15.05-28.74,20.57-46.37,58.1-46.35,100.17l.17,328.5,12.44,1.83,1.02-21.75.67,22.02,48.78,6.96.88-7.72,1.12,8.16,30.91,4.87c1.05.17,1.72,2.72,1.41,3.49s-2.01,2.44-2.96,2.34c-12.8-1.26-27.48-3.97-40.79-4.05-5.94-.03-8.1,13.73-5.02,18.23l31.22,1.3,17.15.85c.33.02,2.11,1.78,1.78,1.84s-1.67.36-2.02.37l-14.75.37-37.48.36-93.63.36-461.3-.06-69.08-.6-30.29-.44c-.64,0-1.97-.28-2.3-.33s1.53-1.97,1.99-1.98l24.41-.25.13-70.75c.02-8.5-5.58-14.99-9.89-19.67-1.65-10.05-9.58-7.8-12.1-17.34-1.49-5.62.52-12.19.71-17.14l1.33-34.53.87,32.13,7.01-5.83.43-38.8c.02-1.5.4-4.83,1.47-4.74l3.48.3-3.54,2.06c-.57.33-.61,2.75-.6,3.63l.38,35.65,11.42-6.53.25-55.72c3.51-2.4,7.66-2.33,10.78-1.39-3.51.67-6.68,1.17-9.75,2.38-1.06,21.25,1.4,31.65.78,53.06l38.33-18.29.2-65.62c3.55-2.45,7.67-2.37,10.81-1.41-3.53.67-6.64,1.16-9.72,2.33-.48,9.42.29,18.05.49,26.95l.81,37.08,58.99-24.76.36-23.49.24-54.69c2.19-1.54,2.43-.9.91,1.65-.03,11.88.14,23.37.45,35.18l1.03,39.72c23.98-10.71,47-22.64,69.45-38.08l.69-43.55.39-48.57c.06-7.21,15.69-6.87,18.56-5.82l-14.5,2.56c-1.81.32-3.36,5.92-3.33,8.34l.4,26.09.57,17.44.64,40.74c20.93-14.58,37.85-31.98,54.21-52.71l.53-107.22c.08-16.22,16.38-11.32,24.59-10.98l-15.44,1.03c-4.51.3-7.41,3.89-7.37,9.53l.31,44.91,1.19,56.76c11-14.28,18.67-28.71,25.86-44.72l9.94-22.13.75-116.43.62-51.61c.12-9.56,7.62-15.34,14.43-15.17l24.86.62-11.87,1.27c-9.59,1.03-17.52-.64-22.23,5.81-2.75,3.76-3.74,9.46-3.64,14.92l.78,39.81.93,63.04,1.04,46.36,22.46-36.71c18.45-30.16,40.53-55.65,62.8-80.69l.55-81.66.59-90.37.62-46.71c.16-11.82,9.7-20.92,18.63-20.92h32.72c-4.92,3.49-9.81,1.92-14.86,2.35l-17.82,1.5c-7.48.63-15.72,7.79-15.67,18.3l.35,76.8,1.05,67.02,1.45,64.47c34.15-36.36,67.31-68.44,103.1-99.06,21.12-18.07,41.45-35.53,63.6-51.55l93.19-67.39.62-80.41.71-95.35.63-54.83c.18-15.49,9.65-25.82,21.82-25.49l35.42.96c-4.73.74-9.31,1.59-13.82,1.77l-20.61.82c-12.05.48-20.16,10.4-19.96,25.76l.84,62.17.84,65.54.91,57.44.52,26.72c.03,1.59,1.03,4.59,2.04,5.12s3.22.27,4.64-.67c49.36-32.49,98.52-63.75,149.72-91.66l74.95-40.87ZM553.71,961.92c3.04.94,5.03.87,7.65-.19l.02-317c0-34.55-6.04-66.58-20.25-95.68-11.17-22.87-25.14-42.41-42.48-57.96l-.5-14.37-10.05,4.37.17,12.87c37.61,31.38,65.28,84.63,65.3,143.32l.14,324.65ZM442.07,588.41c20.75-24.78,43.01-45.58,66.5-66.65-2.48-3.62-4.66-6.03-7.27-8-25.42,23.21-48.55,47.12-71.74,73.77l12.51.88ZM389.98,602.39c-.58-2.24-.23-6.14.75-7.58l115.97,4.89c.65,4.05.73,8.27-.41,11.64-21.18,15.32-36.15,42.77-36.2,74.87l-.32,227.23,44.34,5.76-.3-21.02,1.96-3.5.23,24.81,33.19,4.2.06-283.91c0-26.45-5.26-50.7-14.56-74.01l-26.82,24.66-.94,6.13-20.64-.95-102.14-4.96-.21,13.69c23.8,16.96,42.2,57.49,42.28,91.33l.63,265.54c1.7.8,4.49.86,5.68-.14l-.12-30.23-.22-232.53c-.02-16.18-3.57-31.1-8.36-45.33-12.3-36.52-33.01-47.43-33.84-50.61ZM421.24,961.14l-.24-257.78c-.04-39.56-14.71-78.84-41.84-98.1l-.2-12.06c-2.81,1.34-6.28,2.8-7.88,5.02-1.4,1.95-.67,7.99-.31,11.03,24.97,17.63,39.01,49.93,39.04,86.6l.22,265.5c3.79.76,7.33.85,11.21-.2ZM363.36,688.3l32.71-37.13-3.65-7.62c-12.82,16.41-25.38,29.62-39.09,44.16l10.02.59ZM356.8,761.84c-.08-27.32-13.3-49.68-30.1-62.74-.96-.75-.73-4.84.41-4.82l33.24.54c14.82.24,28.51.97,43.42.73-.89-1.74-2.29-2.36-3.96-2.4l-44.37-1.01-32.58-.34c-.78,1.37-1.18,6.66-.43,8.59.83,2.15,30.6,18.93,30.7,69l.05,26.31.06,152.67-.17,12.3c-.02,1.61,4.32,2.08,4.32.32l-.6-199.14ZM274.02,751.22c19.85-10.99,37.86-22.75,55.71-36.06-.91-1.68-2.36-4.4-3.23-3.92-.72.4-2.01,1.5-3.08,2.32-18.94,14.53-38.55,26.53-58.52,37.64,2.29.25,6.76,1.32,9.12.01ZM394.8,879.72c0-2.64.85-6.19,1.85-8.63l.2,32.26c1.67,1.59,5.2,1.85,6.82.51l-.31-194.02c-13.06,11.64-19.91,29.31-19.92,48.78l-.15,143.87,11.58,1.38-.08-24.14ZM315.74,853.68l.66,41.11,30.98,3.34.25-127.55c.02-10.28-.6-20.26-3.51-29.27l-32.31,17.69-1.09,7.61c-11.15,8.86-20.41,23.76-20.48,41.81l-.33,83.49,24.14,2.8c2.23-15.29-.05-28.33,1.69-41.04ZM249.63,765.46c-2.35-2.36-4.32-3.94-4.28-7.87l47.38.82c6.15.11,11.87,2.47,18.36-.88-5.93-.93-10.99-.21-16.66-1.14l-4.97-.82-46.37-1.04c-1.14.72-1.78,5.81-1.11,7.51.55,1.39,1.98,2.72,3.63,4.3,11.74,11.23,18.79,29.24,18.79,48.47v145.99c0,.93,1.37,3.04,1.95,2.64.43-.3,1.5-1.88,1.5-3.38v-143.24c0-20.52-5.62-38.65-18.24-51.35ZM179.37,796.74l60.85-29.07c-.37-1.11-1.25-3.09-1.81-3.87-.53-.74-2.25.68-3.27,1.18l-63.98,31.06,8.22.7ZM214.66,802.94c2.12.02,5.76.38,7.61.56,2.58,2.54-.22,6.52-2.55,8.47-8.39,7.01-12.83,20.18-12.81,33.06l.06,37.09,17.35,1.89.51-46.51,1.41,21.32.47,25.54,33.33,4.02v-78.2c0-8.46-2.62-16.97-5.62-23.64l-30.17,12.03-2.8,3.05c-18.53.69-30.75-1.94-49.35-1.38-2.47,3.82.15,8.03,2.87,10.78,7.21,7.29,12.63,19.12,12.67,31.98l.3,117.41c0,1.17.67,3.18,1.03,3.64s1.3-.05,1.5-.65c.13-.4.4-2.02.4-2.47l-.33-117.64c-.05-16.57-7.16-29.56-17.89-39.17,3.25-2.92,7.02-1.54,10.52-1.5l31.49.32ZM102.81,826.47l64.24-24.98c.64-.25,1.81-1.88,1.82-2.39s-.73-1.14-1.33-1.54l-52.4,22.41c-9.88,4.22-19.57,6.17-28.78,12.29,5.9-1.7,10.39-3.42,16.46-5.78ZM70.34,835.99c6.95-.98,12.7-.94,18.89-.21,6.75.79,14.12.48,21.67.88,1.59.08-.22,5.77-1.65,6.91-5.54,4.41-8.73,11.83-9.77,19.96,17.84,4.75,34.19,7.8,52.33,10.69l1.23-51.91c.96,8.25.54,16.65.82,25.36l.85,26.92,29.51,4.48.11-34.08c.04-11.2-3.68-23.36-10.54-30.01l-24.04,7.54-35.51,11.17c-2.84.89-5.2.77-8.2.63-12.02-.59-23.57-.63-35.75-.18-2.02.08-.73,7.15.76,8.39,8.31,6.91,11.18,18.78,11.28,30.96l.23,27.68c.14,17.65-.58,34.69.17,52.3.19,4.55-.92,9.32,1.67,13.43,1.06-23.7.74-46.03.61-69.4-.16-29.32,4.08-41.12-14.66-61.5ZM35.31,868.11c-7.82-15.21,24.91-22.17,29.37-27.54-4.43-.33-42.39,16.65-33.98,26.26.97,1.11,3.61,1.67,4.61,1.28ZM79.74,867.04c-5.17-4.01-8.45-6.41-12.03-10.42-2.32,5.65,10.71,13.29,12.03,10.42ZM29.88,931.73l-.29-36.84c-.07-9.04-4.71-16.23-10.32-20.18-9.47-6.65,30.74-1.57,29.91-4.07-3.13-.23-35.11-3.01-32.8,2.48,1.71,4.07,10.86,8.82,11.84,23.67,1.73,26.28-1.65,44.39.52,70.52,1.45-1.33,1.7-2.77,1.66-4.98l-.52-30.6ZM70.74,879.57c-7.17-2.97-12.73-5.09-19.15-6.63,6.27,5.31,13.17,6.44,19.15,6.63ZM184.53,887.83c-4.61-2.03-7.92-1.44-11.83-2.12l-73.85-12.85c8.57,6.14,17.87,5.08,26.85,7.86l43.72,6.94c5.3.84,10.11,1.62,15.11.17ZM62.45,965.56v-56.99c.77-8.59-3.59-15.89-8.71-20.4-.88-.84-1.08-5.21-2.17-5.49s-3.74-.79-5.08-.94c-2.56,3.8-4.84,10.45-4.85,15.91l-.05,69.17,20.87-1.25ZM65.85,904.69c-.04-11.46-10.76-21-11.19-20.43-1.73,2.3,9.08,8,9.39,21.76.46,20.43-1,39.61,1.02,60.74,1.85-20.41.86-40.65.78-62.08ZM260.56,897.4c-18.75-4.13-36.1-4.87-54.42-7.32,4.19,5.87,9.65,2.31,14.31,4.05,13.61.99,26.58,4.66,40.11,3.27ZM126.12,917.76c.02-7.67-3.61-14.17-8.3-17.17l-1.46-6.43-16.87-2.82v73.6s26.53-.31,26.53-.31l.1-46.86ZM75.88,964.95c.01,1.4,4.49.87,4.48-.46l-.19-71.18c-3.98,4.05-4.85,9.92-4.79,15.99l.5,55.64ZM138.85,964.73l45.45-1.12.03-62.01-35.91-3.69-4.74,5.63c-3.87,3.65-5.22,10.13-5.57,16.24l.74,44.94ZM345.13,907.27c.54.06,2.78-.13,2.5-.35s-1.36-1.65-1.69-1.68l-14.89-1.34-25.87-2.99c-5.4-.63-10.02-.97-15.84-.96,1.27,1.94,2.29,2.27,3.96,2.39l12.95.95,12.78,1.3,11.81,1.21,14.3,1.48ZM129.04,965.49c2-17.18.62-32.82,1.04-49.06-1.7-5.72-1.62-12.41-6.67-15.54,1.39,4.49,4.34,9.11,4.54,13.88.72,17.38-.96,33.56,1.09,50.72ZM220.98,922.01c1.14-11.22,9.94-16.07,8.16-17.09-.52-.3-1.92-1.14-1.52-.86,1.7,1.19-9.78,8.88-9.14,23.1.58,12.81-.65,24.51,1.04,37.41,2.64-14.54-.03-27.84,1.46-42.56ZM260,962.97l.02-54.45c-8.18-.86-16.57-1.97-24.97-2.2-3.94-.11-10.23,8.97-10.62,14.15-1.1,14.31-.76,28.71-.3,42.93l35.87-.44ZM300.59,931.97c.06-5.79-4.02-12.53-6.72-15.58-.48-.54-.52-3.86-.7-4.64s-1.69-.57-3.3-.59l.1,51.1,10.34-.08.29-30.21ZM210.7,962.05l.02-38.53c0-4.13-1.34-8.2-3.66-11.1l-.32,50.69c1.29.53,3.96.22,3.96-1.07ZM347.37,962.15l.14-46.03-27.35-2.65-5.14,6.44c-2.1,2.92-3.88,7.95-3.88,12.16l.07,30.17,36.16-.1ZM303.8,961.98c.61-11.33.62-21.81.33-33.51-.11-4.38-3.02-10.43-6.28-12.48,1.97,4.21,4.36,8.63,4.63,13.52l.49,9.08.84,23.39ZM399.36,926.43c-.83-1.1-1.74-3.68-2.51-5.98l-13.66-.95.45,42.66,18.94-.18c.3-14.61,3.83-26.27-3.22-35.55ZM481.42,946.35c.04-5.89-3.1-9.23-5.26-13.66l-2.2-4.5c-.53-1.08-4.12.53-4.12,1.75l-.02,31.83,11.5.53.1-15.95ZM549.18,963.46l.17-27.62-50.19-5.09-6.65,9.34c-1.24,7.37-1.02,14.33-.74,22.33l57.4,1.03ZM488.03,963.13l.49-20.71,1.78-6.48c-2.71,2.19-3.04,6.07-3.02,10.04-.02,5.89-3.09,11.26.75,17.15ZM649.21,951.61l-4.08-7.29-32.96-3.59-.07,23.29,38.63.84c.07-5.68.02-10.5-1.52-13.25Z"/>
  </g>
</svg>