<?xml version="1.0" encoding="UTF-8"?>
<svg id="Layer_2" data-name="Layer 2" xmlns="http://www.w3.org/2000/svg" viewBox="0 0 43.97 23.55">
  <defs>
    <style>
      .cls-1 {
        fill: #070707;
      }

      .cls-2 {
        fill: #3b82d8;
      }

      .cls-3 {
        fill: #328bc8;
      }

      .cls-4 {
        fill: #ddd;
      }

      .cls-5 {
        fill: #0b0b0b;
      }

      .cls-6 {
        fill: #3799db;
      }

      .cls-7 {
        fill: #3799dc;
      }

      .cls-8 {
        fill: #f3f3f3;
      }

      .cls-9 {
        fill: #0a0a0a;
      }

      .cls-10 {
        fill: #d3d3d3;
      }

      .cls-11 {
        fill: #dcdcdc;
      }

      .cls-12 {
        fill: #418fee;
      }

      .cls-13 {
        fill: #e8e8e8;
      }
    </style>
  </defs>
  <g id="Layer_1-2" data-name="Layer 1">
    <g>
      <path class="cls-1" d="M24.48,3.38c.08.31-.36.43-.63.39l-3.48-1.87c-1.69-.81-3.57-.82-5.36-.43-.13,0-.24-.04-.32-.12l-.23.21c-.61.07-1.22.16-1.82.28l7.01,4.05,1.7-.46.56.03c-.01-.07-.01-.17.03-.19.94-.3,2.06-.58,3.02-.81.48-.17.9-.23,1.4-.2l7.32-1.94c1.56-.41,3.07-.25,4.54.38.67.29,1.25.79,1.94,1.02.85.29,1.7.42,2.45.94.65.45,1.12,1,1.35,1.73v.84c-.6,1.73-2.37,2.74-4.13,3.21l-10.8,2.9-2.91,4.84c-1.02,1.69-2.49,2.97-4.32,3.73l-4.07,1.6c-.4.16-.82.02-1.06-.28s-.28-.72-.06-1.1l3.79-6.57c-3.9.76-8.21,1.47-11.93,0l-.98,1.66c-.4.68-1.01,1.19-1.78,1.39l-1.22.33c-.36.1-.71-.02-.92-.24-.26-.26-.34-.63-.21-.99l1.71-4.62L0,6.72v-.6c.21-.34.47-.55.89-.66l2.84-.75c.6-.12,1.17.03,1.61.45l3.98,3.67,8.89-2.39-6.9-3.97c-.4-.24-.54-.64-.45-1.04.1-.42.44-.65.89-.72L15.95.09c1.93-.28,3.84.08,5.54,1.02l2.81,1.57c.25.14.19.48.17.69Z"/>
      <path class="cls-13" d="M24.48,3.38c.44.14,1.51.97,1.89.87l-4.46,1.19-.57.03c-2.28-1.29-4.53-2.62-6.76-3.97l.12-.17,1.03-.18c1.77-.31,3.55-.08,5.13.78l2.99,1.64c.23.13.46-.11.63-.2Z"/>
      <path class="cls-8" d="M42.86,6.46c.01.14,0,.19-.08.28-.04.05-1.18.38-1.22.14-.17-.27-.4-.42-.77-.32l-9.24,2.47c-.11-.3-.27-.47-.51-.48-.25-.01-.4.12-.54.35l-5.34,8.88c-1.19,1.98-3.04,3.03-5.14,3.68l-.12-.14,6.15-10.72c-.55.09-1.09.23-1.62.41l-.29-.09c-.08-.22-.27-.39-.49-.4-.57-.02-.62.79-.89.86l-10.58,2.82c-.62.02-1.24-.07-1.84-.27-.36-.05-.57-.19-.64-.43.14-.49.68-.92.19-1.57-.53-.72-1.43-.14-2.5.05-.23.11-.41.09-.54-.06-1.51-1.84-3.01-3.7-4.5-5.57l.07-.19c.48-.14.96-.29,1.47-.41.29-.07.55,0,.77.2l4.18,3.86c.13.12.32.15.51.09l24.56-6.57c1.38-.37,2.75-.24,4.03.42l-2.32.66c-.29.08-.37.4-.3.64.08.26.35.4.65.32l3.33-.87c.23.08.39.25.61.29,1.06.18,2.57.64,2.94,1.7Z"/>
      <path class="cls-4" d="M20.02,21.45c-.72.33-1.43.64-2.33.9l6.44-11.16.02-.28c.71-.21,1.41-.44,2.25-.58l-6.38,11.13Z"/>
      <path class="cls-10" d="M14.69,1.34c.01.09.08.17.2.22l6.46,3.72c.18.15.36.18.55.17l-2.27.62L12.13,1.73c.93-.2,1.75-.25,2.56-.39Z"/>
      <path class="cls-4" d="M2.42,6.15l4.33,5.4c.18.23.39.42.64.42-.19.03-.39.23-.43.4.06.48-.42.79-.76.45L1.13,6.5c.45-.2.88-.23,1.29-.35Z"/>
      <path class="cls-3" d="M42.58,7.58c-.35.85-2.04,1.59-2.96,1.84l-9.76,2.61c.18-.38.36-.76.65-1.03l.18-.21c3.49-.9,6.97-1.83,10.44-2.8l1.11-.45.35.04Z"/>
      <path class="cls-7" d="M42.58,7.58c-.79.34-1.56.66-2.45.9l-9.63,2.53c.09-.23.19-.6.45-.74l10.15-2.72c.35-.09.44-.36.46-.66l1.1-.28c.1-.03.17-.07.2-.14.14.39.06.84-.28,1.12Z"/>
      <path class="cls-3" d="M16.92,14.02c1.45-.22,2.92-.46,4.41-.72l.31.05c-.16.36-.29.68-.54.99-2.73.59-6,1.24-8.84.95l4.67-1.27Z"/>
      <path class="cls-12" d="M5.42,17.6l-.13-.13c.55-1.48,1.1-2.97,1.65-4.45l.2-.04c.53.18,1.09-.27,1.77-.26l-2.31,4c-.27.47-.69.77-1.17.88Z"/>
      <path class="cls-2" d="M7.13,12.98l-1.71,4.62c-.3.07-.59.24-.99.25l1.7-4.59c.06-.16.06-.31.08-.45.34-.02.68-.09.76-.45-.03.22.04.43.17.61Z"/>
      <path class="cls-11" d="M12.18,14.2l-2.41.65c-.27.07-.53-.11-.76-.21.23-.44.42-.81.69-1.13.73.38,1.75.46,2.48.7Z"/>
      <path class="cls-6" d="M21.63,13.35c-1.43.31-2.86.58-4.36.75-.14.02-.3,0-.35-.08l5.13-1.38c0,.33-.32.49-.41.71Z"/>
      <path class="cls-5" d="M16.14,9.61c.31-.11.57.07.65.29.1.28-.04.57-.28.66-.26.09-.53,0-.64-.24s-.05-.59.28-.71Z"/>
      <path class="cls-5" d="M25.19,7.19c.27-.09.55.03.64.28s.01.57-.29.67c-.23.08-.54,0-.66-.31-.07-.21,0-.54.31-.64Z"/>
      <path class="cls-5" d="M19.07,8.84c.27-.15.59-.05.71.19s.07.55-.21.7c-.2.1-.49.07-.65-.15-.15-.2-.15-.57.15-.74Z"/>
      <path class="cls-9" d="M28.09,6.44c.27-.17.57-.08.73.17.13.2.07.56-.23.71-.17.09-.43.08-.63-.17-.13-.16-.16-.52.13-.71Z"/>
      <path class="cls-9" d="M22.24,7.97c.3-.07.55.15.59.36.07.31-.1.58-.38.63-.26.05-.51-.07-.59-.35-.08-.23.04-.56.38-.64Z"/>
      <path class="cls-9" d="M31.29,5.55c.3-.06.54.15.59.37.06.3-.09.55-.34.62-.28.08-.54-.07-.62-.3-.1-.29.05-.61.37-.68Z"/>
    </g>
  </g>
</svg>