<?xml version="1.0" encoding="utf-8"?>
<!-- Generator: Adobe Illustrator 30.1.0, SVG Export Plug-In . SVG Version: 9.03 Build 0)  -->
<svg version="1.1" id="Isolation_Mode" xmlns="http://www.w3.org/2000/svg" xmlns:xlink="http://www.w3.org/1999/xlink" x="0px"
	 y="0px" viewBox="0 0 384 384" style="enable-background:new 0 0 384 384;" xml:space="preserve">
<style type="text/css">
	.st0{fill:#FFFFFF;}
</style>
<g>
	<polygon class="st0" points="127.3,221.9 166.1,368.1 37,222.1 	"/>
	<polygon class="st0" points="339.5,222.1 210.4,368.1 249.2,222 	"/>
	<polygon class="st0" points="227.5,222 188.3,368.2 149.1,222.1 	"/>
	<path class="st0" d="M128.1,201.1L37,201l59.3-59.3c2.6-2.6,5.7-3.6,9.4-3.5l58.3,0.1L128.1,201.1z"/>
	<path class="st0" d="M280,141.6l59.5,59.4l-91,0.1l-36-62.9l59.7-0.1C275.2,138.4,277.6,139.3,280,141.6z"/>
	<polygon class="st0" points="224.2,201 152.2,201.1 188.3,138.3 	"/>
	<path class="st0" d="M292.9,92.2c-3.1,5.4-9.1,7-14.2,4.4c-4.8-2.5-7.4-9-4.4-14.2l19.7-34c2.9-5.1,9.5-6.3,14.2-3.7
		c5,2.8,6.8,9.2,3.8,14.5L292.9,92.2z"/>
	<path class="st0" d="M102.1,82.2c3.1,5.4,0.7,11.5-3.8,14.2c-5,2.9-11.4,1.3-14.5-4L64.5,59.2C61.6,54.1,63.2,48,67.9,45
		c4.7-3,11.6-1.9,14.6,3.4L102.1,82.2z"/>
	<path class="st0" d="M198.7,60.5c0,6.1-5,10.3-10.2,10.4c-5.4,0.1-10.7-4.2-10.7-10.1l0-39.1c0-5.9,4.8-10.2,10.2-10.4
		c5.6-0.2,10.8,4.3,10.8,10.4L198.7,60.5z"/>
</g>
</svg>
