<?xml version="1.0" encoding="utf-8"?>
<!-- Generator: Adobe Illustrator 30.1.0, SVG Export Plug-In . SVG Version: 9.03 Build 0)  -->
<svg version="1.1" id="Isolation_Mode" xmlns="http://www.w3.org/2000/svg" xmlns:xlink="http://www.w3.org/1999/xlink" x="0px"
	 y="0px" viewBox="0 0 768 768" style="enable-background:new 0 0 768 768;" xml:space="preserve">
<style type="text/css">
	.st0{fill:#FFFFFF;}
</style>
<g>
	<path class="st0" d="M655.1,650l0.3-383.3c0-19.2,20.6-31.9,37.7-27.2c13.6,3.8,22,16.1,22,30.3l-0.6,383.7
		c-0.1,35.1-30.4,63.3-65.2,63.2l-536.2-0.4c-35,0-63.2-30.7-63.2-65.1l0.4-535.4c0-36.2,31.9-63,66.7-63l383.7,0.2
		c16.6,0,28,15.6,28.2,30.3c0.2,15.2-12.8,29.3-29.6,29.3l-382,0.1c-4.8,0-7.4,2.4-7.4,7.4l0,529.2c0,4.9,2.6,7.5,7.5,7.5l531.6,0
		C652.4,657,655.1,654.4,655.1,650z"/>
	<path class="st0" d="M390.3,556.3c-1.4,4.2-4,6.4-7.1,6.5c-2.9,0.1-6.4-1.2-7.6-4.8L352.9,491c-12.5-37.1-40.7-64.6-77.9-76.9
		L210,392.4c-3.5-1.2-5.5-3.9-5.6-6.9c-0.1-2.9,1.2-6.3,4.7-7.5l67.3-22.7c37.1-12.5,64.6-40.7,77-77.8l21.6-64.8
		c1.2-3.5,3.8-5.5,6.9-5.7c3.5-0.2,6.6,1.7,8,5.7L412,279c12.6,37.4,41.2,64.8,78.6,77.2l64.2,21.3c3.6,1.2,5.6,3.9,5.8,6.8
		c0.3,3.6-1.8,6.8-5.8,8.1L489.9,414c-36.7,12.2-64.9,39.1-77.3,75.9L390.3,556.3z"/>
	<path class="st0" d="M656.5,178.7c-1.3,3.7-4,5.2-6.4,5.5c-3.3,0.4-6.7-1.1-7.9-4.7l-8.5-24.7c-3.1-9-9.7-16.7-18.7-19.9l-26.5-9.3
		c-3.1-1.1-4.8-3.9-4.9-6.6c-0.2-3,1.4-6.2,5-7.5l23.7-8c9.4-3.2,17.6-9.9,20.9-19.4l9-25.8c1.1-3.2,4.1-5.2,7-5.3
		c2.8-0.1,6,1.6,7.2,4.9l8.4,24.5c3.3,9.5,10.4,17.1,19.9,20.4l24.4,8.4c3.3,1.1,5.5,3.6,5.9,6.5c0.4,3.3-1.7,6.8-5.3,8.1l-23.5,8.1
		c-9.8,3.4-17.8,10.5-21.2,20.4L656.5,178.7z"/>
</g>
</svg>
