<?xml version="1.0" encoding="utf-8"?>
<!-- Generator: Adobe Illustrator 30.1.0, SVG Export Plug-In . SVG Version: 9.03 Build 0)  -->
<svg version="1.1" id="Layer_1" xmlns="http://www.w3.org/2000/svg" xmlns:xlink="http://www.w3.org/1999/xlink" x="0px" y="0px"
	 viewBox="0 0 205.9 138.7" style="enable-background:new 0 0 205.9 138.7;" xml:space="preserve">
<style type="text/css">
	.st0{fill:#92A058;}
	.st1{clip-path:url(#SVGID_00000055694599525545147430000013603877397614146193_);}
	.st2{fill:#95AA3F;}
	.st3{clip-path:url(#SVGID_00000055694599525545147430000013603877397614146193_);fill:#F4D30F;}
</style>
<g>
	<g>
		<g>
			<g>
				<g>
					<g>
						<g>
							<g>
								<g>
									<g>
										<path class="st0" d="M64,37.8c-3.4,0-5.9,0.7-7.7,2.1c-1.8,1.4-2.6,3.3-2.6,5.9c0,2.3,0.9,4.1,2.6,5.5c1.7,1.3,4,2,6.9,2
											c3.8,0,6.6-1.4,8.6-4.3c0,1.3,0.4,2.3,1.1,3c0.7,0.7,1.9,1,3.5,1h2.3v-3.8h-1.3c-1.1,0-1.7-0.6-1.7-1.9V36.3
											c0-3-0.9-5.3-2.7-6.9c-1.8-1.6-4.3-2.4-7.6-2.4c-3.1,0-5.6,0.7-7.5,2.1c-1.9,1.4-3,3.4-3.3,5.9h4.1c0.3-1.3,1-2.4,2.1-3.1
											c1.2-0.8,2.6-1.2,4.4-1.2c2,0,3.6,0.5,4.7,1.4c1.1,0.9,1.7,2.2,1.7,3.9v1.8H64z M71.5,42.5c0,2.2-0.7,3.9-2.2,5.3
											c-1.4,1.3-3.4,2-5.9,2c-1.7,0-3.1-0.4-4.1-1.2c-1-0.8-1.5-1.8-1.5-3.1c0-2.8,1.9-4.3,5.7-4.3h7.9V42.5z"/>
										<path class="st0" d="M83.8,51.4c1,1.1,2.7,1.6,5.2,1.6h4.7v-3.8h-4.5c-1,0-1.8-0.2-2.2-0.7c-0.4-0.5-0.6-1.2-0.6-2.3V31.1
											h6.5v-3.8h-6.5v-7.2h-4.1v7.2h-4.6v3.8h4.6v15.2C82.2,48.6,82.8,50.3,83.8,51.4z"/>
										<path class="st0" d="M95,27.4v14.3c0,4,0.9,7,2.8,8.8c1.8,1.9,4.3,2.8,7.3,2.8c3.5,0,6.3-1.2,8.2-3.7l0.6,3.4h3.6V27.4
											h-4.1v12.8c0,2.9-0.7,5.2-2,6.8c-1.3,1.7-3.2,2.5-5.5,2.5c-2.1,0-3.8-0.7-5-2.1c-1.2-1.4-1.7-3.4-1.7-6.1v-14H95z"/>
										<path class="st0" d="M125.9,31.2l-0.6-3.9h-3.6V53h4.1V39.9c0-2.4,0.5-4.4,1.6-6.1c0,0,0,0,0-0.1
											c3.3-3.4,8.3-4.2,10.6-9.7C132.4,27.4,129.2,25.3,125.9,31.2z"/>
										<path class="st0" d="M157,41c0.1-0.8,0.1-1.4,0.1-1.8c-0.1-2.5-0.6-4.6-1.7-6.5c-1-1.8-2.5-3.2-4.3-4.2
											c-1.8-1-3.9-1.5-6.2-1.5c-2.4,0-4.5,0.5-6.3,1.6c-1.8,1.1-3.3,2.6-4.3,4.6c-1,2-1.5,4.3-1.5,6.9c0,2.6,0.5,4.9,1.6,6.9
											c1.1,2,2.5,3.5,4.5,4.6c1.9,1.1,4.1,1.6,6.7,1.6c2.9,0,5.4-0.8,7.4-2.5c2-1.7,3.3-3.8,3.8-6.4h-4.2
											c-0.4,1.6-1.3,2.9-2.6,3.8c-1.3,0.9-2.9,1.4-4.7,1.4c-2.4,0-4.3-0.8-5.8-2.3c-1.5-1.5-2.2-3.5-2.3-6V41H157z M139.8,32.6
											c1.5-1.3,3.2-1.9,5.1-1.9c2.2,0,4,0.6,5.4,1.8c1.4,1.2,2.2,2.9,2.4,5.1h-15.5C137.5,35.5,138.4,33.9,139.8,32.6z"/>
										<path class="st0" d="M165.8,31.6c1.1-0.7,2.5-1.1,4.2-1.1c1.7,0,3.1,0.4,4.3,1.3c1.1,0.9,1.8,2,2,3.3h4.1
											c-0.2-2.6-1.2-4.6-3.1-6c-1.9-1.4-4.3-2.1-7.4-2.1c-1.8,0-3.5,0.3-5,1c-1.5,0.7-2.6,1.6-3.5,2.7c-0.9,1.2-1.3,2.5-1.3,4
											c0,1.7,0.4,3,1.3,3.9c0.9,1,2,1.7,3.4,2.1c1.4,0.4,3.2,0.8,5.4,1.1c1.6,0.2,2.8,0.4,3.6,0.6c0.9,0.2,1.5,0.6,2.1,1.1
											c0.5,0.5,0.8,1.3,0.8,2.3c0,1.2-0.6,2.1-1.7,2.8c-1.1,0.7-2.6,1.1-4.4,1.1c-2,0-3.7-0.5-5-1.5c-1.3-1-2-2.2-2-3.8h-4.1
											c0,2.7,1.1,4.9,3.1,6.4c2,1.5,4.7,2.3,8.1,2.3c1.9,0,3.6-0.3,5.1-1c1.5-0.6,2.8-1.5,3.7-2.7c0.9-1.2,1.4-2.5,1.4-4.1
											c0-1.8-0.4-3.2-1.3-4.2c-0.9-1-2.1-1.8-3.5-2.3c-1.5-0.5-3.3-0.8-5.6-1.1c-1.6-0.2-2.8-0.4-3.6-0.6
											c-0.8-0.2-1.4-0.5-1.9-1c-0.5-0.5-0.8-1.1-0.8-2C164.2,33.3,164.7,32.3,165.8,31.6z"/>
										<path class="st0" d="M44.7,32.9c1.2,1.4,1.8,3.4,1.8,6.1c0,0-0.4,11.6,0.8,14c0.1,0.3,0.4,0.3,0.5,0.3
											c2.8,0.2,5.4,0.9,5.5,0.9c-1.1-0.6-2.6-2.2-2.6-4.9l0-10.5c0-4-0.9-7-2.8-8.8c-1.9-1.9-4.4-2.8-7.5-2.8
											c-3.7,0-6.5,1.3-8.4,3.8l-0.6-3.5h-3.6V53h4.1V40.2c0-2.9,0.7-5.2,2.1-6.8c1.4-1.7,3.3-2.5,5.7-2.5
											C41.8,30.8,43.5,31.5,44.7,32.9z"/>
										<path class="st0" d="M178.1,24.1C178.1,24,178.1,24,178.1,24.1C178.1,24,178.1,24.1,178.1,24.1
											C178.1,24.1,178.1,24.1,178.1,24.1C178.1,24.1,178.1,24.1,178.1,24.1z"/>
										<path class="st0" d="M71.4,21.7c-0.1,0-0.1,0-0.1,0C71.3,21.7,71.3,21.7,71.4,21.7C71.4,21.7,71.4,21.7,71.4,21.7z"/>
										<path class="st0" d="M73.1,19.4C73.1,19.4,73.1,19.4,73.1,19.4C73.1,19.4,73.1,19.5,73.1,19.4
											C73.1,19.4,73.1,19.4,73.1,19.4C73.1,19.4,73.1,19.4,73.1,19.4z"/>
										<path class="st0" d="M161.3,62.6C161.2,62.5,161.2,62.6,161.3,62.6L161.3,62.6z"/>
										<path class="st0" d="M171.3,84.1C171.3,84,171.3,84.1,171.3,84.1C171.3,84.1,171.3,84.1,171.3,84.1
											C171.3,84.1,171.3,84.1,171.3,84.1z"/>
										<path class="st0" d="M164.9,88.9C164.9,88.9,164.9,88.9,164.9,88.9C164.8,88.9,164.8,88.9,164.9,88.9
											C164.9,88.9,164.9,88.9,164.9,88.9z"/>
										<path class="st0" d="M164.2,87.3C164.2,87.2,164.2,87.1,164.2,87.3C164.2,87.2,164.2,87.2,164.2,87.3
											C164.2,87.2,164.2,87.2,164.2,87.3z"/>
										<path class="st0" d="M158.8,33.4c-1.6-3.4,0.5-5.1,0.5-5.1c2.3-2.6,4-3.9,3.9-8.9c-3,4.2-5.9,3.4-6.5,8.9
											C156.5,32,158.7,33.3,158.8,33.4z"/>
										<g>
											<path class="st0" d="M126.8,78.3c-0.6-0.6-3.2-0.5-7.6,0.4l-2.1,0.4l-1.3-0.8c-1.7-1.1-3.4-1.9-6.8-3.3
												c-6.9-2.8-8.2-3.4-9.3-4.5c-0.9-1-1-2.1-0.3-3.4c0.8-1.5,3-3.7,5.2-5.1c6.2-3.9,13.3-5.3,16.9-3.3
												c4.2,2.3,1.6,8.3-3.3,11.8c-0.8,0.6-1,0.8-1,1.1c0,0.6,0.8,1.3,1.6,1.4c1,0.1,3.8-2.9,5.1-5.5c1.8-3.5,1.1-5.9,0.8-6.6
												c-0.7-1.9-2.5-3.4-4.8-4c-1.7-0.5-4.8-0.6-6.9-0.2c-6.6,1.2-13.4,5-15.8,8.9c-1.5,2.5-0.8,4.6,1.4,6.4
												c1.6,1.3,3.3,2.2,8,4c5.5,2.1,8.5,3.6,7.9,3.8c-0.2,0-1.1,0.3-2,0.6c-0.9,0.3-2.8,0.9-4,1.4c-6.2,2.5-8.5,4.7-6.9,6.8
												c0.5,0.7,1.2,1.1,2.3,1.5c1.3,0.4,5,0.6,6.9,0.3c4.3-0.7,7.9-2.4,9-4.4c0.8-1.4,0.4-3.3-0.9-4.8
												c-0.4-0.4-0.6-0.8-0.6-0.8c0.2-0.1,2.6-0.6,4.2-0.9c1.6-0.3,2.8-0.4,3.6-0.3c0.2,0,0.5-0.1,0.6-0.2
												C127,78.6,127,78.5,126.8,78.3z M115.9,86.3c-1.5,1-4.6,2-7.1,2.3c-1.4,0.2-4.2,0.1-4.8-0.2c-0.3-0.1-0.5-0.3-0.6-0.4
												c-0.2-0.2-0.2-0.3,0.1-0.8c0.6-1.1,2-2.2,4.7-3.5c2.1-1,7.7-3,8.4-3c0.4,0,1.4,1.4,1.5,2.1
												C118.1,84,117.4,85.2,115.9,86.3z"/>
											<path class="st0" d="M133.1,65.9c1,0.6,1.6,0.4,2.4-0.8c0.9-1.3,0.8-2.1-0.2-2.8c-0.6-0.4-1.4-0.2-2.2,0.5
												C132,64,132,65.2,133.1,65.9z"/>
											<path class="st0" d="M186,74.4c-0.4-0.3-0.5-0.2-1.2,0.6c-2.1,2.2-4.1,3.3-6.3,3.3c-0.9,0-1.4-0.1-2.1-0.5
												c-1.3-0.7-1.6-1.8-1.6-4.4c0-2.3-0.2-2.8-1.5-3.1c-0.9-0.2-2.7,0.7-5.7,3.2l-2.3,1.9l1.1-1.8c1.2-1.9,1.2-2.2,0.5-3
												c-0.4-0.4-0.8-0.6-1.6-0.6c-0.4,0-1.3,1.5-2,3.2c-0.2,0.2-0.5,0.5-0.8,0.8c-0.7,0.7-2.5,1.8-4.2,2.5
												c-1.1,0.5-5.1,1.6-5.2,1.4c0,0,0.3-1,0.6-2.1c0.9-2.7,1-4.2,0.4-4.8c-1.1-1.2-2-0.8-4.9,2c-2.1,2-3.8,3.4-4.2,3.4
												c-0.3,0,0-1.3,0.8-2.5c0.3-0.6,1.1-1.5,1.7-2.1c1.1-1,1.2-1,1.8-0.9c1.1,0.3,1.5-0.5,0.7-1.4c-1.2-1.4-3.9-0.3-5.7,2.3
												c-0.2,0.1-0.4,0.3-0.6,0.5c-5.2,4.3-12.6,6.4-14.5,4.1c-0.8-1,0.1-3.8,1.8-5.6c0.8-0.9,0.9-1.6,0.2-2.4
												c-0.4-0.5-0.7-0.6-1.3-0.7c-0.7,0-0.9,0.1-1.5,1c-1.2,1.6-1.9,3.4-1.9,5.1c0,0.8,0.1,1.8,0.3,2.2
												c1.7,3.9,6.2,3.4,7.4,3.2c2.5-0.4,6-2.1,8.8-4c-0.2,1.5,0.4,2.7,1.6,3c1.2,0.3,2.7-0.5,5.5-3.3l1.2-1.1l-0.4,1.3
												c-0.2,0.7-0.6,1.8-0.9,2.5l-0.4,1.2l-1.7,0.5c-0.9,0.3-2.9,1-4.3,1.6c-11.1,4.6-18.6,12-17.5,17.5c0.2,0.9,1.6,5,8.3,2.7
												c5.9-1.9,12-9.3,16.5-18.5c0.6-1.3,1.2-2.5,1.3-2.6c0.1-0.1,1.4-0.6,3-0.9c1.5-0.4,3.5-1,4.4-1.4c1-0.4,1.9-0.9,2.6-1.3
												c-0.2,0.7-0.3,1.3-0.4,1.8c-0.1,0.8,0,1,0.4,1.3c0.2,0.2,0.6,0.4,0.8,0.4c0.2,0,1.7-1.1,3.4-2.6c2.6-2.2,5.5-4.3,5.8-4.3
												c0,0,0.1,0.5,0.1,1.1c0.1,2.3,1.3,4.4,3.3,5.5c2.2,1.2,4.6,0.6,5.7,0.2c1.9-0.7,3.3-1.8,4.3-3.1
												C186.5,75.4,186.6,74.8,186,74.4z M144.9,87.8c-4.2,6.8-9,11.1-13.1,12.1c-5.7,1.3-3.9-4.3-3.3-5.4
												c1.7-3.6,6.4-7.7,12-10.6c2.3-1.2,8-3.5,8.2-3.3C148.8,80.8,146.5,85.2,144.9,87.8z"/>
										</g>
									</g>
								</g>
							</g>
						</g>
					</g>
				</g>
			</g>
			<path class="st0" d="M34.4,72.2C34.4,72.2,34.4,72.2,34.4,72.2C34.4,72.2,34.4,72.2,34.4,72.2C34.4,72.3,34.4,72.2,34.4,72.2z"/>
			<path class="st0" d="M32.6,78.3C32.6,78.3,32.6,78.3,32.6,78.3C32.6,78.3,32.6,78.3,32.6,78.3C32.6,78.3,32.6,78.3,32.6,78.3z"/>
			<path class="st0" d="M28.7,78.5C28.7,78.5,28.7,78.5,28.7,78.5C28.8,78.5,28.8,78.5,28.7,78.5C28.7,78.4,28.7,78.4,28.7,78.5z"/>
			<path class="st0" d="M59.6,83.5C59.6,83.5,59.6,83.5,59.6,83.5C59.6,83.5,59.6,83.5,59.6,83.5C59.6,83.5,59.6,83.5,59.6,83.5z"/>
			<path class="st0" d="M53.5,80.7C53.5,80.7,53.5,80.7,53.5,80.7C53.5,80.7,53.5,80.6,53.5,80.7z"/>
		</g>
		<g>
			<g>
				<defs>
					<rect id="SVGID_1_" x="27.8" y="59.4" width="67.1" height="29.5"/>
				</defs>
				<clipPath id="SVGID_00000173152483614307629730000008991558023952738236_">
					<use xlink:href="#SVGID_1_"  style="overflow:visible;"/>
				</clipPath>
				<g style="clip-path:url(#SVGID_00000173152483614307629730000008991558023952738236_);">
					<path class="st2" d="M17.4,92.2c0,0-0.1-0.1-0.2-0.1c-0.1-0.1-0.2-0.1-0.2-0.2c-0.2-0.1-0.4-0.3-0.6-0.4
						c-0.2-0.1-0.4-0.3-0.6-0.4c-0.4-0.3-0.8-0.5-1.2-0.8c-0.2-0.1-0.4-0.3-0.5-0.4c-0.8-0.6-1.5-1.3-2.2-2.1
						c-0.2-0.2-0.3-0.4-0.5-0.6c-0.6-0.8-1.1-1.6-1.5-2.5c-0.3-0.8-0.6-1.7-0.7-2.6c-0.1-0.7-0.1-1.4,0-2.1c0.1-0.7,0.3-1.3,0.6-2
						c0.2-0.5,0.5-1,0.7-1.5c0.1-0.3,0.3-0.5,0.4-0.8c0.1-0.3,0.3-0.5,0.4-0.8c0.2-0.3,0.3-0.7,0.4-1.1c0,0.1-0.1,0.1-0.1,0.2
						c0.2-0.4,0.3-0.7,0.3-1.1c0.1-0.4,0.1-0.8,0.2-1.2c0-0.7-0.1-1.5-0.2-2.2c-0.4-1.4-1-2.6-1.5-3.9c-0.2-0.7-0.4-1.4-0.5-2.1
						c-0.1-0.9-0.1-1.7,0-2.6c0.1-0.4,0.2-0.9,0.3-1.3c0.1-0.5,0.3-0.9,0.4-1.3c0.1-0.2,0.2-0.4,0.3-0.6c0.3-0.5,0.6-1,0.9-1.5
						c0-0.1,0.1-0.1,0.1-0.2c0.5-0.6,1-1.2,1.7-1.7c0.2-0.1,0.4-0.3,0.6-0.4c0.1-0.1,0.2-0.1,0.3-0.2c0.1-0.1,0.2-0.1,0.3-0.2
						c0.1-0.1,0.2-0.1,0.3-0.2c0.2-0.1,0.3-0.3,0.2-0.5c-0.1-0.2-0.3-0.3-0.5-0.2c-0.1,0-0.3,0.1-0.4,0.1c0,0,0.1,0,0.1,0
						c-0.1,0-0.1,0-0.2,0c0,0,0,0,0,0c0,0,0,0,0,0c0,0,0,0-0.1,0c-1.5,0.6-2.9,1.6-3.9,2.8c-0.3,0.4-0.6,0.8-0.9,1.2
						c0-0.1,0.1-0.1,0.1-0.2c-0.1,0.1-0.2,0.3-0.3,0.4c-0.1,0.1-0.1,0.2-0.2,0.3c-0.1,0.2-0.2,0.4-0.3,0.6c-0.2,0.5-0.4,1-0.6,1.5
						c-0.2,1-0.4,2-0.4,3c0,0.5,0.1,1.1,0.1,1.6C8,64.5,8.1,65,8.2,65.4c0.3,0.9,0.7,1.8,1,2.7c0.4,1,0.8,1.9,0.9,3
						c0.1,0.5,0.1,1,0,1.6c-0.1,0.6-0.3,1.1-0.5,1.6c-0.1,0.2-0.2,0.5-0.3,0.7c0-0.1,0.1-0.1,0.1-0.2c-0.3,0.7-0.7,1.3-1,2
						c-0.3,0.7-0.6,1.4-0.8,2.2c-0.2,0.7-0.3,1.5-0.3,2.2c0,0.7,0.1,1.5,0.2,2.2c0.1,0.7,0.4,1.5,0.7,2.2c0.3,0.6,0.6,1.2,0.9,1.8
						c0.8,1.2,1.8,2.3,2.9,3.2c1.1,0.9,2.3,1.8,3.6,2.4c0.2,0.1,0.4,0.2,0.5,0.2c0.1,0,0.2,0.1,0.3,0.1c0.1,0,0.1,0.1,0.2,0.1
						c0.1,0,0.3,0.1,0.4,0c0.2,0,0.3-0.2,0.4-0.3C17.8,92.8,17.7,92.4,17.4,92.2z"/>
					<path class="st2" d="M72.2,83.5C72.2,83.5,72.2,83.5,72.2,83.5c0,0.1,0,0.1-0.1,0.1C72.1,83.5,72.2,83.5,72.2,83.5z"/>
					<path class="st2" d="M58.8,84c0,0.1,0,0.1,0,0.2C58.7,84.1,58.7,84,58.8,84z"/>
					<path class="st2" d="M58.8,84C58.8,84,58.8,84,58.8,84C58.8,83.9,58.8,83.9,58.8,84C58.8,83.9,58.8,83.9,58.8,84z"/>
					<path class="st2" d="M66.1,84.6c0.1-0.1,0.1-0.3,0.2-0.4c0.1-0.2,0.1-0.4,0.1-0.7c0-0.5-0.1-0.9-0.4-1.3
						c-0.1-0.2-0.2-0.4-0.4-0.6c-0.1-0.1-0.2-0.2-0.3-0.3c-0.2-0.1-0.4-0.3-0.6-0.4c-0.2-0.1-0.4-0.2-0.6-0.3
						c-0.7-0.3-1.6-0.3-2.3-0.1c-0.8,0.2-1.5,0.6-2,1.2c-0.6,0.6-1,1.5-1.1,2.3c0,0.3-0.1,0.5-0.1,0.8c0,0.3,0,0.5,0.1,0.8
						c0.1,0.5,0.2,0.9,0.4,1.4c0.4,0.9,1.1,1.6,1.9,2.1c0.2,0.1,0.4,0.2,0.6,0.3c0.3,0.1,0.5,0.2,0.8,0.3c0.2,0.1,0.5-0.1,0.5-0.3
						c0.1-0.2-0.1-0.4-0.3-0.5c0,0,0,0-0.1,0c0,0,0,0,0,0c-0.1,0-0.1-0.1-0.2-0.1c-0.1,0-0.2-0.1-0.3-0.2c-0.2-0.1-0.4-0.2-0.5-0.3
						c-0.3-0.2-0.6-0.5-0.8-0.8c-0.2-0.3-0.4-0.6-0.5-0.9c-0.1-0.3-0.2-0.6-0.2-0.9c0-0.3,0-0.6,0-0.9c0.1-0.3,0.1-0.7,0.3-1
						c0.1-0.3,0.3-0.5,0.4-0.7c0.2-0.2,0.3-0.4,0.5-0.5c0.2-0.1,0.3-0.2,0.5-0.3c0.2-0.1,0.4-0.1,0.6-0.2c0.2,0,0.4,0,0.7,0
						c0.2,0,0.4,0.1,0.6,0.2c0.2,0.1,0.3,0.2,0.4,0.3c0.1,0.1,0.2,0.2,0.3,0.3c0.1,0.1,0.1,0.2,0.2,0.3c0,0.1,0.1,0.2,0.1,0.3
						c0,0.1,0,0.1,0,0.2c0,0,0,0.1,0,0.1c0,0,0,0.1,0,0.1c0,0.1-0.1,0.2-0.1,0.2c0,0.1,0,0.2,0,0.2c0,0.1,0,0.2,0,0.2
						c0.1,0.2,0.2,0.3,0.3,0.4c0.1,0.1,0.3,0.1,0.4,0.2c0.2,0,0.4,0,0.6-0.1C65.9,84.9,66,84.8,66.1,84.6z M63.2,82.2
						C63.2,82.2,63.2,82.2,63.2,82.2C63.2,82.2,63.2,82.2,63.2,82.2C63.2,82.2,63.2,82.2,63.2,82.2z"/>
					<path class="st2" d="M35,81.8c-0.6,0-1.3,0.1-1.9,0.4c-0.3,0.1-0.6,0.3-0.9,0.5c-0.3,0.2-0.6,0.4-0.8,0.6
						c-1,0.9-1.6,2.1-1.9,3.4c-0.1,0.7-0.1,1.3,0,2c0,0.3,0.1,0.7,0.2,1c0.1,0.2,0.1,0.3,0.2,0.5c0.1,0.1,0.1,0.3,0.2,0.4
						c0.1,0.1,0.1,0.3,0.2,0.4c0.1,0.1,0.3,0.2,0.4,0.1c0.2-0.1,0.2-0.3,0.1-0.4c0,0,0-0.1,0-0.1c0,0-0.1-0.1,0,0
						c0-0.1,0-0.1-0.1-0.2c0-0.1-0.1-0.2-0.1-0.4c0-0.1-0.1-0.3-0.1-0.4c0-0.1,0-0.1,0-0.2c0,0,0,0,0,0c0,0,0-0.1,0-0.1
						c0-0.5,0-1,0-1.5c0.1-0.6,0.2-1.1,0.5-1.7c0.2-0.4,0.4-0.7,0.6-1.1c0.2-0.3,0.5-0.6,0.8-0.8c0.3-0.2,0.7-0.4,1-0.6
						c0.4-0.1,0.7-0.2,1.1-0.3c0.4,0,0.7,0,1.1,0c0.3,0,0.6,0.1,0.9,0.2c0.2,0.1,0.3,0.2,0.5,0.3c0.1,0.1,0.2,0.2,0.3,0.3
						c0.1,0.1,0.1,0.2,0.2,0.3c0,0.1,0.1,0.3,0.1,0.4c0,0.1,0,0.2,0,0.3c0,0.1,0,0.1-0.1,0.2c0,0.1-0.1,0.1-0.1,0.1
						c-0.1,0.1-0.1,0.1-0.2,0.2c-0.1,0-0.1,0.1-0.2,0.1c0,0,0.1,0,0.1-0.1h0c0,0-0.1,0-0.1,0.1c0,0-0.1,0-0.1,0c0,0-0.1,0-0.1,0
						c0,0,0,0,0.1,0c-0.1,0-0.2,0-0.3,0.1c-0.1,0.1-0.2,0.1-0.2,0.3c0,0.1-0.1,0.2,0,0.4c0,0.1,0.1,0.2,0.2,0.3
						c0.3,0.2,0.8,0.3,1.1,0.2c0.2-0.1,0.3-0.1,0.5-0.2c0.2-0.2,0.4-0.3,0.5-0.5c0.2-0.3,0.3-0.8,0.3-1.2c0-0.4-0.1-0.8-0.3-1.2
						C38.1,82.4,36.4,81.8,35,81.8z M37.2,85.7L37.2,85.7C37.2,85.7,37.2,85.7,37.2,85.7C37.2,85.7,37.2,85.7,37.2,85.7z"/>
					<path class="st2" d="M76.7,63.3c0,0.2-0.1,0.4-0.2,0.7c-0.3,0.7-0.9,1.3-0.9,2.1c0,0.4,0.2,0.9,0.5,1.2c0.3,0.3,0.6,0.5,1,0.6
						c0.3,0.1,0.7,0.2,1.1,0.2c0.4,0,0.7,0,1.1,0c0.8-0.1,1.6-0.3,2.4-0.6c0.8-0.3,1.5-0.7,2.1-1.3c0.6-0.5,1.1-1.1,1.6-1.8
						c0.9-1.4,1.3-3,1.3-4.6c0-0.9-0.1-1.8-0.4-2.6c-0.2-0.9-0.5-1.7-1-2.5c-0.1-0.2-0.2-0.4-0.3-0.5c-0.1-0.3-0.5-0.4-0.8-0.2
						c-0.3,0.2-0.4,0.5-0.2,0.8c0,0,0,0,0,0c0.1,0.2,0.1,0.3,0.2,0.5c0,0,0,0.1,0,0.1c0.1,0.3,0.2,0.6,0.3,0.8
						c0.1,0.3,0.2,0.6,0.3,0.8c0.2,0.5,0.3,1.1,0.4,1.6c0.1,0.7,0.1,1.5,0,2.2c-0.1,0.7-0.3,1.3-0.5,1.9c-0.2,0.5-0.5,1.1-0.9,1.6
						c-0.3,0.4-0.7,0.8-1.1,1.1c-0.5,0.3-1,0.6-1.5,0.9c-0.5,0.2-1.1,0.4-1.6,0.5c-0.5,0.1-0.9,0.1-1.4,0c-0.2,0-0.5-0.1-0.7-0.2
						c-0.1-0.1-0.2-0.1-0.4-0.2c-0.1-0.1-0.1-0.1-0.2-0.2c0,0,0-0.1-0.1-0.1c0,0,0-0.1,0-0.1c0,0,0-0.1,0-0.1c0-0.1,0.1-0.2,0.1-0.3
						c0.1-0.3,0.3-0.5,0.4-0.8c0.2-0.3,0.3-0.7,0.4-1c0.1-0.7,0.1-1.5-0.1-2.2c-0.1-0.4-0.1-0.7-0.2-1.1c-0.1-0.5-0.1-0.9,0-1.4
						c0-0.3,0.1-0.5,0.2-0.7c0.1-0.1,0.1-0.2,0.2-0.4c0-0.1,0.1-0.1,0.1-0.2c0,0,0-0.1,0.1-0.1c0,0,0,0,0,0c0,0,0,0,0,0
						c0.1-0.1,0.2-0.3,0.3-0.4c0.1-0.1,0.1-0.1,0.2-0.2c0,0,0.1-0.1,0.1-0.1c0,0,0,0,0,0c0,0,0,0,0,0c0.1-0.1,0.3-0.2,0.4-0.3
						c0.1,0,0.2-0.1,0.2-0.1c0,0,0.1,0,0.1,0c0,0,0,0,0,0c0,0,0,0,0,0c0,0,0.1,0,0.1,0c0.2-0.1,0.3-0.1,0.5-0.2c0.1,0,0.2,0,0.3-0.1
						c0,0,0.1,0,0.1,0c0,0,0,0,0,0c0,0,0.1,0,0.1,0c0,0,0.1,0,0.1,0c0,0,0,0,0.1,0c0,0,0.1,0,0.1,0c0,0,0,0,0,0c0.1,0,0.2,0,0.3,0
						c0.1,0,0.2,0,0.3,0c0.1,0,0.2,0,0.3,0.1c0.1,0,0.2,0,0.3-0.2c0-0.1,0-0.2-0.2-0.3c-0.1,0-0.3-0.1-0.4-0.1
						c-0.1,0-0.3-0.1-0.4-0.1c0,0-0.1,0-0.1,0c0,0-0.1,0-0.1,0c0,0-0.1,0-0.1,0c-0.1,0-0.2,0-0.2,0c-0.2,0-0.4,0-0.5,0.1
						c-0.6,0.1-1.2,0.3-1.7,0.7c-0.5,0.4-1,0.8-1.3,1.4c-0.3,0.6-0.5,1.2-0.5,1.8c0,0.7,0.1,1.4,0.2,2.1
						C76.7,62.2,76.8,62.7,76.7,63.3z"/>
					<path class="st2" d="M78.1,57.6C78.1,57.7,78.1,57.7,78.1,57.6C78.1,57.7,78,57.7,78.1,57.6z"/>
					<path class="st2" d="M79.5,56.6C79.5,56.6,79.4,56.6,79.5,56.6L79.5,56.6z"/>
					<path class="st2" d="M94.2,69.4c0-0.3-0.1-0.5-0.3-0.7c-0.2-0.2-0.5-0.3-0.7-0.3c-0.3,0-0.5,0.1-0.7,0.3
						c-0.2,0.2-0.3,0.4-0.3,0.7c0,0.1,0,0.2,0,0.2c0,0.1,0,0.2,0,0.3c0,0.3,0,0.5,0,0.8c0,0.3-0.1,0.5-0.2,0.7
						c-0.1,0.3-0.3,0.6-0.5,0.9c-0.3,0.4-0.7,0.7-1.1,1.1c-0.5,0.4-1,0.6-1.5,0.9c-0.7,0.3-1.3,0.5-2.1,0.6c-0.9,0.1-1.9,0.1-2.8,0
						c-0.4-0.1-0.9-0.1-1.3-0.3c0.4-0.4,0.8-0.8,1.2-1.2c1-0.9,2-1.8,2.9-2.8c0.9-1,1.8-2.1,2.4-3.4c0.6-1.2,1.1-2.5,1.4-3.9
						c0.3-1.3,0.3-2.6,0.2-3.9c-0.1-0.7-0.2-1.3-0.4-1.9c-0.2-0.6-0.4-1.3-0.7-1.8c-0.5-1.1-1.3-2.2-2.2-3.1c-0.9-0.9-1.9-1.6-3-2.1
						c-0.6-0.3-1.1-0.5-1.7-0.6c-0.6-0.2-1.2-0.3-1.8-0.3c-0.6-0.1-1.1-0.1-1.7-0.1c-0.6,0-1.2,0-1.7,0.1c-0.1,0-0.3,0-0.4,0
						c-0.2,0-0.4,0-0.5,0.1c-0.2,0-0.3,0.1-0.5,0.1c-0.2,0-0.3,0-0.5,0.1c-0.2,0-0.3,0-0.5,0.1c-0.1,0-0.2,0-0.2,0
						c-0.1,0-0.2,0-0.3,0c0,0,0,0,0,0c-0.1,0-0.2,0-0.3,0.1c-0.1,0.1-0.2,0.2-0.1,0.4c0,0.1,0,0.3,0.1,0.4c0.1,0.1,0.2,0.2,0.4,0.1
						c0.3,0,0.7,0,1-0.1c0.1,0,0.2,0,0.3,0c0.1,0,0.2,0,0.3,0c0.2,0,0.4,0,0.5,0c0.4,0,0.7,0,1.1,0c0.7,0,1.4,0,2.1,0
						c0.3,0,0.7,0,1,0.1c0.9,0.1,1.8,0.3,2.6,0.7c0.7,0.3,1.3,0.7,1.9,1.1c0.6,0.5,1.2,1.1,1.7,1.7c0.5,0.7,1,1.5,1.3,2.3
						c0.4,0.9,0.6,1.8,0.7,2.7c0.1,1,0.1,1.9,0,2.9c-0.2,1-0.4,2.1-0.8,3c-0.4,0.9-0.8,1.7-1.4,2.5c-0.1,0.2-0.3,0.4-0.4,0.6
						c-0.7,1-1.6,1.8-2.5,2.6c-0.9,0.8-1.8,1.6-2.6,2.5c-0.1,0.1-0.2,0.3-0.4,0.4C81.1,74,81,74,80.8,73.9c-1-0.4-2-1-3-1.7
						c-0.2-0.2-0.5-0.3-0.7-0.5c-0.9-0.7-1.7-1.5-2.4-2.3c-0.2-0.2-0.4-0.5-0.6-0.7c-0.6-0.7-1.1-1.5-1.5-2.4
						c-0.1-0.3-0.3-0.5-0.4-0.8c-0.7-1.7-1-3.4-1.4-5.2c-0.2-0.9-0.4-1.8-0.7-2.6c-0.2-0.7-0.6-1.4-1.1-2c0,0-0.1-0.1-0.1-0.1
						c0.1,0.1,0,0.1,0,0c0,0,0,0,0,0c0,0-0.1-0.1-0.1-0.1c-0.1-0.1-0.1-0.2-0.2-0.2c-0.2-0.2-0.3-0.3-0.5-0.4c0,0,0,0-0.1,0
						c0,0,0,0,0,0c-0.1,0-0.1,0,0,0c0,0-0.1,0-0.1-0.1c-0.1,0-0.2-0.1-0.3-0.2c-0.2-0.1-0.4-0.2-0.6-0.3c-0.1-0.1-0.3,0.1-0.1,0.2
						c0.3,0.1,0.5,0.3,0.7,0.5c0,0,0,0,0,0.1c0,0,0,0,0,0c0,0,0,0,0,0c0,0,0,0.1,0.1,0.1c0,0,0,0,0,0c0,0,0.1,0.1,0.1,0.1
						c0,0.1,0.1,0.1,0.1,0.2c0,0,0,0,0,0c0,0,0,0,0,0c0,0,0,0.1,0.1,0.1c0.2,0.2,0.3,0.5,0.5,0.7c0.1,0.1,0.1,0.3,0.2,0.4
						c0,0.1,0.1,0.1,0.1,0.2c0,0,0.1,0.2,0,0c0,0,0,0.1,0,0.1c0.2,0.6,0.4,1.2,0.5,1.7c0.2,0.7,0.3,1.4,0.4,2.1
						c0.2,1.4,0.5,2.8,0.9,4.1c0.4,1.3,1,2.5,1.8,3.7c0.7,1.1,1.6,2.1,2.5,3c1,0.9,2,1.7,3.2,2.4c0.7,0.4,1.5,0.8,2.2,1.1
						c-0.4,0.5-0.7,0.9-1,1.4c-0.3,0.4-0.5,0.9-0.7,1.3c-0.2,0.1-0.4,0.1-0.6,0.2c-1.2,0.4-2.3,1-3.5,1.5c-0.1,0.1-0.2,0.1-0.4,0.2
						c-0.4,0.2-0.9,0.3-1.3,0.5c0-0.3,0-0.5,0-0.8c0-0.8-0.1-1.5-0.2-2.3c-0.2-0.7-0.4-1.3-0.7-2c-0.6-1.2-1.4-2.4-2.3-3.3
						c-0.9-1-2.1-1.8-3.3-2.4c-0.7-0.3-1.4-0.6-2.2-0.8c-0.7-0.2-1.5-0.4-2.3-0.5c-1.5-0.2-3-0.1-4.5,0.1c-0.5,0.1-1.1,0.2-1.6,0.3
						c-0.5-0.5-1-1-1.5-1.5c-0.2-0.1-0.3-0.3-0.5-0.4c-0.2-0.2-0.4-0.3-0.6-0.5c-0.2-0.1-0.4-0.3-0.6-0.4c-0.4-0.3-0.8-0.5-1.3-0.7
						c-0.9-0.5-1.9-0.9-2.9-1.2c-0.5-0.1-0.9-0.3-1.4-0.4c-0.5-0.1-1-0.2-1.4-0.3c-0.2,0-0.4-0.1-0.6-0.1c0-0.1,0.1-0.2,0.1-0.3
						c0.3-0.8,0.8-1.6,1.3-2.3c0.1-0.2,0.3-0.4,0.4-0.5c0.6-0.7,1.2-1.4,2-2c0.1-0.1,0.2-0.1,0.3-0.2c0,0,0,0,0.1,0
						c0.1,0,0.1-0.1,0.2-0.1c0.2-0.1,0.4-0.3,0.6-0.4c0.4-0.3,0.8-0.5,1.2-0.7c0.1,0,0.1-0.1,0.2-0.1c0,0,0.1,0,0.1,0c0,0,0,0,0,0
						c0,0,0,0,0,0c0,0,0.1,0,0.1,0c0.1,0,0.1-0.1,0.2-0.1c0,0,0.1,0,0.1,0c0,0,0,0,0,0c0,0,0,0,0,0c0.1,0,0.2-0.1,0.4-0.1
						c0.1,0,0.2-0.1,0.4-0.1c0.2,0,0.3-0.2,0.2-0.4c-0.1-0.2-0.2-0.3-0.4-0.2c-0.4,0.1-0.7,0.2-1.1,0.3c-0.4,0.1-0.8,0.3-1.1,0.4
						c-0.7,0.3-1.4,0.7-2,1.2c-0.3,0.3-0.7,0.5-1,0.8c-0.3,0.3-0.6,0.6-0.8,0.9c-0.6,0.7-1.1,1.4-1.5,2.1c-0.3,0.6-0.6,1.2-0.9,1.8
						c-0.4,0-0.9,0-1.3-0.1c-0.1,0-0.1,0-0.2,0c-0.9,0-1.7,0-2.6,0.1c-0.1,0-0.2,0-0.4,0c-0.1,0-0.1,0-0.2,0c-0.1,0-0.2,0-0.3,0
						c-0.7,0.1-1.3,0.2-1.9,0.3c-0.6,0.1-1.2,0.2-1.9,0.4c-0.6,0.2-1.1,0.3-1.7,0.6c-0.6,0.2-1.1,0.5-1.6,0.8
						c-0.5,0.3-0.9,0.6-1.3,1c-0.4,0.4-0.7,0.8-0.9,1.3c-0.2,0.5-0.4,1.1-0.4,1.7c0,0.4,0,0.9,0.1,1.3c-1.1,0.1-2.1,0.4-3.1,0.7
						c-1.3,0.5-2.4,1.2-3.3,2.2c-0.2,0.3-0.5,0.6-0.7,0.9c-0.2,0.3-0.3,0.6-0.5,1c-0.2,0.6-0.4,1.2-0.4,1.9c-0.1,1.2,0,2.5,0.1,3.7
						c0,0.2,0,0.5,0,0.8c-0.1,0.8-0.6,1.6-0.2,2.3c0,0.1,0.1,0.2,0.1,0.2c0.1,0.1,0.2,0.2,0.3,0.3c0.2,0.2,0.4,0.3,0.6,0.4
						c0.4,0.2,0.9,0.4,1.4,0.4c0.4,0.1,0.9,0,1.3,0c0.4-0.1,0.8-0.1,1.2-0.3c0.9-0.3,1.7-0.7,2.4-1.1c0.8-0.5,1.5-1.1,2.1-1.7
						c0.7-0.7,1.2-1.6,1.6-2.5c0.3-0.8,0.5-1.7,0.5-2.6c0-0.8-0.2-1.7-0.5-2.4c-0.2-0.8-0.6-1.5-0.8-2.2c-0.1-0.2-0.1-0.4-0.2-0.5
						c0.8,0,1.6,0,2.3,0c0.4,0,0.7,0.1,1.1,0.1c1,0.1,1.9,0.4,2.8,0.7c0.7,0.3,1.4,0.7,2,1.1c0.5,0.4,0.9,0.8,1.3,1.3
						c0.3,0.4,0.6,0.9,0.8,1.4c0.2,0.4,0.3,0.9,0.4,1.3c0,0.3,0,0.6,0,0.8c0-0.1,0-0.2,0-0.2c0,0.1,0,0.2,0,0.4
						c0,0.2-0.1,0.5-0.2,0.7c-0.1,0.2-0.2,0.4-0.3,0.6c-0.1,0.2-0.3,0.3-0.4,0.5c-0.1,0.1-0.2,0.1-0.3,0.2c-0.1,0-0.2,0.1-0.3,0.1
						c-0.1,0-0.1,0-0.2,0c0,0-0.1,0-0.1,0c0,0-0.1,0-0.1-0.1c0,0-0.1-0.1-0.1-0.1c0,0,0-0.1-0.1-0.1c0,0,0-0.1,0-0.1c0,0,0,0,0,0
						c0,0,0,0,0,0c0-0.1,0.1-0.2,0.1-0.3c0-0.1,0-0.2,0-0.4c-0.1-0.2-0.2-0.4-0.4-0.6c-0.2-0.1-0.5-0.2-0.7-0.1
						c-0.2,0.1-0.5,0.2-0.6,0.4c-0.1,0.1-0.1,0.3-0.2,0.4c0,0.1-0.1,0.3-0.1,0.5c0,0.2,0,0.3,0.1,0.5c0,0.1,0,0.2,0.1,0.2
						c0.1,0.1,0.1,0.3,0.2,0.4c0.1,0.1,0.2,0.3,0.3,0.4c0.1,0.1,0.1,0.1,0.2,0.2c0.1,0.1,0.2,0.1,0.3,0.2c0.1,0,0.1,0.1,0.2,0.1
						c0.4,0.2,0.8,0.3,1.2,0.2c0.4,0,0.9-0.2,1.2-0.4c0.3-0.2,0.6-0.4,0.8-0.7c0.2-0.2,0.4-0.5,0.6-0.8c0.2-0.3,0.3-0.6,0.4-0.9
						c0.1-0.3,0.1-0.6,0.2-0.9c0.1-0.6,0-1.2-0.1-1.7c-0.2-1.1-0.8-2.2-1.5-3.1c-0.4-0.5-0.8-0.9-1.3-1.3c-0.5-0.4-1.1-0.8-1.7-1.1
						c-1.2-0.6-2.5-1-3.9-1.2c-0.8-0.1-1.6-0.2-2.4-0.2c-0.7,0-1.4,0-2,0.1c0-0.1,0-0.2-0.1-0.2c0-0.1,0-0.2-0.1-0.3
						c0-0.3,0-0.6,0-0.9c0-0.2,0.1-0.5,0.2-0.7c0.1-0.2,0.3-0.5,0.4-0.7c0.2-0.3,0.5-0.6,0.8-0.8c0.4-0.3,0.9-0.6,1.4-0.8
						c0.1-0.1,0.2-0.1,0.4-0.2c0.5-0.2,1-0.4,1.5-0.5c0.6-0.2,1.2-0.3,1.7-0.4c0.3-0.1,0.6-0.1,0.9-0.1c0.6-0.1,1.1-0.1,1.7-0.2
						c0.6,0,1.2,0,1.8,0c0.3,0,0.6,0,0.9,0c0.1,0,0.2,0,0.3,0c0.1,0,0.2,0,0.2,0c0.2,0,0.3,0,0.5,0c0,0,0,0,0.1,0
						c-0.2,0.6-0.3,1.2-0.4,1.8c-0.3,1.9-0.3,3.8,0,5.7c0.2,0.9,0.4,1.8,0.8,2.7c0.4,1,0.8,1.9,1.2,2.9c0.1,0.2,0.2,0.4,0.3,0.6
						c0.4,1,0.8,1.9,1,3c0.1,0.3,0.1,0.5,0.1,0.8c0.1,0.7,0.1,1.3,0,2c-0.1,0.5-0.2,1-0.4,1.5c-0.1,0.3-0.3,0.6-0.5,0.9
						c-0.2,0.2-0.3,0.4-0.5,0.5c-0.1,0.1-0.2,0.1-0.3,0.2c-0.1,0-0.2,0.1-0.3,0.1c-0.1,0-0.1,0-0.2,0c0,0-0.1,0-0.1,0
						c0,0-0.1,0-0.1,0c0,0-0.1-0.1-0.1-0.1c0,0,0-0.1-0.1-0.1c0-0.1-0.1-0.1-0.1-0.1c-0.1-0.1-0.1-0.1-0.2-0.2
						c-0.2-0.1-0.4-0.1-0.6-0.1c-0.2,0.1-0.3,0.2-0.4,0.3c-0.1,0.2-0.1,0.4-0.1,0.6c0.1,0.3,0.2,0.6,0.5,0.8
						c0.2,0.2,0.5,0.4,0.8,0.4c0.2,0.1,0.5,0.1,0.8,0.1c0.2,0,0.3,0,0.5-0.1c0.2,0,0.3-0.1,0.4-0.2c0.2-0.1,0.5-0.3,0.7-0.4
						c0.2-0.1,0.3-0.3,0.5-0.5c0.2-0.2,0.4-0.5,0.5-0.7c0.2-0.3,0.3-0.6,0.4-0.8c0.2-0.5,0.3-1,0.4-1.5C48,83.6,48,83,48,82.4
						c-0.1-1.3-0.4-2.5-0.9-3.7c-0.5-1.2-1-2.3-1.5-3.5c0-0.1-0.1-0.2-0.1-0.3c-0.4-1.1-0.8-2.2-1-3.3c-0.1-0.3-0.1-0.6-0.1-0.8
						c-0.1-1.1-0.2-2.2-0.1-3.3c0-0.3,0.1-0.6,0.1-0.9c0.1-0.6,0.2-1.3,0.4-1.9c0.3,0,0.5,0.1,0.8,0.2c0.5,0.1,0.9,0.2,1.4,0.4
						c0.5,0.1,0.9,0.3,1.4,0.4c0.5,0.2,1,0.3,1.5,0.5c0.1,0,0.1,0,0.2,0.1c0.1,0.1,0.3,0.1,0.4,0.2c0.9,0.4,1.8,0.9,2.6,1.4
						c0.2,0.1,0.4,0.3,0.6,0.4c0.3,0.3,0.6,0.5,0.9,0.8c-0.3,0.1-0.5,0.2-0.8,0.3c-0.6,0.3-1.2,0.6-1.7,1c-0.6,0.4-1.1,0.9-1.6,1.4
						c-0.9,1.1-1.5,2.3-1.7,3.7c-0.1,0.4-0.1,0.7-0.1,1.1c0,0.4,0,0.7,0.1,1.1c0.1,0.7,0.3,1.4,0.7,2c0.1,0.3,0.3,0.6,0.4,0.9
						c0.1,0.2,0.2,0.5,0.2,0.7c0,0.1,0,0.3,0,0.4c0,0.2-0.1,0.4-0.2,0.6c-0.1,0.3-0.2,0.6-0.2,0.9c0,0.6,0.3,1.2,0.9,1.5
						c0.4,0.2,0.9,0.3,1.4,0.3c0.5,0,0.9-0.1,1.4-0.2c0.8-0.2,1.6-0.6,2.3-1.1c0.7-0.5,1.4-1.1,1.9-1.8c0.3-0.4,0.6-0.8,0.8-1.2
						c0.2-0.4,0.4-0.8,0.6-1.3c0.3-0.8,0.5-1.7,0.6-2.6c0.1-0.9,0-1.9-0.3-2.8c-0.2-0.9-0.6-1.8-1-2.6c-0.3-0.5-0.6-1-0.9-1.5
						c0.1,0,0.1,0,0.2,0c0.2,0,0.5-0.1,0.7-0.1c1.1-0.1,2.2-0.2,3.2-0.1c0.3,0,0.6,0,0.9,0.1c1.1,0.2,2.1,0.4,3.1,0.8
						c0.9,0.4,1.7,0.8,2.4,1.4c0.8,0.6,1.4,1.3,2,2c0.5,0.7,1,1.5,1.3,2.3c0.3,0.7,0.5,1.4,0.6,2.2c0,0.1,0,0.2,0,0.4
						c0.1,0.6,0.1,1.2,0,1.8c-0.5,0.1-1.1,0.1-1.6,0c-0.3,0-0.6-0.1-0.9-0.2c-0.2-0.1-0.4-0.2-0.6-0.3c-0.2-0.1-0.3-0.3-0.5-0.5
						c-0.1-0.1-0.2-0.3-0.3-0.5c-0.1-0.1-0.1-0.3-0.1-0.4c0-0.1,0-0.3,0-0.4c0-0.1,0-0.2,0.1-0.3c0-0.1,0.1-0.2,0.2-0.3
						c0.1-0.1,0.2-0.2,0.3-0.3c0.1-0.1,0.2-0.1,0.4-0.2c0,0,0,0,0,0c0,0,0.1,0,0.1-0.1c0.1,0,0.3-0.1,0.4-0.1c0.1,0,0.1,0,0.2,0
						c0,0,0,0,0,0c0.1,0,0.1,0,0.2,0c0.1,0,0.2,0,0.2,0.1c0,0,0,0,0,0c0,0,0,0,0,0c0,0,0.1,0,0.1,0.1c0.2,0.1,0.5,0,0.6-0.2
						c0.1-0.1,0.1-0.2,0-0.3c0-0.1-0.1-0.2-0.2-0.3C70,76.1,69.7,76,69.4,76c-0.1,0-0.3,0-0.4,0c-0.1,0-0.3,0-0.4,0
						c-0.2,0-0.5,0.1-0.7,0.2c-0.4,0.2-0.8,0.5-1,0.9c-0.6,0.9-0.4,2.1,0.3,3c0.3,0.5,0.8,0.8,1.2,1.1c0.6,0.3,1.2,0.5,1.8,0.5
						c0.4,0.1,0.9,0.1,1.3,0c-0.1,0.6-0.3,1.1-0.5,1.7c-0.3,0.8-0.7,1.5-1.2,2.1c-0.2,0.3-0.5,0.6-0.7,0.8c-0.1,0.1-0.3,0.2-0.4,0.4
						c0,0-0.1,0.1-0.1,0.1c0,0,0,0,0,0c0,0,0,0,0,0c0,0,0,0,0,0c-0.1,0-0.1,0.1-0.1,0.1c-0.1,0.1-0.3,0.2-0.4,0.3
						c-0.1,0-0.1,0.1-0.2,0.1c0,0-0.1,0-0.1,0.1c0,0,0,0,0,0c0,0,0,0,0,0c-0.1,0-0.1,0-0.2,0.1c0,0-0.1,0-0.1,0c0,0,0,0,0,0
						c0,0-0.1,0-0.1,0c0,0-0.1,0-0.1,0c0,0-0.1,0-0.1,0c0.1,0,0,0,0,0c0,0-0.2,0-0.2-0.1c0,0,0.1,0,0,0c0,0,0,0,0,0c0,0-0.1,0-0.1,0
						c0,0-0.1-0.1,0,0c0,0,0,0-0.1,0c0,0,0,0-0.1-0.1c0,0,0,0,0,0c0,0,0,0,0-0.1c0,0,0,0,0,0c0,0,0,0,0,0c0,0,0,0,0,0c0,0,0,0,0,0
						c0-0.2-0.1-0.3-0.3-0.3c-0.2,0-0.3,0.1-0.3,0.3c0,0.3,0.2,0.7,0.4,0.9c0.1,0.1,0.3,0.2,0.5,0.3c0.1,0,0.1,0,0.2,0
						c0.1,0,0.1,0,0.2,0c0,0,0,0,0,0c0,0,0.1,0,0.1,0c0.4,0,0.8-0.1,1.2-0.3c0.1-0.1,0.2-0.1,0.3-0.2c0,0,0.1-0.1,0.1-0.1
						c0,0,0,0,0,0c0,0,0,0,0,0c0,0,0.1,0,0.1-0.1c0.4-0.3,0.8-0.6,1.2-1c0.4-0.4,0.8-0.9,1.1-1.4c0.4-0.6,0.7-1.2,1-1.8
						c0.3-0.6,0.5-1.3,0.6-1.9c0.3-0.1,0.6-0.1,0.9-0.2c1.1-0.4,2.2-0.9,3.2-1.3c0.1,0,0.2-0.1,0.3-0.1c0.3-0.1,0.6-0.3,1-0.4
						c0,0.1,0,0.1,0,0.2c-0.2,1.2-0.2,2.4,0.2,3.6c0.4,1.2,1,2.3,1.9,3.1c0.9,0.8,1.9,1.5,3.1,1.9c0.6,0.2,1.2,0.4,1.9,0.5
						c0.7,0.1,1.4,0.1,2.1,0.1c0.7,0,1.4-0.1,2-0.4c0.3-0.1,0.7-0.2,0.9-0.4c0.3-0.2,0.6-0.5,0.8-0.8c0.2-0.3,0.3-0.6,0.4-1
						c0-0.2,0-0.4,0-0.6c0-0.2-0.1-0.3-0.2-0.5c-0.2-0.5-0.7-0.8-1.2-1.1c-0.2-0.1-0.3-0.2-0.5-0.3c-0.1-0.1-0.2-0.2-0.3-0.3
						c0-0.1-0.1-0.1-0.1-0.2c-0.1-0.2-0.1-0.3-0.1-0.5c-0.1-0.6-0.1-1.1-0.2-1.7c-0.1-0.5-0.3-1-0.6-1.4c-0.2-0.2-0.4-0.5-0.6-0.7
						c-0.2-0.2-0.4-0.4-0.7-0.6c-0.5-0.3-1-0.6-1.5-0.8c-1.1-0.4-2.3-0.5-3.5-0.4c-0.5,0-0.9,0.1-1.4,0.2c0.3-0.5,0.6-0.9,0.9-1.3
						c0.1-0.2,0.2-0.3,0.4-0.5c0.1,0,0.1,0,0.2,0c1.3,0.4,2.7,0.6,4.1,0.5c1.4-0.1,2.8-0.4,4-1c1.2-0.6,2.2-1.5,2.9-2.6
						c0.2-0.3,0.3-0.6,0.5-0.9c0,0.1-0.1,0.1-0.1,0.2c0.1-0.2,0.2-0.3,0.2-0.5c0.1-0.2,0.2-0.4,0.3-0.7
						C94.1,70.3,94.2,69.8,94.2,69.4z M30.4,73.4c0.3,0.8,0.6,1.6,0.8,2.4c0,0.2,0.1,0.3,0.1,0.5c0.1,0.5,0.1,0.9,0,1.4
						c-0.1,0.5-0.2,0.9-0.4,1.4c-0.2,0.5-0.5,1-0.9,1.5c-0.4,0.5-0.9,1-1.4,1.4c-0.7,0.5-1.4,0.9-2.2,1.3c-0.6,0.2-1.2,0.4-1.8,0.5
						c-0.3,0-0.6,0-0.9,0c-0.2,0-0.4-0.1-0.6-0.2c-0.1-0.1-0.2-0.1-0.3-0.2c-0.1-0.1-0.1-0.1-0.2-0.2c0,0,0,0,0-0.1
						c0-0.1,0-0.1,0-0.2c0.1-0.3,0.2-0.6,0.2-0.9c0-0.2,0.1-0.4,0.1-0.6c0-0.2,0-0.4,0-0.6c-0.1-0.9-0.1-1.7-0.2-2.6
						c0-0.4,0-0.9,0.1-1.3c0.1-0.4,0.2-0.9,0.3-1.3c0.2-0.4,0.4-0.7,0.6-1c0.3-0.4,0.7-0.7,1-1c0.5-0.4,1.1-0.7,1.7-1
						c1-0.4,2-0.6,3-0.8c0.1,0,0.2,0,0.3,0C30,72.3,30.2,72.9,30.4,73.4z M55.9,70.6c0.5,0.7,1,1.5,1.4,2.3c0.3,0.7,0.5,1.4,0.6,2.2
						c0.1,0.6,0.1,1.3,0,1.9c-0.1,0.6-0.3,1.3-0.5,1.9c-0.3,0.6-0.6,1.2-1,1.8c-0.4,0.5-0.9,1-1.4,1.4c-0.5,0.3-1,0.6-1.5,0.9
						c-0.5,0.2-1,0.3-1.5,0.4c-0.2,0-0.4,0-0.6,0c-0.1,0-0.2,0-0.3-0.1c0,0-0.1,0-0.1,0c0,0,0,0,0,0c0,0,0,0,0,0c0,0,0,0,0,0
						c0,0,0,0,0-0.1c0.1-0.3,0.2-0.5,0.3-0.7c0.1-0.3,0.2-0.7,0.1-1c0-0.7-0.3-1.3-0.6-2c-0.1-0.3-0.3-0.6-0.4-0.8
						c-0.2-0.4-0.3-0.8-0.3-1.2c-0.1-0.5,0-0.9,0-1.4c0.1-0.5,0.2-1.1,0.4-1.6c0.2-0.5,0.5-1,0.9-1.5c0.4-0.5,0.8-0.9,1.3-1.3
						c0.6-0.5,1.3-0.9,2.1-1.2c0.3-0.1,0.6-0.2,0.9-0.3C55.6,70.3,55.8,70.5,55.9,70.6z M66.3,87.2C66.3,87.2,66.3,87.2,66.3,87.2
						C66.3,87.3,66.3,87.2,66.3,87.2z M83.7,78.7c0.5,0.1,0.9,0.2,1.4,0.4c0.4,0.2,0.7,0.4,1.1,0.6c0.2,0.2,0.5,0.4,0.6,0.6
						c0.2,0.2,0.3,0.4,0.4,0.7c0.1,0.2,0.1,0.4,0.2,0.7c0.1,0.6,0,1.3,0.2,1.9c0.1,0.4,0.3,0.7,0.6,1c0.2,0.2,0.5,0.4,0.7,0.6
						c0.2,0.1,0.5,0.3,0.7,0.4c0.1,0.1,0.2,0.1,0.2,0.2c0,0,0.1,0.1,0.1,0.1c0,0,0,0.1,0,0.1c0,0,0,0.1,0,0.1c0,0.1,0,0.1-0.1,0.2
						c0,0.1-0.1,0.2-0.1,0.2c-0.1,0.1-0.1,0.1-0.2,0.2c-0.2,0.1-0.3,0.2-0.5,0.3c-0.4,0.2-0.9,0.3-1.4,0.3c-0.8,0.1-1.5,0.1-2.3,0
						c-0.7-0.1-1.4-0.3-2.1-0.6c-0.6-0.3-1.1-0.6-1.6-0.9c-0.4-0.3-0.8-0.7-1.1-1.1c-0.3-0.4-0.5-0.8-0.8-1.3
						c-0.2-0.5-0.3-1-0.4-1.5c-0.1-0.5-0.1-1,0-1.5c0.1-0.5,0.2-0.9,0.3-1.4c0.2-0.1,0.5-0.1,0.7-0.2c0.3-0.1,0.6-0.1,0.9-0.2
						C82.2,78.6,83,78.6,83.7,78.7z"/>
					<path class="st2" d="M52.8,59C52.7,59,52.7,59,52.8,59c0-0.1,0-0.1,0-0.1C52.7,58.9,52.7,58.9,52.8,59z"/>
					<path class="st2" d="M52.7,59c0,0.2,0.1,0.5,0.1,0.7c0.1,0.3,0.2,0.5,0.2,0.8c0.2,0.5,0.4,1.1,0.6,1.6c0.1,0.3,0.2,0.6,0.2,0.9
						c0.1,0.5,0,0.9,0,1.4c0,0.3,0,0.6,0.1,0.8c0.1,0.3,0.2,0.6,0.4,0.8c0.2,0.2,0.3,0.3,0.6,0.5c0.2,0.1,0.4,0.2,0.7,0.3
						c0.3,0.1,0.6,0.1,0.9,0.1c0.3,0,0.6-0.1,0.9-0.2c0.9-0.3,1.7-0.8,2.3-1.5c0.7-0.7,1.1-1.4,1.5-2.3c0.2-0.4,0.3-0.8,0.3-1.2
						c0-0.3,0.1-0.5,0.1-0.8c0-0.2,0-0.4,0-0.6c0-0.1,0-0.2,0-0.3c-0.1-1.1-0.5-2.2-1.2-3.2c-0.2-0.3-0.4-0.5-0.7-0.7
						c-0.1-0.1-0.4-0.1-0.5,0c-0.1,0.1-0.1,0.3,0,0.5c0,0,0.1,0.1,0.1,0.1c0,0,0,0,0,0c0,0,0,0,0,0.1c0.1,0.1,0.1,0.2,0.2,0.3
						c0.1,0.2,0.2,0.4,0.3,0.6c0,0.1,0.1,0.2,0.1,0.3c0,0,0,0,0,0.1c0,0.1,0,0.1,0.1,0.2c0.1,0.2,0.1,0.4,0.2,0.6
						c0.1,0.2,0.1,0.5,0.1,0.7c0.1,0.5,0.1,1,0,1.5c0-0.1,0-0.1,0-0.2c0,0.1,0,0.2,0,0.3c-0.1,0.5-0.2,0.9-0.4,1.3
						c-0.2,0.4-0.4,0.8-0.7,1.2c-0.3,0.4-0.6,0.7-1,1c-0.4,0.3-0.8,0.5-1.2,0.7c-0.3,0.1-0.6,0.2-0.9,0.3c-0.2,0-0.3,0-0.5,0
						c-0.1,0-0.2,0-0.3-0.1c-0.1,0-0.1-0.1-0.2-0.1c-0.1,0-0.1-0.1-0.2-0.2c0-0.1-0.1-0.1-0.1-0.2c0-0.1-0.1-0.2-0.1-0.3
						c0-0.4,0-0.8,0-1.2c0-0.4,0-0.9-0.2-1.3c-0.2-0.8-0.6-1.6-0.9-2.3c-0.1-0.3-0.2-0.7-0.3-1.1c0-0.3,0-0.6,0-0.9
						c0-0.2,0.1-0.4,0.2-0.6c0.1-0.1,0.1-0.2,0.2-0.4c0-0.1,0.1-0.1,0.1-0.2c-0.1,0.1,0,0,0,0c0,0,0.1-0.1,0,0
						c0.1-0.1,0.2-0.1,0.2-0.3c0-0.1,0-0.2,0-0.3c-0.1-0.1-0.1-0.2-0.3-0.2c-0.1,0-0.2,0-0.3,0c-0.1,0.1-0.2,0.1-0.3,0.2
						c-0.1,0.1-0.1,0.1-0.2,0.2c-0.1,0.1-0.2,0.2-0.2,0.3c-0.1,0.1-0.1,0.2-0.2,0.4c-0.2,0.4-0.2,0.8-0.2,1.3
						C52.7,58.4,52.7,58.7,52.7,59z"/>
					<path class="st2" d="M61.6,59.8c0,0,0,0.1,0,0.1c0,0,0,0,0,0C61.6,59.9,61.6,59.8,61.6,59.8z"/>
					<path class="st2" d="M63.3,66.4c0.5,0.5,1.3,0.7,2,0.7c0.4,0,0.8-0.2,1.1-0.4c0.3-0.2,0.6-0.4,0.8-0.7c1-1.1,1.3-2.6,1.2-4.1
						c-0.1-1.5-0.7-2.8-1.6-4c-0.4-0.6-0.9-1.1-1.4-1.6c-0.1-0.1-0.3-0.2-0.4-0.4c-0.1-0.1-0.2-0.1-0.3-0.2c0,0-0.1,0-0.1-0.1
						c0,0,0,0,0,0c0,0,0,0-0.1-0.1c-0.3-0.2-0.5-0.4-0.8-0.7c-0.1-0.1-0.3-0.2-0.4-0.3c-0.1-0.1-0.3-0.1-0.4,0
						c-0.1,0.1-0.1,0.3,0,0.4c0.3,0.3,0.6,0.5,0.9,0.8c0.1,0.1,0.1,0.1,0.2,0.2c0,0,0.1,0.1,0.1,0.1c0,0,0,0,0,0c0,0,0.1,0.1,0,0
						c0.1,0.1,0.1,0.2,0.2,0.3c0.1,0.1,0.1,0.1,0.2,0.2c0.1,0.2,0.3,0.3,0.4,0.5c0.1,0.1,0.1,0.2,0.2,0.2c0,0,0.1,0.1,0.1,0.1
						c0,0,0,0,0.1,0.1c0,0,0,0,0,0c0,0,0,0,0,0c0.2,0.3,0.5,0.7,0.7,1c0.2,0.4,0.4,0.8,0.6,1.2c0.2,0.5,0.4,1.1,0.5,1.7
						c0.1,0.5,0.1,1,0,1.5c-0.1,0.4-0.2,0.8-0.3,1.1c-0.1,0.3-0.3,0.5-0.4,0.8c-0.1,0.2-0.3,0.3-0.5,0.5c-0.1,0.1-0.3,0.2-0.4,0.2
						c-0.1,0-0.2,0.1-0.3,0.1c-0.1,0-0.2,0-0.3,0c-0.1,0-0.2,0-0.3-0.1c-0.1,0-0.2-0.1-0.2-0.1c-0.1,0-0.1-0.1-0.2-0.2
						c0-0.1-0.1-0.1-0.1-0.2c0-0.1,0-0.1,0-0.2c0-0.1,0-0.1,0-0.2c0-0.1,0-0.1,0.1-0.2c0,0,0.1-0.1,0.1-0.1c0.1-0.1,0.1-0.1,0.2-0.2
						c0.1,0,0.1-0.1,0.2-0.1c0.1-0.1,0.2-0.2,0.3-0.3c0.1-0.1,0.1-0.3,0-0.4c-0.1-0.3-0.3-0.5-0.6-0.5c-0.1,0-0.2,0-0.3,0
						c-0.1,0-0.2,0.1-0.3,0.1c-0.2,0.1-0.3,0.2-0.4,0.3c-0.2,0.3-0.4,0.6-0.5,1c-0.1,0.4-0.1,0.7,0,1.1
						C62.8,65.8,63.1,66.1,63.3,66.4z"/>
					<path class="st2" d="M25.6,58.1c0.2,0.8,0.6,1.5,1,2.2c0.9,1.4,2.3,2.5,3.9,3c0.8,0.3,1.6,0.4,2.5,0.4c0.8,0,1.7-0.1,2.4-0.4
						c0.4-0.2,0.8-0.4,1.2-0.6c0.2-0.1,0.4-0.3,0.6-0.5c0.2-0.2,0.3-0.4,0.4-0.5c0.2-0.3,0.4-0.7,0.5-1.1c0.1-0.4,0.2-0.8,0.1-1.2
						c0-0.5-0.1-0.9-0.4-1.4c-0.2-0.3-0.4-0.7-0.7-0.9c-0.2-0.1-0.4-0.3-0.6-0.4c-0.2-0.1-0.4-0.2-0.6-0.3c-0.2-0.1-0.4-0.1-0.7-0.1
						c-0.1,0-0.2,0-0.2,0c-0.1,0-0.3,0-0.4,0.1c-0.1,0-0.3,0.1-0.4,0.2c-0.1,0-0.2,0.1-0.3,0.2c-0.1,0-0.1,0.1-0.2,0.2
						c-0.1,0.1-0.1,0.3-0.1,0.5c0.1,0.2,0.1,0.3,0.3,0.4c0.1,0.1,0.3,0.1,0.5,0.1c0,0,0.1,0,0.1,0c0.1,0,0.1,0,0.2,0
						c0.1,0,0.2,0,0.3,0c0.2,0,0.3,0.1,0.5,0.1c0.1,0.1,0.3,0.1,0.4,0.2c0.1,0.1,0.2,0.2,0.3,0.3c0.1,0.1,0.1,0.2,0.2,0.3
						c0.1,0.1,0.1,0.3,0.1,0.4c0,0.2,0,0.4,0,0.5c0,0.2-0.1,0.4-0.2,0.6c-0.1,0.2-0.2,0.4-0.3,0.6c-0.2,0.2-0.3,0.4-0.5,0.5
						c-0.3,0.2-0.5,0.3-0.8,0.5c-0.4,0.2-0.8,0.3-1.3,0.3c-0.6,0.1-1.1,0.1-1.7,0c-0.6-0.1-1.3-0.3-1.9-0.5c-0.5-0.2-1-0.5-1.4-0.8
						c-0.4-0.3-0.8-0.7-1.1-1.1c-0.2-0.2-0.3-0.5-0.5-0.7c-0.1-0.1-0.1-0.3-0.2-0.4c0-0.1-0.1-0.1-0.1-0.2c0,0,0-0.1,0-0.1
						c0,0,0,0,0,0c0,0,0,0,0,0c0,0,0-0.1,0-0.1c0,0,0-0.1,0-0.1c0-0.1-0.1-0.1-0.1-0.2c-0.1-0.1-0.1-0.3-0.1-0.4
						c-0.1-0.3-0.1-0.6-0.2-0.9c0-0.1,0-0.2,0-0.3c0,0,0,0,0-0.1c0,0,0,0,0,0c0,0,0,0,0,0c0,0,0,0,0,0c0,0,0-0.1,0-0.1
						c0-0.2,0-0.3,0-0.5c0-0.2-0.2-0.4-0.4-0.4c-0.2,0-0.3,0.2-0.4,0.4c0,0.4,0,0.8,0,1.2C25.4,57.3,25.5,57.7,25.6,58.1z"/>
					<path class="st2" d="M26.1,56.3C26.1,56.3,26.1,56.3,26.1,56.3C26.1,56.3,26.1,56.3,26.1,56.3C26.1,56.3,26.1,56.3,26.1,56.3
						C26.1,56.3,26.1,56.3,26.1,56.3C26.1,56.3,26.1,56.3,26.1,56.3z"/>
				</g>
				<path style="clip-path:url(#SVGID_00000173152483614307629730000008991558023952738236_);fill:#F4D30F;" d="M51.2,76.1
					c0.2,1.8,1.4,3.2,1.2,3.8c0,0.1,0,0.1-0.1,0.2c-0.1,0.1-0.1,0.2-0.2,0.3c-0.1,0.3,0,0.4,0.2,0.5c0.1,0.1,0.1,0.1,0.3,0.1
					c0.1,0,0.1,0,0.2,0c0.7-0.1,1.4-0.6,1.9-1c1-0.8,1.8-2,2.1-3.2c0.3-1.4,0-2.8-0.8-4c-0.3-0.5-0.7-0.9-1.1-1.2
					C54.9,71.6,50.8,72.8,51.2,76.1z"/>
			</g>
		</g>
	</g>
	<g>
		<path class="st0" d="M36.2,118.6c0,1.8-1.5,3.2-3.5,3.2H28v-11.4h4.6c1.9,0,3.3,1.3,3.3,2.9c0,1-0.5,2-1.3,2.5
			C35.6,116.4,36.2,117.4,36.2,118.6z M32.5,112.2h-2.6v3h2.6c0.9,0,1.6-0.6,1.6-1.5C34,112.8,33.4,112.2,32.5,112.2z M34.3,118.4
			c0-0.9-0.7-1.6-1.7-1.6h-2.7v3.2h2.7C33.6,120,34.3,119.4,34.3,118.4z"/>
		<path class="st0" d="M49.4,117.3v4.6h-1.9v-4.6l-4.1-6.8h2l3,5.1l3-5.1h2L49.4,117.3z"/>
		<path class="st0" d="M71.3,118.3h1.9c0,1.3,1,2,2.4,2c1.2,0,2.2-0.6,2.2-1.7c0-1.1-1.2-1.4-2.6-1.7c-1.7-0.4-3.7-0.9-3.7-3.3
			c0-2.1,1.6-3.3,4-3.3c2.5,0,3.9,1.3,3.9,3.5h-1.8c0-1.1-0.9-1.8-2.1-1.8c-1.1,0-2.1,0.5-2.1,1.4c0,1.1,1.2,1.3,2.5,1.7
			c1.8,0.4,3.9,0.9,3.9,3.4c0,2.3-1.8,3.5-4.1,3.5C73,122,71.3,120.6,71.3,118.3z"/>
		<path class="st0" d="M97.3,110.5v11.4h-1.9v-5h-5.2v5h-1.9v-11.4h1.9v4.6h5.2v-4.6H97.3z"/>
		<path class="st0" d="M110.7,117.6h-2.2v4.2h-1.9v-11.4h4.4c2.2,0,3.8,1.5,3.8,3.6c0,1.6-0.9,2.8-2.3,3.3l2.6,4.5h-2.1L110.7,117.6
			z M108.6,115.9h2.5c1.2,0,2-0.8,2-1.8c0-1.1-0.8-1.8-2-1.8h-2.5V115.9z"/>
		<path class="st0" d="M130.5,120.1v1.8h-6.8v-11.4h6.6v1.7h-4.7v3h4.3v1.7h-4.3v3.2H130.5z"/>
		<path class="st0" d="M144.2,117.3v4.6h-1.9v-4.6l-4.1-6.8h2l3,5.1l3-5.1h2L144.2,117.3z"/>
		<path class="st0" d="M162.1,119.4h-5.1l-1,2.5h-2l4.6-11.4h1.8l4.7,11.4h-2L162.1,119.4z M157.7,117.7h3.8l-1.9-4.8L157.7,117.7z"
			/>
		<path class="st0" d="M172.2,118.3h1.9c0,1.3,1,2,2.4,2c1.2,0,2.2-0.6,2.2-1.7c0-1.1-1.2-1.4-2.6-1.7c-1.7-0.4-3.7-0.9-3.7-3.3
			c0-2.1,1.6-3.3,4-3.3c2.5,0,3.9,1.3,3.9,3.5h-1.8c0-1.1-0.9-1.8-2.1-1.8c-1.1,0-2.1,0.5-2.1,1.4c0,1.1,1.2,1.3,2.5,1.7
			c1.8,0.4,3.9,0.9,3.9,3.4c0,2.3-1.8,3.5-4.1,3.5C173.9,122,172.2,120.6,172.2,118.3z"/>
	</g>
</g>
</svg>
