<?xml version="1.0" encoding="UTF-8"?>
<svg id="Layer_2" data-name="Layer 2" xmlns="http://www.w3.org/2000/svg" viewBox="0 0 29.92 31.33">
  <defs>
    <style>
      .cls-1 {
        fill: #665e68;
      }

      .cls-2 {
        fill: #554e56;
      }

      .cls-3 {
        fill: #fec10c;
      }

      .cls-4 {
        fill: #fed201;
      }

      .cls-5 {
        fill: #060403;
      }

      .cls-6 {
        fill: #050402;
      }
    </style>
  </defs>
  <g id="Layer_1-2" data-name="Layer 1">
    <g>
      <path class="cls-6" d="M26.07,31.33h-9.44c-.25-.04-.55-.21-.32-.43-.26-.24.09-.51.36-.6h6.39c1.67-2.41,3.13-5.29,3.55-8.31.09-.3.51-.61.69-.28.22-.23.47.2.45.46-.22,2.83-1.84,5.7-3.24,8.1,0,.07,1.32,0,1.38-.01.2-.03.49-.18.59-.36,1.08-1.82,1.96-4.69,2.24-6.8.32-2.37.1-4.83-1.23-6.88-1.68-2.59-4.57-3.77-7.44-4.62-2.38-.86-6.09-2.21-6.21-5.14-.65,2.68,3.15,4.27,5.18,5.08,3.19,1.07,6.5,2.49,8.03,5.71.27.58.91,2.42.69,2.96-.08.19-.3.4-.46.21-.15.32-.58,0-.65-.3-.24-3.06-2.57-5.35-5.31-6.47l-3.53-1.35c-2.12-.92-5.23-2.55-5.21-5.2.03-2.72,3.39-4.86,5.5-6.08h-.61c-.26.05-.49.03-.67-.06-2.7,1.37-5.52,2.82-7.82,4.85-1.15,1.02-2.54,2.5-2.63,4.1-.09,1.54,1.05,2.64,2.21,3.49,2.39,1.45,4.89,3.44,4.77,6.52-.17,4.32-5.2,8.06-8.43,10.34h3.16s.07.13.07.13l.36-.12h6.13c.32.07.73.3.47.61.27.18-.1.41-.33.43H.74c-.41-.16-.69-.49-.74-.9-.05-.48.18-.82.59-1.07,2.63-1.59,5.75-3.71,7.74-6.06,1.46-1.72,2.49-3.9.91-5.93-1.48-1.9-3.19-2.04-4.73-4.06-.89-1.18-1.1-2.62-.54-3.99.71-1.73,2.2-3.05,3.67-4.17,1.07-.82,2.2-1.46,3.35-2.17,1.47-.89,2.89-1.75,4.44-2.49C15.97.25,16.5,0,17.11,0h3.68c.35,0,.55.37.58.63.03.35-.16.59-.47.75-1.63.8-3.72,1.94-4.98,3.24-.78.8-1.39,1.85-.72,2.92,1.13,1.79,4.69,2.95,6.66,3.58,4.18,1.33,7.46,4.12,7.98,8.68.41,3.56-.73,7.07-2.22,10.25-.32.68-.85,1.1-1.55,1.29Z"/>
      <path class="cls-1" d="M27.3,20.44l.1.08v1.09s-.09.11-.09.11c-.23-.09-.48.05-.57.31-.4,3.01-1.89,5.92-3.6,8.39h-6.39c-.27,0-.44.27-.44.48h-1.21c0-.26-.21-.48-.51-.48h-6.44c.15-.21.22-.32.22-.32,3.04-2.32,7.5-5.92,7.76-10.03.2-3.19-2.33-5.06-4.72-6.68-.86-.66-2.2-2.15-2.18-3.28,0-.07.05-.14.1-.2l.12-.12c.6.1.43-1.25.09-1.41l-.08-.14c-.04-.06-.07-.14-.06-.21.03-.2.36-.89.49-1.08l.19-.11c.05-.1.16-.13.31-.1.29-.22.88-.72.66-1.14l.07-.12s-.04-.04-.05-.07c-.04-.1.87-1.02,1.06-1.11.04-.02.09.04.13.07l.16.03c.34.43,1.32-.31.73-.68v-.13c-.05-.08-.08-.15,0-.2,1.14-.91,2.33-1.82,3.68-2.43.55-.1,1.11-.06,1.73-.04-1.94,1.08-4.42,2.63-5.44,4.65-.6,1.19-.49,2.5.3,3.57,1.25,1.69,3.68,2.79,5.62,3.52l2.23.84c1.19.44,2.22,1.12,3.17,1.97,1.34,1.21,2.17,2.79,2.34,4.59.03.29.31.45.54.38Z"/>
      <path class="cls-2" d="M16.81.97c-1.19.77-2.39,1.53-3.51,2.44-.08.07-.14.12-.17.19l-.06.11c-.45.04-.55.21-.73.56-.02.05-.06.08-.1.12-.23.06-.95.88-1.14,1.1l-.06.06c-.47-.24-1.37.75-.95,1.16l-.04.13c-.22.46-.47.91-.62,1.4l-.06.12c-.49.14-.31,1.1-.05,1.4l-.02.13c.16,1.78,1.67,3.11,3.1,4.06,1.03.68,1.94,1.44,2.67,2.41,1.93,2.55,1.24,5.35-.44,7.8-1.67,2.45-4.16,4.5-6.51,6.23h-3.66c2.58-1.73,5.32-3.84,7.1-6.35,2.26-3.18,2.29-6.23-.74-8.88-1.43-1.25-2.77-1.62-3.91-3.12C3.63,7.7,12.83,2.84,15.81,1.35c.34-.17.65-.31,1-.38Z"/>
      <path class="cls-4" d="M27.3,21.72c-.09-.02-.06-1.28,0-1.28.22-.03.39-.21.37-.43-.15-1.81-.91-3.46-2.16-4.76-1.53-1.59-3.45-2.48-5.5-3.2-1.91-.67-4.47-1.73-5.76-3.3-.69-.85-.86-1.99-.2-2.92-.32,1.72.57,2.74,1.83,3.67,1.67,1.16,3.67,1.85,5.61,2.47,1.41.45,2.72,1.05,3.91,1.91,5.36,3.86,3.79,10.93,1.28,15.98-.17.34-.55.56-.91.56h-1.51c1.6-2.46,2.98-5.26,3.37-8.17.03-.25-.1-.47-.33-.52Z"/>
      <path class="cls-3" d="M1.01,30.41c-.09,0-.08-.12-.07-.15.01-.03.04-.05.1-.09,2.78-1.72,6.11-3.93,8.17-6.48,1.59-1.96,2.52-4.38.93-6.66-.53-.76-1.17-1.39-1.95-1.9l-1.4-.93c-1.46-.96-2.72-2.58-2.01-4.42.23-.48.38-1,.86-1.39-1.13,2.9.72,4.91,3.02,6.33,2.39,1.47,4.37,3.67,3.34,6.68-1.27,3.69-6.02,7-9.25,9h-1.75Z"/>
      <path class="cls-6" d="M13.56,13.09c.48.23,1.11.46.86.97s-.88.05-1.25-.14c-.25-.12-.33-.39-.23-.61s.37-.33.62-.21Z"/>
      <path class="cls-6" d="M17.11,14.93c.22.13.29.39.2.6-.11.24-.4.35-.64.2l-.65-.39c-.21-.13-.27-.39-.17-.59s.37-.32.62-.2c.23.11.43.25.65.39Z"/>
      <path class="cls-6" d="M9.45,8.25c.28.01.44.25.44.49,0,.51.19.87-.12,1.09-.13.09-.3.09-.45.08-.33-.21-.34-.76-.35-1.17,0-.27.22-.5.48-.49Z"/>
      <path class="cls-6" d="M19.64,17.32c.14.23.03.5-.16.61-.21.12-.48.07-.63-.15-.29-.42-.75-.78-.38-1.16.15-.15.44-.2.64,0s.38.44.54.71Z"/>
      <path class="cls-6" d="M20.51,20.61c-.02.3-.23.47-.48.46-.22,0-.43-.19-.43-.46v-.73c0-.27.19-.45.43-.47s.46.15.49.43c.02.25.02.49,0,.77Z"/>
      <path class="cls-6" d="M11.11,5.49c.16.25.15.5-.04.71l-.48.57c-.13.16-.36.1-.53.08-.24-.21-.29-.52-.09-.76.17-.21.32-.44.53-.62.18-.15.42-.08.6.01Z"/>
      <path class="cls-6" d="M17.46,26.51c-.19.22-.47.26-.67.11s-.25-.46-.06-.68l.49-.55c.18-.2.46-.19.65-.03s.21.45.03.65l-.44.5Z"/>
      <path class="cls-6" d="M19.79,23.17c-.18.46-.47,1.13-.96.91-.22-.1-.34-.38-.21-.62l.36-.67c.12-.23.39-.28.57-.2.23.1.34.35.25.59Z"/>
      <path class="cls-6" d="M11.08,11.28c.37.37.9.66.57,1.1-.13.18-.43.24-.64.07s-.41-.36-.6-.56c-.18-.19-.15-.49.04-.65.17-.15.45-.15.64.03Z"/>
      <path class="cls-5" d="M13.13,3.6c.24.08.34.3.31.52-.03.28-.6.62-.87.56-.14-.04-.26-.15-.33-.29-.16-.49.62-.87.89-.79Z"/>
      <path class="cls-6" d="M15.7,27.93c.04.35-.53.8-.88.71-.14-.04-.3-.18-.32-.4-.04-.32.53-.79.86-.71.17.04.32.19.34.4Z"/>
    </g>
  </g>
</svg>