<?xml version="1.0" encoding="UTF-8"?>
<svg id="Layer_2" data-name="Layer 2" xmlns="http://www.w3.org/2000/svg" viewBox="0 0 52.84 26.68">
  <defs>
    <style>
      .cls-1 {
        fill: #070707;
      }

      .cls-2 {
        fill: #efc868;
      }

      .cls-3 {
        fill: #d5ac51;
      }

      .cls-4 {
        fill: #f1c968;
      }

      .cls-5 {
        fill: #a0bf32;
      }
    </style>
  </defs>
  <g id="Layer_1-2" data-name="Layer 1">
    <g>
      <path class="cls-1" d="M52.28,26.68H.56c-.31,0-.46-.2-.53-.38-.08-.21-.02-.43.13-.65l6.34-9.48,2.74-.07,3.68-5.5,3.24-.07L23.24.57c.14-.19.27-.29.44-.29.18,0,.34.04.49.22l7.69,9.19,3.67.06,4.94,5.21,4.2.04,8.1,10.77c.14.18.08.47.01.6-.07.15-.22.31-.49.31Z"/>
      <path class="cls-1" d="M15.96,9.17c-.23.32-.52.35-.75.22s-.38-.54-.18-.82l3.97-5.6c.18-.25.56-.19.74-.02.2.19.24.54.03.83l-3.81,5.38Z"/>
      <path class="cls-1" d="M20.87,2.24c-.19.28-.51.27-.71.16-.72-.42.32-1.52.81-2.2.17-.24.48-.24.7-.11.69.42-.32,1.47-.8,2.16Z"/>
      <path class="cls-5" d="M15.69,20.55c.49.47.58,2.63,1.38,2.55.25-.03.44-.22.47-.54.19-2.06.02-4.11.31-6.16.14-1,.93-1.82,1.25-2.87.48.99.67,1.97,1.06,2.97.11.28.32.41.59.38.25-.03.45-.26.45-.62l-.1-6.9,2.81-7.41,7.21,8.61.72,5.3c-.72-.23-2.03-2.24-2.44-.79l-.42,5.16-4.21,5.3h-11.36s2.28-4.97,2.28-4.97Z"/>
      <path class="cls-5" d="M51.14,25.5h-18.27s.67-4.81.67-4.81l1.34-1.48,2.41,2.88c.14.17.4.17.58.1.15-.05.36-.29.31-.58l-1.89-9.38c1.17,1.32,2.52,2.32,3.44,3.72,1.44,2.2,2.38,4.69,3.71,6.96.18.3.32.49.65.38.25-.09.44-.32.39-.67l-.85-6.39c.26-.21.51-.1.7.15l6.8,9.11Z"/>
      <path class="cls-4" d="M20.04,11c-.05.52.1,1.05-.03,1.65-.15-.33-.16-.66-.37-1-.17-.27-.73-.32-.88.06-.61,1.47-1.48,2.8-1.97,4.34-.35,1.08.03,2.31-.25,3.36-.19-.53-.27-1.13-.83-1.03-.14.02-.3.13-.39.33l-3.12,6.81-7.99-.02-.13-.2c1.71-2.63,3.44-5.25,5.17-7.87l.33-.13c.19-.15.51-.35.67-.6l.3-.23c.72,0,1.43-.01,2.14-.07l3.01-4.5c.25-.11.51-.18.8-.2.2-.11.52-.33.68-.57l.26-.21c.72,0,1.43-.02,2.15-.07.2-.44.42-.3.45.14Z"/>
      <path class="cls-4" d="M31.77,25.49l-5.52.02,3.72-4.82.45-4.41,1.86,1.46c.19.15.41.12.55.04.19-.11.32-.32.28-.6l-.85-6.27h2.59s1.78,8.57,1.78,8.57c-.52-.24-1.46-2.33-2.11-1.55-.6.73-1.4,1.39-1.94,2.19l-.82,5.37Z"/>
      <path class="cls-3" d="M9.58,17.3l-5.37,8.2c-.81,0-1.61.09-2.58-.01l5.45-8.18h2.51Z"/>
      <path class="cls-3" d="M16.49,11.7c-.11.06-.36.12-.51.16l-3.22,4.82-2.52.02,3.23-4.97,3.01-.03Z"/>
      <path class="cls-3" d="M20.04,11c-.07-.04-.08-.21-.15-.23-.07-.02-.11.28-.16.29-.86.15-1.72.03-2.56.06,1.31-2.03,2.74-3.95,4.25-6.04-.24,1.47-1.03,2.65-1.36,4.05-.15.63.03,1.27-.03,1.86Z"/>
      <path class="cls-2" d="M42.53,16.16c.12,1.09.37,2.13.37,3.26l-1.7-3.23c.43-.11.81-.06,1.33-.04Z"/>
    </g>
  </g>
</svg>