<?xml version="1.0" encoding="utf-8"?>
<!-- Generator: Adobe Illustrator 30.1.0, SVG Export Plug-In . SVG Version: 9.03 Build 0)  -->
<svg version="1.1" id="Isolation_Mode" xmlns="http://www.w3.org/2000/svg" xmlns:xlink="http://www.w3.org/1999/xlink" x="0px"
	 y="0px" viewBox="0 0 384 384" style="enable-background:new 0 0 384 384;" xml:space="preserve">
<style type="text/css">
	.st0{fill:#161616;}
</style>
<g>
	<path class="st0" d="M155,213.6c-0.1-2.5-2-5.5-5.2-5.5L101,208l0-12l108.6-0.1c3.4,0,5.2-3.1,5.3-5.6c0.2-2.9-1.4-5.6-4.5-6.2
		c-2.5-0.5-4.8,0-7.4-0.2l0-23.9l12.8-0.1c3.5,0,5.4-3.2,5.2-6.3c-0.1-2.5-1.9-5.6-5.3-5.6l-96.6-0.1c-3.7,0-6-2.5-6-6
		c0-2.1-0.2-3.9,0.1-6l108.5-0.1c3.7,0,5.4-3.4,5.3-6.3c-0.1-2.5-1.9-5.6-5.3-5.6L113,124l0-101.9c0-3.7,2.4-6,6.1-6.1l191.7,0
		c3.8,0,6.1,2.5,6.1,6l0.1,78.6c0,3.6,3.4,5.4,6.3,5.3c2.5-0.1,5.6-1.9,5.6-5.3l-0.1-79.4c0-9.4-7.6-17.2-17.2-17.2l-193.3,0
		c-9.5,0-17.3,7.8-17.3,17.2l0,121.4c0,9.6,7.8,17.2,17.2,17.2L191,160l0,24l-102,0l0-66c0-3.6-2.5-6-6-6l-48,0c-3.6,0-6,2.5-6,6
		c0,2.1,0.1,3.9-0.1,6l-12,0c-7,0-12,5.8-12,12.7l0,22.6c0,7.3,5.4,12.8,12.8,12.8l11.3,0l0,12l-18,0c-3.4,0-6,2.3-6,6.1l0,180.5
		c0,3.8,3.5,5.5,6.3,5.3c2.9-0.1,5.2-1.8,5.7-5.3L17,220l72,0l0,150.6c0.5,3.7,3.1,5.5,6.4,5.3c2.4-0.1,5.6-1.8,5.6-5.3L101,220
		l48.7,0C153.3,219.5,155.1,216.8,155,213.6z M41,124l36,0l0,59.9L41,184L41,124z M17,160l0-24l12,0l0,23.9L17,160z M88.9,208
		l-71.9,0l0-12l71.9,0L88.9,208z"/>
	<path class="st0" d="M371,184l-15.2-0.1l7.3-45.2c1.6-10-6.3-20.6-16.9-20.6l-91.5-0.1c-7.8,0-15.3,5.6-16.5,13.2l-13,76.6
		l-41.7,0.2c-14,0.1-24.9,10.8-27.4,24.3l-7,45.9c-1.6,10.9,7.3,19.6,17.9,19.6l54,0l0,24l-30.8,0.1c-11,0-19.9,7.9-22.7,18.6
		c-8.8,3-13.5,11.1-12.4,19.9c1.1,8.6,8.2,15,16.8,15.4c8.9,0.5,16.6-5.2,18.6-13.6c2-8.8-2-17.2-10.4-21.2c2.4-4.6,6.2-7.1,11-7.1
		l95.1-0.1c5.3,0,9.6,2.5,11.8,7.3c-8.5,3.8-12.4,12.4-10.4,21.1c1.9,8.4,9.7,14.1,18.6,13.6c8.6-0.4,15.7-6.8,16.8-15.4
		c1.1-8.8-3.6-16.9-12.4-19.9c-2.7-10.4-11.1-18.5-22.2-18.5L257,322l0-24l60,0c13.3,0,23.8-10.7,23.9-23.9c0-4,1.1-7.2,1.8-11
		l7.2-42.9l15.1,0l0.1,150.6c0,3.7,3.5,5.5,6.3,5.3c2.5-0.1,5.6-1.8,5.6-5.4l0-180.5C377,186.3,374.5,184,371,184z M175.3,363.6
		c-2.9,1-6.3,0.1-7.7-2.8c-1.3-2.8-0.6-7.1,3-8.3c3.6-1.2,6.9,0.3,7.9,3.2C179.7,358.8,178.5,362.5,175.3,363.6z M302.7,352.5
		c3.6-1.2,6.9,0.3,7.9,3.2c1.1,3.1-0.1,6.8-3.3,7.9c-2.9,1-6.3,0.1-7.7-2.8C298.3,358,299,353.8,302.7,352.5z M168.8,233.8
		c1.5-9,9.4-14.6,18.5-13.8l35.9,0l-6.9,41.8l-52.2,0.1L168.8,233.8z M233,322l0-24l12,0l0,23.9L233,322z M350.5,136.8l-20.4,124.6
		c-0.8,4.8-0.9,8.6-1.2,13.4c-0.4,5.6-4.9,11.1-11.6,11.1l-150.9,0c-3.5,0-5.2-3.1-5.3-5.6c-0.1-3,1.7-6.3,5.2-6.3L221,274
		c3.3,0,5.6-2,6.1-5.3l22-133.8c0.5-3.3,3.2-5.5,6.5-5.5l89,0.1C348.6,129.5,351.2,133.1,350.5,136.8z M352,208l1.8-12l11.2,0l0,12
		L352,208z"/>
	<path class="st0" d="M41.8,90.2c-1.9,3.2-0.1,7.7,2.7,8.7c3.9,1.4,6.4-0.7,8.3-4.2c4.6-8.3,4.4-16.9-0.8-24.6
		c-5.7-8.2-6.8-11.9-0.7-19.9c2.3-3,2-7.5-1.1-9.4c-2.9-1.8-6.7-0.6-8.7,2.4c-8.2,12-8.5,20.7,0,32.9C44.7,80.9,44.6,85.5,41.8,90.2
		z"/>
	<path class="st0" d="M165,29.6c-2.5-2.3-6-2-8.6,0.6l-29.2,29.2c-2.6,2.6-2.9,6.1-0.5,8.7c2,2.2,5.7,2.9,8.4,0.3l29.8-29.7
		C167.6,35.8,167.6,32,165,29.6z"/>
	<path class="st0" d="M150.4,72.2l-23.2,23.2c-2.6,2.6-2.9,6.1-0.5,8.7c2,2.2,5.7,2.9,8.4,0.3l23.8-23.7c2.8-2.7,2.7-6.6,0.1-9
		C156.4,69.3,153,69.6,150.4,72.2z"/>
	<path class="st0" d="M66.8,89.4c-0.9,3.3-2.6,6,0,8.7c2,2.1,5.6,2.6,8.2,0.6c8.4-6.4,3.5-16.3,0.4-23.3c-1.1-2.4-0.4-4.6,1.4-6.4
		c2.7-2.6,2.5-6.5,0-8.8c-2.7-2.4-6.2-1.8-8.8,0.8C56,72.7,67.9,85.3,66.8,89.4z"/>
	<path class="st0" d="M180.4,42.2l-11.2,11.2c-2.6,2.6-2.8,6.1-0.5,8.6c2,2.2,5.8,2.9,8.4,0.3l11.8-11.8c2.7-2.7,2.7-6.6,0.1-9
		C186.5,39.3,182.9,39.6,180.4,42.2z"/>
</g>
</svg>
