<?xml version="1.0" encoding="utf-8"?>
<!-- Generator: Adobe Illustrator 30.1.0, SVG Export Plug-In . SVG Version: 9.03 Build 0)  -->
<svg version="1.1" id="Isolation_Mode" xmlns="http://www.w3.org/2000/svg" xmlns:xlink="http://www.w3.org/1999/xlink" x="0px"
	 y="0px" viewBox="0 0 384 384" style="enable-background:new 0 0 384 384;" xml:space="preserve">
<style type="text/css">
	.st0{fill:#030303;}
</style>
<g>
	<path class="st0" d="M372.2,210.2c-9-0.6-18-0.8-27.1-0.5c-4.6,1.3-5.5,2.6-6.3,7.1l0,81.1c1.7,5.7-14,5.1-14.5,4.4l0-16.3
		c-1.2-8.6-7.1-13.4-15.8-12.5c6.9-12.8,5.4-28.5-5.9-38.4c13-8.3,18.9-23.7,13.3-38.5c29.5-5.5,50.4-34.1,43.5-63.9l-7.2-29.1
		l16.9-4.7c3.5-2.3,3.9-4.2,3.6-8.2c-0.5-5.5-5.9-23.2-7.9-28c-7.3-17.7-18.8-31.8-35-42C308.1,7,288.2,6.9,263.6,9.5l-91.3,23.1
		l-4.1-15.2c-2.1-4.4-3.4-5.5-8.4-5.3l-45.3,11.6c-3.7,1.7-5.2,2.9-5.4,7.3l4,16.6C77.9,57.1,42.5,66.3,7,75.3
		c-1.7,0.7-2.7,2.3-3,4.6v4.3c1.7,3.6,2.1,7.8,3.4,11.9c3.5,11.2,11.9,19.4,22.9,23.1c1.5,37,15.1,86.8,37.9,115.9
		C74.4,243.1,86,253.8,97,251l127.6-32.6c1.9,16.4,14.4,28,31.1,27.4c-4,9.9-3,20.1,3.1,28.4c-0.9,0.8-2.1,0.7-3.4,0.6
		c-6.8-0.7-13.4,3.7-13.6,10.8c-0.2,6.3-0.2,12.5,0,18.9c0.3,7.4,7.3,11.8,14.4,10.8c1-0.1,2.6-0.2,2.8,0.4c0.2,0.6,0.2,1.6,0.1,2.5
		c-1.3,17.2,11.6,31.9,28.9,31.9l40.6,0l0.1,23.9c0,2.5,2.3,3.6,3.7,5.1h38.9c1.3-1.2,2.6-2.4,3.7-3.7V214.7
		C374.7,212.5,373.8,211,372.2,210.2z M157,26.3l2.9,11l-33.5,8.7l-2.9-11.2L157,26.3z M105,221.4c-0.9,5.1-2.4,10-5.1,14.3
		c-2.5,4-6.8,5.1-10.9,2.7c-4.5-2.5-8.2-6.2-11.4-10.3c-21-26.7-33.6-72.9-35.4-107.1l11.4-2.2c1.7,32.1,12.2,71.5,30,98.1
		c1.6,2.4,4.1,3.4,6.9,2.6c2.2-0.6,3.9-2.8,4.1-5.7c2.6-32.6-7-71-21.1-100.2c4-1.3,7.2-2.1,11.4-2.9
		C99.4,141.2,110.7,188.2,105,221.4z M65.8,125.2c9.6,21.4,15,43.3,17,66.5C73.4,170.6,67.5,148.1,65.8,125.2z M158.3,222.9
		l-44.7,12c3.6-11.9,4.7-23.1,4.5-35.6c-1.1-31.8-8.8-62.6-21.9-91.6l50.3-12.9c12.9,27.6,20.1,56.5,21.8,86.3
		C169.2,189.1,167,220.6,158.3,222.9z M175.1,219.1c12-36.7-1.1-92.5-17.1-127c3.2-1.3,6.4-2,9.8-2.8c12.1-2.8,24.3,4.4,27.5,16.5
		c5,18.7,23.6,30.1,42.5,25.2l40.2-10.4c3.3-0.8,4.6-4.3,3.9-7c-0.8-2.8-3.7-4.9-7-4l-40.3,10.3c-12.5,3.2-24.7-4.4-28.1-16.8
		c-5-18.4-23.5-29.7-42.2-24.9L46.6,108.4c-14.6,3.7-28.1-6.7-29.5-22.4l248.2-63.5c40.2-10.3,80.6,15.8,90.5,55.4l2.6,10.2
		l-27.3,7.1c-3.4,0.9-5.1,4.1-4.3,7.1c0.9,3.2,3.9,4.9,7.4,4.1c1.5-0.4,2.9-0.9,4.7-1l7,26.8c5.7,21.7-6.4,44.6-28.5,50.3
		L175.1,219.1z M258.7,233.5c-10.4,2.7-20-3.7-22-13.8c-0.3-1.5-1.1-2.6-0.7-4.3l66.5-17c1.3,1.2,1.1,2.6,1.6,4
		c3.2,9.8-2.1,20.1-12.2,22.7L258.7,233.5z M285.9,274.4c-9.2,2-18.2-3.7-20.5-12.8c-2.3-9.1,3.2-19,13.2-21.1
		c9.8-2.1,18.7,4.3,20.6,13.3C301.3,263.1,295.2,272.3,285.9,274.4z M253.3,303.8l0-17.4l57.9,0l0,17.4L253.3,303.8z M340.2,367.5
		l0-17.4l23.2,0l0,17.4L340.2,367.5z M288.1,338.5c-9.5,0-16.9-7.3-17.5-16.8l0.1-6.3l63.7,0c9.7,0,17.3-7.7,17.4-17.4l0-75.3
		l11.6,0l0,115.9L288.1,338.5z"/>
	<path class="st0" d="M309.8,100.7l-11.2,2.8c-3.5,0.9-5.4,4.1-4.4,7.4c0.8,2.7,3.8,4.7,7.4,3.8l11.3-3c3.2-0.8,4.7-4.1,4-6.9
		C316.1,101.8,313.1,99.9,309.8,100.7z"/>
	<path class="st0" d="M280,252.1c-3.5,1.4-4.3,5.3-2.9,8c1.4,2.6,4.5,3.8,7.3,2.6c2.9-1.2,4.3-4.6,3.1-7.5
		C286.5,252.5,283.4,250.8,280,252.1z"/>
</g>
</svg>
