<?xml version="1.0" encoding="utf-8"?>
<!-- Generator: Adobe Illustrator 30.1.0, SVG Export Plug-In . SVG Version: 9.03 Build 0)  -->
<svg version="1.1" id="Isolation_Mode" xmlns="http://www.w3.org/2000/svg" xmlns:xlink="http://www.w3.org/1999/xlink" x="0px"
	 y="0px" viewBox="0 0 384 384" style="enable-background:new 0 0 384 384;" xml:space="preserve">
<style type="text/css">
	.st0{fill:#030303;}
</style>
<g>
	<path class="st0" d="M98.2,148.5l115,0c5.6,0,10.1-4.4,10.1-10.1l0-113.4c0-5.6-4.6-9.7-10.1-9.7l-115,0c-7,0-11.2,5.5-10.5,12.3
		l-19.3,0.1c0-3.9,0-7.1-1.4-10.4C63.1,8.5,55,2.7,45.4,4.3c-8.7,1.5-16.2,8.8-16.2,18.6l0,198c0,3.5,2.5,5.7,5.3,5.7
		c3,0,5.5-2,5.5-5.7l0-197.4c0-5.1,3.6-8.6,8.1-8.7c4.7-0.2,8.7,3.4,8.7,8.8l0,306.7c-5.6,0.4-11.1,0.3-16.8,0.1l0-84.2
		c0-3.5-2.4-5.7-5.6-5.7c-2.8,0-5.2,2.3-5.2,5.7l0,83.3c0,3.2-18.8-4.7-26.8,17.3v18.7c0.5,4.6,2,6,6.6,6.5h79
		c3.8-1.8,6.6-4.6,6.6-9.3l0-10.8c0-12.7-10.3-22.2-23-21.2c-1.2,0.1-2.5,0.2-3.1-1.1l0-193.3l19.3-0.1
		C87,142.8,91.1,148.5,98.2,148.5z M212.5,26.1l0,111.6l-114,0l0-111.7L212.5,26.1z M74,341.5c5.4,0,9.5,4.5,9.6,9.6
		c0.1,3.3,0.2,6.1-0.1,10.1l-70.2,0c-0.4-3.3-0.1-6.1-0.2-9.4c-0.1-5.4,3.9-10.3,9.7-10.3L74,341.5z M68.4,64.4l19.2,0l-0.1,34.8
		l-19.1,0L68.4,64.4z M68.5,125.3l-0.1-15.1l19.1,0.1l0.1,14.9L68.5,125.3z M68.5,53.6l0-15.1l19.1,0l0.1,14.8L68.5,53.6z"/>
	<path class="st0" d="M354.4,209.1l-20.2,0c-3.2-5.3-5.2-11-8.3-16.3l-5.3-9.2c-3.9-6.8-10.7-10.4-19-10.4l-114.9,0
		c-9.2,0-16.5,4.1-20.4,12.1L154.8,209l-22.1,0.2c-12,0.1-21.1,10.1-21.3,21.6c-0.2,11.9,8.8,21.8,21.5,22.6l-7.9,16.9
		c-1.3,2.9-1.9,5.8-1.9,9.1l0.1,55.2c0,4,2.1,7.2,5.5,9l0.3,16.3c0.1,3.5,1.6,6.2,3.9,8.3c2.8,2.6,6.6,3.9,10.5,3.9h23.7
		c3.9,0,7.7-1.3,10.5-3.9c2.3-2.1,3.9-4.8,3.9-8.3l0.2-15.3l50.5-0.2c3.4,0,5.1-3.8,4.6-6.2c-0.6-3.1-3-4.5-6.3-4.5l-96.5,0l0.6-57
		c1.9-8.2,7.6-15.3,10.5-23.4l198.2,0c2.8,8.4,8.8,15.4,10.5,23.8l0.5,56.6l-97.6,0.1c-3.5,0-5.4,3.4-4.9,6.2
		c0.4,2.6,2.7,4.5,5.8,4.5l48.9,0.1c0.8,11-2,18.7,4.9,24.3c2.7,2.2,6.2,3.3,9.7,3.3h26.8c0.6,0,1.1,0,1.7-0.1
		c7.6-0.9,10.5-6.2,11.2-13.4l-0.1-14.3c3.5-1.1,5.4-5.2,5.8-8.7l0.1-58.5c-2-7.6-4.9-14.9-8.7-22c9.7-2.7,19-7.5,19.9-19
		C377.4,236,381.6,209.6,354.4,209.1z M136.2,344.3h38v13.3c0,3.9-3.1,7-7,7h-24c-3.9,0-7-3.1-7-7V344.3z M352.8,357.4
		c0,3.9-3.1,7-7,7h-24c-3.9,0-7-3.1-7-7v-13.3h38V357.4z M136,245.2c0,0-19.7-0.9-15.7-18.5c3.3-14.1,30.1-9.8,30.1-9.8L136,245.2z
		 M150.7,242.5c-0.4-2.5,1.8-3.7,2.7-5.7l21.9-45.6c2.3-4.8,5.8-7.4,11.5-7.4l114.1,0c5.6,0,9.4,2.3,11.5,7.3l13.2,26.3l12.1,25
		L150.7,242.5z M352.8,245.6l-14.4-28.2c0,0,26.8-4.3,30.1,9.8C372.6,244.7,352.8,245.6,352.8,245.6z"/>
	<path class="st0" d="M325.8,311.9c6.8-4,10.7-11.4,10.6-19.2c-0.1-7.6-3.9-15.1-11.1-19.1c-10.6-5.9-22.7-3.7-29.8,5
		c-7.1,8.7-6.7,21.1,0.5,29.2C303.7,316.4,315.7,317.8,325.8,311.9z M313.6,278.6c8,0,14.5,6.5,14.5,14.5c0,8-6.5,14.5-14.5,14.5
		c-8,0-14.5-6.5-14.5-14.5C299.1,285.1,305.6,278.6,313.6,278.6z"/>
	<path class="st0" d="M156.9,278.6c-7.1,8.7-6.7,21.1,0.5,29.2c7.7,8.6,19.6,10,29.7,4.1c6.8-4,10.7-11.4,10.6-19.2
		c-0.1-7.6-3.9-15.1-11.1-19.1C176.1,267.7,164,269.9,156.9,278.6z M174.6,307.2c-8,0-14.5-6.5-14.5-14.5c0-8,6.5-14.5,14.5-14.5
		c8,0,14.5,6.5,14.5,14.5C189.1,300.7,182.6,307.2,174.6,307.2z"/>
	<path class="st0" d="M211,310.6c0.3,2.9,2.6,4.9,5.9,4.9l55.1-0.1c3.7,0,5.5-3.4,5.1-6.1c-0.3-2.5-2.5-4.7-5.5-4.7l-55.2,0
		C212.8,304.8,210.7,307.8,211,310.6z"/>
	<path class="st0" d="M216.9,291.2l55-0.1c3.5,0,5.3-3.1,5.2-5.6c-0.1-2.4-2.1-5.1-5.1-5.1l-55.7,0c-3.5,0-5.6,3-5.3,5.8
		C211.2,289.2,213.6,291.2,216.9,291.2z"/>
	<path class="st0" d="M134.4,126.9c3,0,5.4-2.3,5.4-5.7l0.1-28.8l19.9-0.3c14.9-0.2,26-13.7,25.8-28.1
		c-0.2-14.6-11.9-27.2-26.9-27.3l-24.4-0.1c-2.8,0-5.3,2.4-5.3,5.4l0,79C129,124.7,131.5,126.9,134.4,126.9z M158.2,47.6
		c9,0.4,16.7,7.6,16.6,17.1c-0.1,8.6-6.8,15.6-15,16.6c-6.6,0.8-13,0.1-19.7,0.3l-0.1-34C146.1,47.5,151.9,47.3,158.2,47.6z"/>
</g>
</svg>
