<?xml version="1.0" encoding="utf-8"?>
<!-- Generator: Adobe Illustrator 30.1.0, SVG Export Plug-In . SVG Version: 9.03 Build 0)  -->
<svg version="1.1" id="Isolation_Mode" xmlns="http://www.w3.org/2000/svg" xmlns:xlink="http://www.w3.org/1999/xlink" x="0px"
	 y="0px" viewBox="0 0 74.9 74.9" style="enable-background:new 0 0 74.9 74.9;" xml:space="preserve">
<style type="text/css">
	.st0{fill:#FFFFFF;}
</style>
<g>
	<path class="st0" d="M72.9,54.3l-1.2,9.8c-0.5,4.2-2.6,7.5-6.8,8.7c-1.8,0.5-3.5,0.5-5.3,0.3c-7.7-0.7-15.3-2.6-22.3-5.9
		C23.8,61,13.1,50.1,7.2,36.4c-2.9-6.7-4.6-13.8-5.3-21c-0.1-1.7-0.2-3.3,0.1-4.9c0.5-2.7,2.2-4.7,4.7-5.8c1.9-0.8,3.8-1.3,5.9-1.5
		l8.1-0.9c2.5-0.3,4.6,1.5,5.1,3.8l2.9,13.5c0.4,1.9-0.1,3.5-1,5l-4.4,7.3c-0.7,1.2-0.5,2.4,0.1,3.6c3.6,7.4,9.4,13.4,17,16.8
		c0.8,0.4,1.9,0.2,2.7-0.2l7.7-4.7c1.3-0.8,2.8-1.4,4.4-1.1l13.9,3C71.5,49.7,73.3,51.8,72.9,54.3z"/>
</g>
</svg>
