<?xml version="1.0" encoding="utf-8"?>
<!-- Generator: Adobe Illustrator 30.1.0, SVG Export Plug-In . SVG Version: 9.03 Build 0)  -->
<svg version="1.1" id="Isolation_Mode" xmlns="http://www.w3.org/2000/svg" xmlns:xlink="http://www.w3.org/1999/xlink" x="0px"
	 y="0px" viewBox="0 0 384 384" style="enable-background:new 0 0 384 384;" xml:space="preserve">
<style type="text/css">
	.st0{fill:#020202;}
	.st1{fill:#010101;}
</style>
<g>
	<path d="M366.9,190.4l-32.9-0.1l-0.1-14.8c-0.1-9.5-15.4-4.1-23.4-5.8c-1.3-6.3,2.9-19.3-5.4-19.4l-23.4-0.2
		c-0.5-3.4-0.6-6.2,0.1-9l85.1,0c3.5,0,5.5-2.6,5.5-6l0-120.9c0-3.3-1.9-5.7-5.6-5.7l-326.3,0c-3.6,0-5.4,2.6-5.4,5.6l0.2,27.1
		l77.7,70.9c0.8,0.7,2.2,4,0.7,4l-96.3,0.2c-3.3,0-5.9,1.8-5.9,5.5l0,165.9c0,3.1,2.4,5.1,5,5.2l21.1,0.4l0,54l-22.1,0.1
		c-3.5,0-6.3,1.9-6.3,5.6l0,19.2c0,3.1,1.9,5.7,5.6,5.7l352,0c3.7,0,5.6-2.3,5.6-6.3l0-175.4C372.3,192.6,370,190.4,366.9,190.4z
		 M361.7,200.8l0.2,38.8l-66.4,0.1l0-38.7L361.7,200.8z M361.9,346.7c-6.5,1-12.8,0.4-19.4,0.3l0-96.6c6.6-0.3,12.8-0.3,19.3,0
		L361.9,346.7z M235.1,296.2c1.9,0,3.8-2.4,3.8-4.3l0.3-29.1l24-0.1c3.1,0,5.6-2.1,5.6-5.4l0.2-31.7l15.9,0l0.2,18.9
		c0,3.4,2.3,5.6,5.7,5.7l22.1,0.1l-102.4,76.5l-0.4-30L235.1,296.2z M210,141.5c5.2-0.6,9.9-0.2,15.5-0.2l59.5,56.5l0,17.1
		l-20.9,0.2c-2.7,0-5.5,1.6-5.6,5.1l-0.1,31.9l-24.1,0.3c-3.5,0-5.6,2.6-5.6,6l-0.1,27.6l-18.5-0.1L210,141.5z M210.3,339.9
		l121.5-90.6l0.3,97.9l-121.7,0C209.7,344.6,209.9,342.7,210.3,339.9z M299.8,160.9c1.2,6.6-3.1,19.4,5.6,19.5l17.8,0.2
		c0.3,3.3,0.3,6.2,0.1,9.7l-31,0.1l-51.3-48.9l29.7-0.2l0.1,14c0,2.4,1.7,5.2,4.3,5.3L299.8,160.9z M315.8,77.8
		c1.4,2.1,4.6,3,7.1,1.4l38.7-24.3l0.3,22.6l-21.2,14.3c-2.4,1.6-2.8,4.4-1.7,6.8c4.2,8.4,16.5-6,22.6-7.9c0.3,5.1,0.4,9.7,0,15
		l-117,0l0-28.1L273.3,59c2.7-1.7,3.3-5.1,1.6-7.5c-1.5-2.3-4.8-2.9-7.5-1.1L244.7,65L244.6,40l118.6,0.4l-46.1,30.3
		C314.5,72.4,314.3,75.5,315.8,77.8z M114.2,38.9L114,98.8l-68.3-62c-0.5-6.1-0.5-11.8,0-17.9l315.6,0c1.1,3.2,0.6,6.3,0.3,10.7
		l-122.2,0.1c-3.4,0-5.3,2.5-5.3,5.6l0,75.1c0,3.1,2,5.7,5.4,5.7l122.1,0c0.7,4.6,0.3,8.6,0.3,14.6l-151.7,0.1L210,38.9
		c0-3.4-2.4-5.3-5.6-5.4l-85.2,0C116.2,33.8,114.2,35.9,114.2,38.9z M181.5,116.1l-56.9,0l0-72.1l75,0.1l0,303l-74.9,0.1l-0.1-54.4
		l58,0c3.3-0.3,5.2-2.1,5.4-5.3l0-165.8C187.9,117.7,185.1,115.9,181.5,116.1z M21.8,282.3l0-155.7l155.7,0l0.1,155.6L21.8,282.3z
		 M114.2,347.1l-66.2,0.1l0-54.3l66.1-0.1L114.2,347.1z M361.6,367.3l-341.8,0c-0.5-3.4-0.5-6.3,0-9.6l341.7,0
		C362.1,360.8,362.1,363.3,361.6,367.3z"/>
	<path d="M135.6,162.7l-72.5,0c-3.2,0.3-5.2,2.5-5.2,5.7l0,73c0.5,2.7,2.3,4.8,5.2,4.8l72.8,0c3.4,0,5.4-2.5,5.4-5.4l0-72.4
		C141.4,164.9,139,162.7,135.6,162.7z M100.8,235.6l21.6-15.5c2.4-1.7,2.8-4.9,1.2-7.2c-1.6-2.3-4.9-3-7.6-1.1l-34.1,23.7
		c-4.6,0.3-8.9,0.4-13.5,0l0-62.3l49.2,0l-28.1,18.5c-2.1,1.9-2.5,4.9-0.7,7.3c1.2,1.6,4.2,2.8,6.6,1.2l35.7-22.6l0.1,57.8
		L100.8,235.6z"/>
	<path class="st0" d="M293.8,85.3c-2.7,1.7-3.1,5.1-1.5,7.5c3.2,4.8,9.2,0.2,13-2.5c2.4-1.7,2.7-4.9,1.3-7.2
		C303.4,77.9,297,83.2,293.8,85.3z"/>
	<path class="st1" d="M58.1,325.3c-0.2,3.6-0.5,6.8,0.1,10.1l16.9-0.1L75,304.6l-16.8,0.1c-0.5,3.4-0.4,6.6-0.1,10l6.4,0.5
		c0.5,3.3,0.4,6.3,0,9.5L58.1,325.3z"/>
</g>
</svg>
