<?xml version="1.0" encoding="utf-8"?>
<!-- Generator: Adobe Illustrator 30.1.0, SVG Export Plug-In . SVG Version: 9.03 Build 0)  -->
<svg version="1.1" id="Isolation_Mode" xmlns="http://www.w3.org/2000/svg" xmlns:xlink="http://www.w3.org/1999/xlink" x="0px"
	 y="0px" viewBox="0 0 384 384" style="enable-background:new 0 0 384 384;" xml:space="preserve">
<g>
	<path d="M377.9,130.9l0-23.3c-0.2-9.9-7.8-17.9-18.1-17.9l-97,0c7.7-44.7-26.7-84.7-71.2-84.4c-44.2,0.2-78.2,40-70.5,84.4
		l-96.3-0.1c-10.5,0-18.6,7.6-18.8,18l0,24c0,10,7.9,17.7,18,18L23.8,322c0,10.9,7,19.4,18.2,19.6c4.1,0.1,8.2-0.3,12.4,0.2
		c3.2,21,21.2,36,41.9,35.8c20.3-0.2,38-15,41.1-35.9l126.5,0l0.1,30c0,3.3,2.6,6,6.3,6l47.7,0c3.3,0,6-2.7,6-5.9l0-30l17.2,0
		c10.8,0,18.8-8,18.8-18.9l-0.1-173.1C370.4,149.4,377.9,141.2,377.9,130.9z M185.1,18.1c33.5-3.8,62.7,20.4,66.4,52.8
		c3.8,32.9-20,62.6-52.8,66.4c-32.6,3.7-62.3-19.7-66.3-52.3C128.4,52.4,151.5,21.8,185.1,18.1z M24.4,137.7c-4-0.1-6.4-2.6-6.4-6
		l0-24c0-3.4,2.5-5.8,6-6l100.1,0c5.3,14.4,14.3,26.3,27.6,35.9L24.4,137.7z M35.9,323.7l0-18.1l30.4,0.1
		c-6.2,6.8-10.4,14-11.8,23.6C47.8,329.4,36.2,332.1,35.9,323.7z M100.4,365.2c-16.1,2.5-31.3-8.4-34.1-24.5
		c-2.8-16.1,7.9-32.1,25-34.7c16.9-2.6,31.7,9.1,34.1,25.1C128.1,347.5,116.7,362.7,100.4,365.2z M71.9,173.6l108,0l0,120l-108,0
		L71.9,173.6z M275.9,365.6l0-24l36,0l0,24L275.9,365.6z M341,329.6l-203.6,0c-1.3-9.2-5.3-16.5-11.8-23.9l222.2-0.1l0,17.7
		C347.9,327.5,345,329.6,341,329.6z M191.9,293.6l0-125.9c-0.3-3.4-1.9-5.5-5.7-6.1l-120.2,0c-3.5,0-6.1,2.6-6.1,6.1l0,125.9l-24,0
		l0-144l311.9,0l0,144L191.9,293.6z M358.3,137.6l-126.2-0.1c12.9-9.3,22.4-21,27.6-35.9l100.2,0c3.6,0.2,5.9,2.6,6.1,6l0.1,22.9
		C366,135.3,362.9,138.1,358.3,137.6z"/>
	<path d="M311.9,161.7l-60,0c-3.4,0-6,2.7-6,5.9l-0.1,12l-18,0.1c-3.3,0-5.9,2.6-5.9,5.9l0,24.1c0,3.3,2.7,5.9,5.9,5.9l18,0l0,12
		l-18,0.1c-3.3,0-6,2.5-6,6.3l0,23.7c0,3.3,2.6,5.9,5.9,5.9l18,0l0.1,12c0,3.2,2.6,5.9,6,5.9l60,0c3.3,0,6-2.6,6-6l0-107.9
		C317.9,164.2,315.2,161.7,311.9,161.7z M233.9,251.6l0-12l12,0l0,12L233.9,251.6z M233.9,203.6l0-12l12,0l0,12L233.9,203.6z
		 M257.9,269.6v-96l48,0l0,96L257.9,269.6z"/>
	<path d="M161.9,185.6H89.9c-3.5,0-5.8,2.7-6,6l0,36c0.2,3.3,2.5,6,6,6l72.3,0c3.6-0.5,5.4-2.9,5.7-6l0-36
		C167.7,188.3,165.4,185.6,161.9,185.6z M95.9,221.6l0-24l60,0l0,24L95.9,221.6z"/>
	<path d="M155.9,95.6l30,0l0,24c0,2.9,2.1,5.1,4.3,5.7c2.8,0.7,5.2-0.2,7.1-3L233,68.7c1.3-2,1-4.4-0.1-6.3c-0.8-1.4-2.7-2.8-5-2.8
		l-30-0.1l0-24c0-2.9-2.1-5.1-4.3-5.7c-2.5-0.6-5.1,0-6.6,2.3l-36.2,54.3c-1.3,2-1,4.4,0.1,6.3C151.7,94.2,153.6,95.6,155.9,95.6z
		 M185.7,55.7l0.3,9.9c0.1,3.3,2.6,5.9,5.9,5.9l24.6,0.1l-18.3,27.8l-0.3-9.9c-0.1-3.3-2.6-5.9-5.9-5.9l-24.6-0.1L185.7,55.7z"/>
	<path d="M92.1,318.1c-10.4,2.3-16,12.4-13.7,21.9c2.3,9.4,11.7,15.3,21.2,13.2c9.7-2.1,15.9-11.7,13.8-21.3
		C111.5,322.5,102.3,315.9,92.1,318.1z M98.2,341.1c-2.9,1.2-6.1,0-7.6-2.7c-1.5-2.8-0.6-6.8,3-8.3c3.4-1.4,6.7,0.5,7.8,3.2
		C102.7,336.4,101.2,339.9,98.2,341.1z"/>
	<polygon points="269.9,191.6 269.9,203.6 293.9,203.6 293.9,191.6 	"/>
	<polygon points="269.9,239.6 269.9,251.6 293.9,251.6 293.9,239.6 	"/>
</g>
</svg>
