<?xml version="1.0" encoding="utf-8"?>
<!-- Generator: Adobe Illustrator 30.1.0, SVG Export Plug-In . SVG Version: 9.03 Build 0)  -->
<svg version="1.1" id="Isolation_Mode" xmlns="http://www.w3.org/2000/svg" xmlns:xlink="http://www.w3.org/1999/xlink" x="0px"
	 y="0px" viewBox="0 0 74.9 74.9" style="enable-background:new 0 0 74.9 74.9;" xml:space="preserve">
<style type="text/css">
	.st0{fill:#FFFFFF;}
</style>
<g>
	<polygon class="st0" points="73.6,18.2 73.6,58.6 72.9,60.2 50.9,38.4 72.9,16.5 	"/>
	<path class="st0" d="M41.8,41.5c-2.5,2.5-6.5,2.5-8.9,0l-28.2-28c0.8-0.4,1.6-0.7,2.6-0.7l60.1,0c1,0,1.8,0.2,2.6,0.7L41.8,41.5z"
		/>
	<path class="st0" d="M69.9,63.2c-0.8,0.5-1.7,0.7-2.7,0.7l-59.9,0c-1,0-1.8-0.2-2.6-0.7l22-21.8l3.3,3.2c4.1,4.1,10.7,4,14.8-0.1
		l3.2-3.2L69.9,63.2z"/>
	<path class="st0" d="M1.7,60.2C1.3,59.5,1,58.8,1,57.9L1,19C1,18,1.2,17.3,1.6,16.5l22,21.8L1.7,60.2z"/>
</g>
</svg>
