<?xml version="1.0" encoding="utf-8"?>
<!-- Generator: Adobe Illustrator 30.1.0, SVG Export Plug-In . SVG Version: 9.03 Build 0)  -->
<svg version="1.1" id="Isolation_Mode" xmlns="http://www.w3.org/2000/svg" xmlns:xlink="http://www.w3.org/1999/xlink" x="0px"
	 y="0px" viewBox="0 0 384 384" style="enable-background:new 0 0 384 384;" xml:space="preserve">
<style type="text/css">
	.st0{fill:#010101;}
</style>
<g>
	<path class="st0" d="M242.1,243.1l0-55.7c0-10.8-8.2-18.9-19.1-18.9l-171.7,0c-10.4,0.2-18.7,7.8-18.7,18.2l-0.2,56.4
		c-11.4,2.6-20.3,10.7-23.4,22c-0.3,1.1-0.4,2-1.2,2.4v106.2c1.3,1.7,2.6,3.2,4.4,4.3h28c2.8-1.6,4.7-3.6,4.6-7.2
		c-0.1-5.8-0.2-11.5,0.1-17.4l184.7,0l0.2,18.1c0,3.2,2,5,4.3,6.6h28c3-1.5,4.7-3.5,4.7-7.3l0-96.7
		C266.7,258.8,256.9,246.5,242.1,243.1z M39,254.8l196.8,0c10.4,0.2,18.5,8.1,18.5,18.5l0,30.8l-234.1,0l0-30.8
		C20.2,262.8,28.4,254.9,39,254.8z M229.7,187.4l0,54.9c-4.4,0.4-8.1,0.3-12.3,0.1l0-23.9c0-10.7-8.1-19.1-18.9-19.1l-36.1,0
		c-10.5,0-18.9,7.9-18.9,18.4l-0.1,24.7l-12.2,0l-0.1-24.5c0-9.9-7.6-18.4-17.8-18.4l-37.5-0.1c-10.4,0-18.5,8.1-18.6,18.4L57,242.3
		l-12.2,0.1l-0.1-55c0-3.7,2.5-6.6,6.5-6.6l171.7,0C227,180.8,229.7,183.5,229.7,187.4z M205.1,242.4l-49.2,0.1l0-24.8
		c0-3.6,3-6,6.5-6l36.1,0c3.9,0.1,6.6,2.9,6.5,6.7L205.1,242.4z M118.7,218.3l-0.1,24.2l-49,0l-0.1-24.6c0-3.5,2.7-6,6.2-6.2l36.9,0
		C116.1,211.9,118.8,214.5,118.7,218.3z M242.1,365.6l-0.1-17.9c0-3.3-2-6.6-6.5-6.6l-195.8,0c-4.4,0-7.2,2.5-7.3,6.7l-0.1,17.8
		c-4.2,0.3-8,0.3-12.2,0l0-49.2l234.2,0l0,49.2C250,365.9,246.2,365.9,242.1,365.6z"/>
	<path class="st0" d="M375.1,89.3L194.2,8.2h-2.9L10.4,89.3l-2.6,3.4v75.9l12.3-0.2l0-69.9l172.6-77.4l172.6,77.4l0,69.7
		c4.2,0.6,8.2,0.1,12.3,0.3V92.8L375.1,89.3z"/>
	<path class="st0" d="M369.7,242.4l-84.9,0.2c-3.5,0-5.8,3.3-5.8,6.5l0,91.9c4.6,0.1,8.2,0.3,12.3-0.1l0.1-36.8l73.7,0l0.2,36.9
		l12.2,0.1v-94.4C375.9,243.8,373.5,242.4,369.7,242.4z M291.4,254.8l73.9,0l0.1,36.9l-73.9,0.1L291.4,254.8z"/>
	<path class="st0" d="M357.9,196.7c1.1-1.6,1.6-3.6,0.9-5.6l-12.3-36.8c-0.8-2.5-3.2-4.2-5.8-4.2l-24.4,0c-2.8,0-5.3,1.7-6.2,4.4
		l-12.2,36.8c-1.3,4,1.6,8,5.6,8l18.6,0.3l0,18.2l-12.1,0.3c-0.2,4.1-0.2,7.9,0,12.2l36.8,0c0.2-4.9,0.2-8.3-0.1-12.2l-12-0.1
		l-0.1-18.2l18.3-0.3C355.1,199.2,357,198,357.9,196.7z M312.4,186.8l8.1-24.4l15.8-0.1l8,24.5L312.4,186.8z"/>
	<path class="st0" d="M150.3,93.3c-4.6,26.3,15.7,50.3,42.2,50.5c26.4,0.2,47.4-23.6,42.8-50.2l-12.1,2
		c2.9,19.3-11.8,35.9-30.7,35.7c-18.9-0.1-33.3-17.3-30-36c3.2-18.4,22-29.9,40.4-23.8c1.6-4.2,3-7.7,4-11.5
		C181.4,51,154.7,67.5,150.3,93.3z"/>
	<path class="st0" d="M184.8,90.3l-8.6,8.5c4.1,4.3,8.1,8.4,12.4,12.5c2.5,2.4,6.3,2.1,8.7-0.3l42.8-42.8c-2.9-3.3-5.6-6.1-8.8-8.6
		L192.8,98L184.8,90.3z"/>
	<path class="st0" d="M316.2,267.1c-0.3,4.1-0.3,7.8-0.1,12.3l24.5-0.1l-0.2-12.1L316.2,267.1z"/>
</g>
</svg>
