<?xml version="1.0" encoding="utf-8"?>
<!-- Generator: Adobe Illustrator 30.1.0, SVG Export Plug-In . SVG Version: 9.03 Build 0)  -->
<svg version="1.1" id="Isolation_Mode" xmlns="http://www.w3.org/2000/svg" xmlns:xlink="http://www.w3.org/1999/xlink" x="0px"
	 y="0px" viewBox="0 0 384 384" style="enable-background:new 0 0 384 384;" xml:space="preserve">
<style type="text/css">
	.st0{fill:#010101;}
</style>
<g>
	<path d="M369,306c4-0.2,7.7-3.4,7.9-7.9c0.2-3.1,0.2-6.1,0-9.2c-0.5-9.1-7.8-15.9-16.8-15.9c-4.2,0-8,0.2-12.1-0.1
		c-0.3-2.6-0.4-5.3,0-7.8c0.7-0.6,2.3-0.4,3.5-0.4c5.1,0.1,8.7-3.7,8.8-8.2c0.1-4.8-3.7-8.5-8.8-8.4l-24.7,0.1c-5,0-8.1,4.2-8.1,8.3
		c0,4.2,3.2,7.8,7.8,8.2c1.6,0.1,2.9-0.1,4.6,0.1c0,2.9,0.2,5.4-0.2,8.2l-20.6-0.1l-0.1-58.2c0-4.9-4-8.3-8.4-8.3
		c-4.3,0-8.2,3.5-8.2,8.2l-0.1,18.4c-7.6,3-17.6,4.2-25.2-1.1c-14.7-10.3-34.9-12.6-50.2-2.1c-11.2,7.7-23.7,7.6-35-0.2
		c-13.1-8.9-32.6-8.9-45.6,0c-11.6,7.9-23.9,7.9-35.4,0c-13-8.9-32-8.9-45.2-0.2c-9.3,6.1-19.7,8.6-30,3.4l0.1-17.3
		c0-5-3.3-8.9-8.1-9.1c-4.4-0.2-8.6,3.2-8.6,8.4l0,116.2c0,23.3,18.6,42,42,42l216.2,0c23.4,0,41.7-18.8,41.8-41.9l0-41.4l49.8-0.1
		l0.3,8.5C360.7,302.9,364.5,306.2,369,306z M293.5,331.8c0,13.7-11.3,24.5-25,24.5l-216.2,0c-14.8,0-25.5-11.6-25.4-26.1l0.1-79.7
		c13.9,3.8,27.1,0.6,38.4-7c9.7-6.5,22.5-4.8,31.5,2.3c13.9,8.1,32.1,9,45.6-0.2c11.3-7.7,23.9-8,35.2-0.2
		c13.6,9.4,32.1,8.6,46.1,0.4c10.5-8.5,24.9-8.1,35.2,0.2c10.3,6.1,21.9,7.6,34.6,4.5L293.5,331.8z"/>
	<path d="M37.5,106.4l247-0.1c11.1,0,18.2-10.5,15.8-20.4c-6-24.1-28.8-40.1-53.8-37.6c-14.3-30.1-50.3-42.5-80.3-26.8
		C150.4,7.5,129.5,2.6,108.7,9.3C91.8,14.8,76.7,29,71.1,48c-23.6-0.9-44.6,14.1-50.8,37.1c-1.5,5.5-0.2,10.8,3.1,15
		C26.8,104.3,31.5,106.4,37.5,106.4z M75.7,65.4c4.9,1,9.4-2.1,10.1-7C88.2,42.3,100,29.6,114.3,25c16.6-5.2,33.4,0,44.4,12.7
		c2.6,3,7.2,3.7,10.5,1.5c11.3-7.8,24.9-10.2,38.7-5.3c11.1,3.9,21.2,13.5,25.4,26.2c1.4,4.3,5.6,6.8,10.4,5.6
		c17.9-4.5,35.9,6.1,40.4,23.9l-247.7,0C41,72,58.3,61.8,75.7,65.4z"/>
	<path d="M237.3,165c-4,1.1-7.1,5.2-6,9.7l4.2,16.8c1.2,4.8,5.9,7.4,10.3,6.2c4.1-1.1,7.1-5.3,5.9-10.2l-4.1-16.5
		C246.3,166.3,241.7,163.8,237.3,165z"/>
	<path d="M49.7,123.4c-4,1.1-6.9,5.3-5.8,9.9l4.2,16.8c1.2,4.7,5.9,7.2,10.5,5.8c4-1.2,6.8-5.5,5.5-10.5l-4-16
		C58.8,124.7,54.2,122.1,49.7,123.4z"/>
	<path d="M270.6,123.4c-4.2,1.1-7.1,5.4-5.9,10.1l4.2,16.9c1.2,4.6,5.9,6.8,10.1,5.7c4.2-1.1,7.1-5.3,5.8-10.4l-4.2-16.6
		C279.6,124.4,274.8,122.3,270.6,123.4z"/>
	<path d="M90.2,165c-4.3,1.1-7.2,5.2-6.1,9.9l4.2,16.9c1.2,4.6,5.8,7,9.8,6.1c4.3-1,7.5-5,6.3-9.9l-4.1-16.6
		C99.2,166.4,94.6,163.9,90.2,165z"/>
	<path d="M163.7,165c-4,1.1-7,5.2-5.9,9.8l4.2,16.9c1.2,4.7,5.8,7,9.9,6c4.2-1,7.4-5,6.2-10l-4.1-16.7
		C172.7,166.3,168,163.8,163.7,165z"/>
	<path d="M123.2,123.4c-3.8,1.1-6.8,5.2-5.7,9.7l4.2,16.8c1.2,4.8,5.8,7.3,10.4,6c3.9-1.1,6.9-5.2,5.7-10l-4.1-16.5
		C132.4,124.6,127.8,122.1,123.2,123.4z"/>
	<path d="M196.6,123.5c-3.7,1.1-6.6,5.4-5.5,10l4.1,16.3c1.2,4.8,5.8,7.5,10.3,6.2c4.1-1.1,7-5.3,5.8-10.2l-4.2-16.5
		C206,124.5,201.3,122.1,196.6,123.5z"/>
	<path class="st0" d="M376.9,322.6c-0.3-4.8-4.2-8.1-8.6-7.9c-4.1,0.2-7.7,3.3-7.9,7.9c-0.2,3.1-0.2,6,0,9.1
		c0.3,4.8,4.2,8.1,8.6,7.9c4-0.2,7.8-3.3,7.9-8.2C377,328.2,377,325.4,376.9,322.6z"/>
	<path d="M118.6,268.8c-6.3-0.1-11.1-2.6-16.2-5.9c-10.5-6.8-23.6-8-35.6-4.8c-4.9,1.3-7.4,6-6.2,10.3c1.2,4.6,5.7,7.1,10.6,5.8
		c7.3-1.9,15.6-1.6,22.1,2.7c7.8,5.1,16.2,8.9,26.2,8.4c5-0.2,7.9-4.9,7.4-9C126.4,272.2,123,268.9,118.6,268.8z"/>
	<path d="M182.7,262.4c-4.4-3.4-10.2-2.3-12.7,1.7c-3,4.8-0.8,9.2,3.4,12.2c11.5,8.2,25.6,11.5,39.5,7.4c4.6-1.4,6.6-6.5,5.2-10.5
		C213.6,260.4,201.2,276.6,182.7,262.4z"/>
	<path d="M254.6,258.4c-3.5-1.2-7.2-1.9-11-1.9c-4.6-0.1-8.1,3.7-8.3,8c-0.2,4.3,3,8.1,7.7,8.6c4.3,0.4,14.3,4.6,16.9-4.3
		C261.1,264.3,258.9,259.9,254.6,258.4z"/>
</g>
</svg>
