<?xml version="1.0" encoding="utf-8"?>
<!-- Generator: Adobe Illustrator 30.1.0, SVG Export Plug-In . SVG Version: 9.03 Build 0)  -->
<svg version="1.1" id="Isolation_Mode" xmlns="http://www.w3.org/2000/svg" xmlns:xlink="http://www.w3.org/1999/xlink" x="0px"
	 y="0px" viewBox="0 0 384 384" style="enable-background:new 0 0 384 384;" xml:space="preserve">
<style type="text/css">
	.st0{fill:#FFFFFF;}
</style>
<g>
	<path class="st0" d="M375.9,184.8v42.7c-4.1,24.9-23.9,44.3-50.1,44.4l-15.3,0.1c-6.2,0-11.5-4.7-11.5-11.2l0.1-109
		c0-60.9-48.6-109.7-108.6-109.8C130.2,41.7,81.1,90.6,81.1,151.8l0.1,109c0,6.1-4.3,10.3-10,11.1c-7.4,1.1-14.4,0.8-21.8-0.1
		c-24.1-2.9-41.3-21.1-45-44.2v-42.7c0-26.8,26.9-46.2,54-44.6C64,70.8,122,18.6,190.5,18.7c68.1,0.2,125.8,52.4,131.4,121.4
		C349.4,138.5,371.8,158,375.9,184.8z"/>
	<path class="st0" d="M205.1,368.1l-29.5,0.1c-13.1,0-23.2-11-22.9-23.6c0.2-12.7,10.5-22.8,23.6-22.8l27.7,0
		c12.8,0,23,9.7,23.6,22.2C228.1,356.3,218.5,368.1,205.1,368.1z"/>
	<path class="st0" d="M132.3,338.5l7.7,0c-0.3,4.3-0.5,7.8,0.2,12.6c-41.5,4.4-80.1-24-86.9-65.8l13.2,0
		C72.8,316.3,99.8,338.5,132.3,338.5z"/>
</g>
</svg>
