<?xml version="1.0" encoding="utf-8"?>
<!-- Generator: Adobe Illustrator 30.1.0, SVG Export Plug-In . SVG Version: 9.03 Build 0)  -->
<svg version="1.1" id="Isolation_Mode" xmlns="http://www.w3.org/2000/svg" xmlns:xlink="http://www.w3.org/1999/xlink" x="0px"
	 y="0px" viewBox="0 0 384 384" style="enable-background:new 0 0 384 384;" xml:space="preserve">
<style type="text/css">
	.st0{fill:#141414;}
</style>
<g>
	<path class="st0" d="M73.3,236.1l223,0c2.5,0,3.9-2,3.8-3.9c-0.1-1.8-1.6-3.5-3.7-3.5l-14.9,0l0.1-15.3
		c9.6-2.2,15.8-10.9,14.7-20.6c-1-8.5-5.2-20.1-12.2-25.4c-3.8-2.8-8.7-2.8-12.6,0c-7.1,5.2-11.2,16.8-12.2,25.4
		c-1.1,9.7,5.1,18.4,14.7,20.6l0,15.3l-14.8,0l0-7c0-2-1-3.5-2.9-4.1l-33.5-11.2c-2.4-0.4-4.6,1.1-4.6,3.6l0,18.7l-29.8,0l0.1-24
		l22.8-12.9l39.6,13.2c2.1,0.7,4.1-0.9,4.5-2.7c0.4-1.8-0.4-3.8-2.5-4.5L212,184.1c-1.4-0.5-2.6-0.1-3.8,0.6l-19.8,11.3l0-13.8
		l22.7-12.9l42.7,14.2c2.3,0.8,4.5-0.2,5.2-2.3c0.6-2-0.4-4-2.6-4.7L212,161.8c-1.4-0.5-2.6-0.1-3.8,0.6l-19.8,11.3l0-13.8l22.8-13
		l53.1,17.8c1.5,0.5,3,1,4.4-0.1c0.8-0.6,1.7-1.6,1.7-3.3l0-134c0-1.7-0.9-3.1-2.5-3.6L212,5.2c-1.5-0.5-2.6-0.1-3.8,0.6l-25.4,14.6
		c-1.1,0.8-1.9,1.8-1.9,3.3l-0.2,61.8l-50.4-16.8c-1.5-0.5-2.9-0.4-4.2,0.5l-25.4,14.6c-1.1,0.6-1.9,1.9-1.9,3.2l0,44.2l0,29.9
		c0,2.3,1.4,4,3.6,4.2c2,0.1,3.8-1.4,3.9-3.7c0.2-1.8-0.2-3.6,0.2-5.4l22.7-12.9l51.7,17.3l-0.1,14.5l-50.4-16.8
		c-1.6-0.5-2.8-0.3-4.2,0.5l-14.4,8.3c-1.9,1.1-2.1,3.4-1.2,5c0.9,1.5,3,2.4,4.7,1.4l13.8-7.7l51.7,17.3l-0.1,14.4l-50.8-16.9
		c-2.2-0.7-4.3,0.5-4.8,2.4c-0.6,2.1,0.4,4,2.7,4.7l53,17.7l0,23.3c-1.3,0.1-2.4,0.1-3.7,0l0-7c0-1.7-0.8-3.4-2.5-4l-33.9-11.2
		c-2.4-0.8-4.6,1.3-4.6,3.5l0,18.7l-18.6,0l0-8c7.9-2.2,12.3-9.8,10.8-17.8c-1.2-6-3.5-11.6-7.7-15.9c-1.8-1.8-4.3-2-5.9-0.4
		c-1.9,2-1.1,4.2,0.7,6c3.9,4,9.6,16.5,1.5,20.5c-2.8,1.4-5.9,0.8-8.2-1.2c-1.7-1.4-4.1-1.1-5.4,0.5c-1.2,1.5-1,3.7,0.5,5.1
		c1.8,1.6,3.7,2.5,6.1,3.3l0.1,7.9l-14.9,0l0.1-15.3c9.4-2.1,15.7-10.6,14.7-20.1c-0.9-8.6-5.1-20.5-12.2-25.8
		c-3.8-2.8-8.7-2.9-12.7,0.1c-7,5.3-11.1,16.9-12.1,25.3c-1.1,9.7,5.1,18.4,14.7,20.6l0.1,15.2l-14.5,0.1c-2.4,0-4.3,1.7-4.1,4
		C69.2,234.7,70.7,236.1,73.3,236.1z M266.7,194.1c0.6-7.2,3.3-14.1,7.8-19.5c0.8-1,2.2-1.7,3.2-1.8c1.2-0.1,2.6,0.7,3.6,1.9
		c4.3,5.3,7,12,7.7,19.2c0.7,6.9-4.7,12.2-10.9,12.4C271.6,206.4,266.1,200.9,266.7,194.1z M225.6,215.2l26,8.6
		c0.1,1.7,0.1,2.8,0,4.8l-26,0L225.6,215.2z M188.3,48.2l22.7-13l51.7,17.2l0,14.5l-50.2-16.7c-1.9-0.6-3-0.3-4.4,0.5l-19.6,11.2
		L188.3,48.2z M262.7,156.2l-50.2-16.7c-1.7-0.6-2.8-0.5-4.1,0.2l-20,11.4l-0.1-13.7l22.8-13l51.7,17.3L262.7,156.2z M262.8,134.1
		L212,117.2c-1.8-0.6-2.9-0.2-4.2,0.5l-19.5,11.1l-0.1-13.6l22.5-12.9l51.9,17.3V134.1z M188.3,92.9l22.8-13l51.7,17.2l0,14.4
		l-50.3-16.7c-1.9-0.6-3.1-0.3-4.5,0.6l-19.5,11.1L188.3,92.9z M212,72.5c-1.3-0.4-2.3-0.4-3.2,0.1l-20.4,11.6l-0.1-13.7l22.6-12.9
		l51.9,17.3l0,14.5L212,72.5z M211.1,12.7L262.8,30l-0.1,14.6l-50.3-16.8c-1.6-0.5-2.7-0.5-3.9,0.2l-20.2,11.5l-0.1-13.7L211.1,12.7
		z M180.8,152.6l-50.3-16.7c-1.5-0.5-2.6-0.6-3.8,0.1l-20.3,11.6l-0.1-13.7l22.8-13l51.8,17.3L180.8,152.6z M106.3,111.5l22.5-12.9
		l52,17.3l0,14.5L130,113.5c-1.8-0.6-2.9-0.1-4.2,0.6l-19.5,11.1L106.3,111.5z M180.8,107.9l-50.4-16.7c-1.5-0.5-2.6-0.5-3.7,0.1
		l-20.4,11.6l-0.1-13.6l22.8-13l51.7,17.2L180.8,107.9z M143.6,215.2l26,8.6c0.1,1.7,0.1,2.8,0,4.8l-26,0L143.6,215.2z M80.2,194.1
		c0.6-7.2,3.3-14.1,7.8-19.5c0.8-1,2.2-1.7,3.2-1.8c1.2-0.1,2.6,0.7,3.6,1.9c4.3,5.3,7,12,7.7,19.2c0.7,6.9-4.7,12.2-10.9,12.4
		C85.1,206.4,79.6,200.9,80.2,194.1z"/>
	<path class="st0" d="M135.3,250.8c-2-0.3-4.4,0-5.1,1.2L58.1,367.7v1.2c1.1,0.6,2.2,1.2,3.9,1.2c1.9-0.1,3.2-0.5,3.8-1.5L137.6,253
		C138.2,251.9,136.9,251.1,135.3,250.8z"/>
	<path class="st0" d="M323.1,367.7L251.3,252c-0.7-1.1-3.2-1.5-5.1-1.2c-1.6,0.3-3,1.1-2.3,2.2l71.8,115.7c0.6,1,2.8,1.4,4.7,1.2
		C321.9,369.7,323.9,369,323.1,367.7z"/>
	<path class="st0" d="M143.8,250.7c-1.9-0.1-3.8,0.4-4.3,1.4l-50.1,96.6c-0.6,1.2,1.3,2.1,3.2,2.2c2.1,0.1,3.9-0.3,4.5-1.6l50-96.5
		C147.3,251.6,145.9,250.8,143.8,250.7z"/>
	<path class="st0" d="M260.1,287.1c-0.6-1.1-2.9-1.5-4.6-1.4c-2.1,0.2-3.5,1.1-2.9,2.2l41.8,80.6c0.6,1.1,2.7,1.6,4.8,1.4
		c1.6-0.2,3.4-0.9,2.8-2.2L260.1,287.1z"/>
	<path class="st0" d="M202.6,341h-23.8c-2.5,0-4.2,0.7-4.3,1.9l-1.7,25.3c-0.1,1.1,2.2,1.8,4.1,1.7c1.9-0.1,3.6-0.7,3.7-1.8
		l1.6-23.7l17,0l1.6,23.6c0.2,1.1,1.9,1.8,4.1,1.8c1.7,0,3.7-0.7,3.6-1.7l-1.7-25.3C206.8,341.7,205.1,341,202.6,341z"/>
	<path class="st0" d="M176.7,311.5l-1.4,21c-0.1,1.1,1.8,1.9,4.1,1.9l23.1,0c2.3-0.2,3.9-0.9,3.8-1.9l-1.4-21
		c-0.1-1.1-2-1.7-4.2-1.7l-19.7,0C178.7,309.8,176.7,310.5,176.7,311.5z M184.3,313.4l12.8,0l1.2,17.4l-15.2,0L184.3,313.4z"/>
	<path class="st0" d="M178.4,286.3l-1.2,17c-0.1,1.2,1.6,2.1,4.2,2.1l18.6,0c2.7,0,4.3-0.8,4.3-2.2l-1.2-16.8c-0.1-1-1.8-1.8-4-1.8
		h-16.6C180.2,284.5,178.4,285.3,178.4,286.3z M186,288.1l9.3-0.1l1.1,13.7l-11.2,0L186,288.1z"/>
	<path class="st0" d="M179.8,265.5l-1,14.9c-0.1,1.2,1.6,2,4.2,2l15.9,0c2.6,0,4-0.9,3.9-2l-1-14.9c-0.1-1-1.7-1.8-3.9-1.8l-14.1,0
		C181.5,263.7,179.8,264.5,179.8,265.5z M187.5,267.3c2.3-0.1,4.2-0.1,6.5,0l0.9,11.4c-2.8,0.3-5.4,0.1-8.2,0.1L187.5,267.3z"/>
	<path class="st0" d="M254,283.4c2-0.2,3.6-1,3-2.2l-15-29c-0.6-1.1-2.6-1.6-4.8-1.4c-1.6,0.2-3.4,1-2.8,2l15.2,29.3
		C250.1,283.1,252.3,283.6,254,283.4z"/>
	<path class="st0" d="M184.3,250.7c-2,0.1-3.6,0.8-3.6,1.8l-0.5,8.6c-0.1,0.9,1.8,1.6,3.6,1.7c4.7,0.1,9.2,0.1,13.9,0
		c1.9,0,3.7-0.8,3.6-1.7l-0.6-8.8c-0.1-1.1-2.2-1.7-4-1.7c-1.9,0-3.7,0.7-3.6,1.7l0.3,6.8c-1.8,0.2-3.5,0.2-5.3,0l0.3-6.7
		C188.4,251.3,186.3,250.6,184.3,250.7z"/>
	<path class="st0" d="M90.2,355c-2-0.2-4.2,0.3-4.7,1.3l-6,11.6c-0.5,1.1,1.4,1.9,3.2,2c2,0.1,3.9-0.4,4.4-1.5l5.9-11.3
		C93.5,356.1,92.1,355.2,90.2,355z"/>
</g>
</svg>
