<?xml version="1.0" encoding="utf-8"?>
<!-- Generator: Adobe Illustrator 30.1.0, SVG Export Plug-In . SVG Version: 9.03 Build 0)  -->
<svg version="1.1" id="Layer_1" xmlns="http://www.w3.org/2000/svg" xmlns:xlink="http://www.w3.org/1999/xlink" x="0px" y="0px"
	 viewBox="0 0 15 15" style="enable-background:new 0 0 15 15;" xml:space="preserve">
<style type="text/css">
	.st0{fill:#9D9D9D;}
</style>
<g id="XMLID_00000181771495357967572770000006770359511745525431_">
	<path id="XMLID_00000111163354172852690910000006976267658421651616_" class="st0" d="M7.6,1.8c1.9,0,2.1,0,2.8,0
		c0.7,0,1,0.1,1.3,0.2c0.3,0.1,0.6,0.3,0.8,0.5C12.7,2.8,12.9,3,13,3.4c0.1,0.2,0.2,0.6,0.2,1.3c0,0.7,0,1,0,2.8c0,1.9,0,2.1,0,2.8
		c0,0.7-0.1,1-0.2,1.3c-0.1,0.3-0.3,0.6-0.5,0.8c-0.2,0.2-0.5,0.4-0.8,0.5c-0.2,0.1-0.6,0.2-1.3,0.2c-0.7,0-1,0-2.8,0
		c-1.9,0-2.1,0-2.8,0c-0.7,0-1-0.1-1.3-0.2c-0.3-0.1-0.6-0.3-0.8-0.5c-0.2-0.2-0.4-0.5-0.5-0.8C2,11.4,1.9,11,1.9,10.3
		c0-0.7,0-1,0-2.8c0-1.9,0-2.1,0-2.8c0-0.7,0.1-1,0.2-1.3C2.3,3,2.4,2.8,2.6,2.6C2.9,2.3,3.1,2.2,3.4,2C3.7,2,4.1,1.8,4.7,1.8
		C5.5,1.8,5.7,1.8,7.6,1.8 M7.6,0.5c-1.9,0-2.1,0-2.9,0C3.9,0.6,3.4,0.7,3,0.9C2.5,1.1,2.1,1.3,1.8,1.7C1.4,2.1,1.1,2.5,1,2.9
		c-0.2,0.4-0.3,1-0.3,1.7c0,0.7,0,1,0,2.9s0,2.1,0,2.9c0,0.7,0.2,1.2,0.3,1.7c0.2,0.5,0.4,0.8,0.8,1.2c0.4,0.4,0.8,0.6,1.2,0.8
		c0.4,0.2,1,0.3,1.7,0.3c0.7,0,1,0,2.9,0c1.9,0,2.1,0,2.9,0c0.7,0,1.2-0.2,1.7-0.3c0.5-0.2,0.8-0.4,1.2-0.8c0.4-0.4,0.6-0.8,0.8-1.2
		c0.2-0.4,0.3-1,0.3-1.7c0-0.7,0-1,0-2.9s0-2.1,0-2.9c0-0.7-0.2-1.2-0.3-1.7c-0.2-0.5-0.4-0.8-0.8-1.2c-0.4-0.4-0.8-0.6-1.2-0.8
		c-0.4-0.2-1-0.3-1.7-0.3C9.7,0.5,9.5,0.5,7.6,0.5"/>
	<path id="XMLID_00000070833372552208967960000015193095601413831845_" class="st0" d="M7.6,3.9C5.6,3.9,4,5.5,4,7.5
		s1.6,3.6,3.6,3.6c2,0,3.6-1.6,3.6-3.6S9.5,3.9,7.6,3.9 M7.6,9.8c-1.3,0-2.3-1-2.3-2.3c0-1.3,1-2.3,2.3-2.3c1.3,0,2.3,1,2.3,2.3
		C9.9,8.8,8.8,9.8,7.6,9.8"/>
	<path id="XMLID_00000140701503619105475500000015110535952430017676_" class="st0" d="M12.1,3.8c0,0.5-0.4,0.8-0.8,0.8
		c-0.5,0-0.8-0.4-0.8-0.8s0.4-0.8,0.8-0.8C11.7,2.9,12.1,3.3,12.1,3.8"/>
</g>
</svg>
