<?xml version="1.0" encoding="utf-8"?>
<!-- Generator: Adobe Illustrator 30.1.0, SVG Export Plug-In . SVG Version: 9.03 Build 0)  -->
<svg version="1.1" id="Isolation_Mode" xmlns="http://www.w3.org/2000/svg" xmlns:xlink="http://www.w3.org/1999/xlink" x="0px"
	 y="0px" viewBox="0 0 384 384" style="enable-background:new 0 0 384 384;" xml:space="preserve">
<g>
	<path d="M356.7,342.7l-24.9-0.1l-28.6-26.7c-2.5-2.3-6-2.2-8.1,0.2c-1.8,2-2,5.5,0.3,7.7l32,29.8l30,0.3c7.7,0.1,13.2,7,12.4,14.6
		l-44.9,0c-1.8,0-3.4-0.6-4.8-2L182.1,235.3c0-6.1-0.5-11.3,0.3-17.4l97,90.8c2.5,2.3,5.8,1.6,7.5-0.2c2.1-2.2,2.3-5.7-0.1-8
		l-104.8-98.2c0.6-7.4-4.5-12.8-11.5-12.8c-3,0-5.7,0.2-8.8-0.1l0-31.2c7.5-0.3,16,1.1,19.4-7.7c1.7-4.5,0.8-9.4-2.9-13.1L98.6,57.7
		c-0.3-2.6-0.2-4.6,0-7.4l35.7,0c7.4,0,13.1-5,13.1-12.5l-0.1-18.3c0-6.8-5.5-11.7-12.3-11.7l-36.4,0c-0.6-2.9-2.4-3.9-4.1-5.2h-3.7
		c-2,0.3-3.4,1.2-4.3,2.5c-0.7,17.3-0.9,34.7-0.7,52.1L53.6,89.5c-4.3,7.4,2.4,14.1,9.6,9.9L93,69.8l75.2,75.5L18,145.4l30.2-30.9
		c5.6-7.8-1.6-15.3-9.9-9.8L5.5,137.7c-0.6,1.8-1.1,3.6-1.5,5.5v5.9c5.5,10.7,9.4,8.4,20.3,9.2l0,50.5c0,3.6,2.4,6,5.8,5.9
		c2.7-0.1,5-2.2,5.2-5.5l0.1-51.1l115.2,0l0,97.8l-115.1,0l-0.1-24.2c0.1-3.4-2.4-5.9-5.3-5.9c-3.2,0-5.7,2.1-5.7,5.9l0,136.7
		l-15.2,0.2c-2.6,0-3.7,2.1-5.2,3.6v3.7c1.2,1.3,2.3,2.6,3.8,3.7h369.5c1.4-1.1,2.7-2.3,3.8-3.8v-13.2
		C377.9,351.2,369.1,342.7,356.7,342.7z M136.2,18.9l0,20.3l-37.5,0l-0.1-20.3L136.2,18.9z M161.7,200.6c3.3-0.2,6-0.3,9.2,0.1
		l0,40.8c-3.1,0.6-5.9,0.3-9.2,0.2L161.7,200.6z M112.2,266.8l0,18.4l-38.4,0l0-18.5L112.2,266.8z M73.9,312.2l-0.1-15.8l38.2,0
		l0.1,15.6L73.9,312.2z M112.2,323.3l0,15.6l-38.3,0l0-15.7L112.2,323.3z M35.4,368.5l0-101.4l27.4-0.1l0,101.4L35.4,368.5z
		 M73.7,368.3l0.2-18.3l38.3,0l0,18.5L73.7,368.3z M123.3,368.5l0-101.6l27.3,0l0,101.4L123.3,368.5z M161.7,368.4l0-115.3
		c8-1,12.1,1.8,18.1-4.6l12.8,12l0,107.9L161.7,368.4z M203.6,368.4l0.1-97.2l44.6,42.2l0.1,54.9L203.6,368.4z M259.4,368.5
		l0.2-44.3l46.4,44L259.4,368.5z"/>
	<path d="M94.1,242.3c19.1-0.6,34.7-16.6,34.3-36.2c-0.4-19-16-35.1-36.1-34.6c-20.2,0.4-35.4,17.1-34.7,36.7
		C58.2,227.4,74.5,242.9,94.1,242.3z M92.3,182.6c14-0.4,24.7,10.7,25,23.6c0.4,13.5-10.3,24.6-23.3,25.1
		c-13.6,0.6-24.8-10-25.4-23.1C68,194.7,78.2,183,92.3,182.6z"/>
</g>
</svg>
