<?xml version="1.0" encoding="utf-8"?>
<!-- Generator: Adobe Illustrator 30.1.0, SVG Export Plug-In . SVG Version: 9.03 Build 0)  -->
<svg version="1.1" id="Isolation_Mode" xmlns="http://www.w3.org/2000/svg" xmlns:xlink="http://www.w3.org/1999/xlink" x="0px"
	 y="0px" viewBox="0 0 384 384" style="enable-background:new 0 0 384 384;" xml:space="preserve">
<g>
	<path d="M377,166.6v-13c-2.8-12.9-8.6-24.9-20.6-32.9c7.7-21.3-2.4-44.6-23.7-53.5c9.4-29.6-10-58.2-39.7-62.8h-13
		c-0.5,0.8-1.4,0.8-2.5,1c-27.9,6.1-44.4,34.5-35.5,61.7c-21,8.8-31.5,31.8-23.7,53.3c-23.5,16.5-27.4,49.3-8.8,70.6
		c18.7,21.5,51.8,22.4,71.8,0.4l0.2,63.9c-11.5,0.2-21.7,5.2-28.7,14.5c-15.8-6-33-0.8-42.8,13.4l-0.1-27.8l23.8-0.2l0-35.7
		l-23.7-0.2l-0.2-14.4l-23.8-23.8L162,205.1l-0.3,14.4c-3.9,0.3-7.8,0.3-11.7,0l-0.2-14.4l-23.5-23.6l-12,11.2L114,142l17.6-0.1
		c25.7-0.1,45-22.2,41.9-47.8l-30.3,0c-11.1,0-20.8,4.7-29.1,12.2l-0.1-24.1l19-0.1c25.2-0.1,43.5-22.9,40.4-47.7l-28.8,0
		c-4.6,0-8.7,0.7-13.1,1.9L108.1,7L84.5,36.2c-4.8-1.2-9.4-2-14.4-1.8l-27.5,0C39.5,58.6,57,81.8,81.7,82.1l20.4,0.3l-0.1,54.1
		c-8.2-7.7-17.9-12.3-28.9-12.3L42.6,124c-3.4,26.5,17.5,49.1,44.2,47.9c5.2-0.2,9.9,0,15.2,0.1l0,47.5c-4.1,0.4-7.7,0.3-11.8,0.1
		L90,205.2l-23.8-23.8L42.5,205l-0.3,14.6l-23.7,0.1l0,35.8l23.8,0.1l0.1,35.6l-23.9,0.3l0,35.5l23.8,0.3l0.1,35.5l-11.8,0.3
		c-0.3,4-0.3,7.7,0,12l313.8-0.3c15.7,0,29.4-14.8,32.8-29.4v-11.6c0-1.2-0.2-2.4-0.5-3.5c-2.2-9.6-11.9-16.2-16.1-22.8
		c-3-12.1-3.8-24.9-15.5-32.8c-10-6.7-22.7-9.8-34.9-4.6c-4.4-6.2-10-9.8-16.7-12.5l0.2-65.8c13.7,14.5,32.5,19.6,51,13.5
		c16.2-5.4,29.1-19.9,31.9-37.8C376.5,166.9,376.7,166.7,377,166.6z M209.8,231.7l11.7,0l0.1,11.6c-4.2,0.4-7.7,0.3-11.8,0.1
		L209.8,231.7z M146.8,106.1l14.3,0.2c-2.8,13.6-14.7,23.6-29,23.7c-6.2,0-11.5,0.1-17.4-0.1C118,114.5,131.7,105.9,146.8,106.1z
		 M137,47.5c1.9-0.9,3.5-1,5.5-1.2l18.7,0.1c-2.8,13.1-13.7,23-28,23.6C137.1,63,139.2,55.3,137,47.5z M54.9,46.4
		c8.1,0,15.3-0.6,24.1,0.6c-2,8.5-0.2,15.9,3.9,23.1C68.8,69.4,57.7,59.7,54.9,46.4z M81.8,159.7c-13.2-0.9-24.1-10.5-26.9-23.5
		c5.7-0.4,11-0.1,16.6-0.2c14.3-0.1,26.6,9.3,29.8,23.8C94.6,159.9,88.3,160.2,81.8,159.7z M30.3,243.5l0-11.8l11.8,0l0.1,11.6
		C38.2,243.8,34.5,243.6,30.3,243.5z M42.3,315c-3.8,0.7-7.3,0.2-11.7,0.3c-0.6-4-0.2-7.7-0.2-11.9l11.7,0
		C42.6,307.1,42.1,310.4,42.3,315z M54.2,363l0-152.7l11.8-12l12,12l0,152.5L54.2,363z M90.3,231.7c4.1-0.2,7.6-0.2,11.7,0l0.1,11.6
		c-4.1,0.5-7.7,0.2-11.8,0.1C90,239.3,90,235.8,90.3,231.7z M102.1,291c-4.1,0.8-7.7,0.4-11.9,0.2l0-35.6c4.3-0.2,7.7-0.2,11.9,0
		L102.1,291z M101.9,303.4l0.1,11.6c-4.1,0.6-7.7,0.3-11.8,0.2l-0.1-11.5C94,303,97.7,303.5,101.9,303.4z M90.1,362.9l0-35.6l11.8,0
		l0.1,35.3C98,363.5,94.4,363.1,90.1,362.9z M92.5,62.5C89.2,57,89,50,93.1,44.9L108,26.1l14.4,18c4.2,5.2,4.6,12.1,1.4,17.9
		c-2.9,5.3-8.6,8.4-15.7,8.4C101.1,70.4,95.5,67.6,92.5,62.5z M185.6,198.3l12,11.8l0,69.6c-8.2-0.9-15.9,0-23.8,4.4l-0.1-73.9
		L185.6,198.3z M150,231.7l11.5-0.1c0.7,3.6,0.2,7,0.3,11.7c-3.9,0.6-7.4,0.2-11.7,0.2C149.6,239.6,149.9,235.9,150,231.7z
		 M161.8,255.6l-0.2,39.5c-0.4,2.8-2.9,6.2-4,8.2c-2.1,1.3-5,0.9-7.5,2l-0.1-49.6L161.8,255.6z M137.9,312.6
		c-14.4,13.2-16.1,34.6-3.2,50.2c-7,0.7-13.6,0.3-20.7,0.2l0-152.8l11.9-11.9l12,12L137.9,312.6z M299.8,276.2
		c-7.7,7-12.4,16.5-12.4,27c4.1,0.2,7.8,0.3,11.9,0c0.3-15.4,14.2-26.3,28.9-23.2c14.2,3,22.8,18.3,17,32.4
		c-0.3,0.7-0.4,1.7-0.3,2.3c0.1,0.6,1.3,1.1,2.1,1.4c11.8,3.4,19.3,14.1,17.7,26.1c-1.4,11.4-11,20.9-23.4,20.9l-179.3,0
		c-13.6,0-24-10.6-24.2-23.7c-0.2-12.6,9.9-23.6,23.1-24c12.7-0.4,24.2,9.3,24.7,23.4c4.2,0.9,7.8,0.5,11.9,0.2
		c-0.2-16.7-11.3-30.2-27.1-34.6c5.4-10.2,16.4-14.9,26.9-12.3c10.3,2.6,17.9,11.6,18.2,23c4,0.3,7.6,0.3,11.8,0
		c0.2-8.7-3-16.5-8.7-23.3c5.2-9.9,17.4-14.8,28.2-11c-0.7,3.7-1.6,6.7-1.4,10.4c4,0.3,7.7,0.4,11.9,0c0.2-10.4,6.6-18.8,15.5-22.1
		C282.5,265.5,292.9,268.1,299.8,276.2z M364.6,165.2c-2.3,15.4-14.7,27.9-30.3,30.1c-16.3,2.3-32.1-6.6-38.3-22.1l27.5-18.4
		l20.9,10.1l5.2-10.5l-26.9-13.4l-29.3,19.4l-0.1-33.7l6.9-5.2l12.8,12.5l8.3-8.3l-11.5-12l11-9c-2.3-3.3-4.7-6.2-7.3-9.2l-20,15.7
		l0-25.9l14.9-10c-1.6-3.8-4.2-6.6-6.3-10l-8.5,5.2l-0.3-15.6l-20.4-13.6c-2.6,3.2-4.6,6.4-6.6,9.9l15.1,10.1l0,73.8
		c-6.5-5.4-13.2-9.7-19-15.5c-4.9-4.9-7.3-11.6-12-16.8l-9.6,6.4l8.9,13.8l-14.2,14.4c2.7,3.1,5.3,5.6,8.3,8.3l14.3-14.1l23.2,18.8
		c0.2,3.1,0,5.7,0.1,8.6c0.2,18.2-13.1,33.2-30.3,35.9c-18,2.8-35-8.4-39.9-25.4c-5.1-17.8,3.9-36,20.9-43.3c0.6-0.2,1.2-0.7,1.4-1
		c1-1.6-11.2-13.8-3.2-31.7c3.4-7.7,11-14.8,20.9-16.9c2.4-0.5,4.6-0.9,7.4-1.7c-1-3.1-2.7-5.5-4-8.5c-6.7-15.3-2-33,11.1-42.9
		c13.1-10,31.4-9.8,44.4,0.8c12.5,10.2,16.9,27.8,9.8,42.9c-1.3,2.7-2.7,5-3.7,7.8l7.4,1.6c9.7,2.1,17.3,8.9,20.9,16.8
		c7.8,17.1-3.2,29.5-3.2,31.4c0,0.7,1.1,1.4,1.9,1.8C358.3,133.5,367,148.8,364.6,165.2z"/>
	<path d="M6.5,363.3l-0.1,11.8l11.9-0.1c0-4.3,0.3-8-0.2-11.8L6.5,363.3z"/>
	<path d="M335.7,219.7l-30.2-0.1c-1.2,9.5,1,18.6,7.3,25.8c5.7,6.5,14.3,10.2,23.7,10.2l28.2-0.1
		C367.7,237.1,354.6,219.8,335.7,219.7z M335.7,243.6c-7.7,0.2-14.7-4.4-17.2-11.8l16.6-0.2c7.3,0.2,13.9,4,16.8,11.7
		C346.3,244,341.2,243.4,335.7,243.6z"/>
</g>
</svg>
