<?xml version="1.0" encoding="utf-8"?>
<!-- Generator: Adobe Illustrator 30.1.0, SVG Export Plug-In . SVG Version: 9.03 Build 0)  -->
<svg version="1.1" id="Isolation_Mode" xmlns="http://www.w3.org/2000/svg" xmlns:xlink="http://www.w3.org/1999/xlink" x="0px"
	 y="0px" viewBox="0 0 384 384" style="enable-background:new 0 0 384 384;" xml:space="preserve">
<style type="text/css">
	.st0{fill:#161616;}
</style>
<g>
	<path class="st0" d="M372.3,6.9H12.7c-3.2,0-5.4,2.2-5.4,5.4l0,359.7c0,3.2,2.2,5.4,5.4,5.4h359.7c3.2,0,5.4-2.2,5.4-5.4l0-359.7
		C377.8,9.2,375.5,6.9,372.3,6.9z M367.3,17.4l0,45.6l-108.7,0l-0.1-45.6L367.3,17.4z M248,17.4l0,45.6l-110.9,0L137,17.4L248,17.4z
		 M126.5,17.4l0,45.6L17.8,63l-0.1-45.6L126.5,17.4z M76.3,366.9l0-269.7l110.9-0.1l0,269.7L76.3,366.9z M197.8,366.9l0-269.7
		l110.9-0.1l0,269.7L197.8,366.9z M319.2,366.9l0-275c-0.4-3.1-2.1-5.2-5.4-5.2l-242.6,0c-3.3,0-5,2.2-5.4,5.1l0,106.3l-31.4,0.3
		c-2.9,0-4.9,2.3-5.1,5.1l0,56.7c0.1,3.8,2.9,5.5,6.5,5.5l30.1,0l0,101.2l-48.1,0l0.1-293.3l349.4,0l0.1,293.4L319.2,366.9z
		 M65.8,255l-26.1,0l0-46.1l25.9-0.1L65.8,255z"/>
	<path class="st0" d="M289.3,255.7l-14.5-0.1l-0.2-84.7c0-2.9-3-4.6-5.5-4.6l-31.6,0c-3.4,0-5.7,2.2-5.7,5.7l0,83.6l-15.2,0.2
		c-2.5,0-4.2,1.8-4.7,4c-0.4,1.6,0,3.7,1.7,5.2l36.1,31.3c2.2,1.9,5.1,1.9,7.5-0.2L293,265c1.9-1.6,2.2-4,1.3-6.2
		C293.7,257.1,291.8,255.7,289.3,255.7z M253.2,285.5l-21.6-18.7c1.8-1,3.8-0.3,5.8-0.6c3.1-0.4,4.9-2.6,4.9-5.8l0-83.5l21.8,0
		l0,83.5c0,3.9,2.6,6,6.3,5.9c1.4,0,2.9-0.4,4.3,0.5L253.2,285.5z"/>
	<path class="st0" d="M134.9,167.4c-1.9-1.6-4.9-1.2-6.7,0.3l-36.5,31.6c-1.8,1.6-1.9,4.2-0.9,6.3c0.6,1.3,2.4,2.7,4.4,2.7l15,0.2
		l0.1,83.8c0,3.3,2.6,5.4,5.7,5.4l32.4-0.1c2.8,0,4.8-2.6,4.8-5.2l0.1-83.9l15-0.2c2.4,0,4.2-1.5,4.9-3.7c0.6-1.7,0.1-4.1-1.7-5.7
		L134.9,167.4z M142.8,202.7l-0.1,84.3l-21.9,0.1l0-83.6c0-7.9-8.9-4.7-10.6-6.1l21.6-18.8l21.7,18.8
		C151.3,198.4,142.8,196.4,142.8,202.7z"/>
	<path class="st0" d="M205.6,46c3.2-0.9,5.1-4.1,4-7.7c-0.7-2.5-3.8-4.8-7.3-3.8c-3.8,1.1-5.1,5-4,7.8
		C199.4,45.4,202.5,46.8,205.6,46z"/>
	<path class="st0" d="M159.8,46c2.9-0.6,5.1-3.6,4.6-6.9c-0.5-2.9-3.3-5.6-7.1-4.9c-3.8,0.7-5.3,4.3-4.8,7
		C153.3,44.9,156.3,46.7,159.8,46z"/>
	<path class="st0" d="M183,45.9c2.7-0.8,4.9-3.9,3.9-7.5c-0.7-2.5-3.6-4.8-6.9-4.1c-3.6,0.7-5.5,4.1-4.7,7.4
		C176.1,44.8,179.3,47,183,45.9z"/>
	<path class="st0" d="M228,46c2.8-0.6,5.1-3.6,4.6-6.7c-0.5-3-3.3-5.7-7.1-5c-3.8,0.7-5.4,4.3-4.8,7C221.5,44.9,224.5,46.7,228,46z"
		/>
	<path class="st0" d="M54.7,227.4c2.5-0.7,4.9-3.7,3.9-7.4c-0.7-2.4-3.5-4.9-7.1-4.1c-3.8,0.9-5.5,4.6-4.3,7.9
		C48.1,226.5,51,228.4,54.7,227.4z"/>
	<path class="st0" d="M50.1,237c-3.5,1.7-4.1,5.9-2.3,8.7c1.6,2.5,5,3.4,7.8,2c3-1.5,4-5.1,2.7-7.9C56.8,236.8,53.4,235.3,50.1,237z
		"/>
</g>
</svg>
