<?xml version="1.0" encoding="utf-8"?>
<!-- Generator: Adobe Illustrator 30.1.0, SVG Export Plug-In . SVG Version: 9.03 Build 0)  -->
<svg version="1.1" id="Layer_1" xmlns="http://www.w3.org/2000/svg" xmlns:xlink="http://www.w3.org/1999/xlink" x="0px" y="0px"
	 viewBox="0 0 15 15" style="enable-background:new 0 0 15 15;" xml:space="preserve">
<style type="text/css">
	.st0{fill:#9D9D9D;}
</style>
<g>
	<g>
		<path class="st0" d="M14.9,9.1v5.5h-3.2V9.4c0-1.3-0.5-2.2-1.6-2.2c-0.9,0-1.4,0.6-1.6,1.2C8.4,8.7,8.4,8.9,8.4,9.2v5.3H5.2
			c0,0,0-8.7,0-9.5h3.2v1.4c0,0,0,0,0,0h0v0c0.4-0.6,1.2-1.6,2.9-1.6C13.3,4.8,14.9,6.1,14.9,9.1L14.9,9.1z M1.9,0.4
			c-1.1,0-1.8,0.7-1.8,1.6c0,0.9,0.7,1.6,1.8,1.6h0c1.1,0,1.8-0.7,1.8-1.6C3.6,1.1,2.9,0.4,1.9,0.4L1.9,0.4z M0.3,14.6h3.2V5H0.3
			V14.6z"/>
	</g>
</g>
</svg>
