<?xml version="1.0" encoding="UTF-8"?>
<svg version="1.1" xmlns="http://www.w3.org/2000/svg" width="334" height="401">
<path d="M0 0 C0.7734375 0.3403125 0.7734375 0.3403125 1.5625 0.6875 C0.09757592 4.48832884 -1.70213367 5.73168952 -5.2421875 7.640625 C-6.21260986 8.17333008 -7.18303223 8.70603516 -8.18286133 9.25488281 C-9.73203247 10.08777832 -9.73203247 10.08777832 -11.3125 10.9375 C-13.41969262 12.10105018 -15.52518112 13.26769217 -17.62890625 14.4375 C-19.14315186 15.27861328 -19.14315186 15.27861328 -20.68798828 16.13671875 C-34.91612217 24.16167937 -45.82051752 32.45249642 -51.6875 48 C-54.12621822 59.9903646 -53.74096909 72.67413098 -54.05419922 84.8671875 C-54.10827873 86.87755158 -54.16268022 88.88790701 -54.21737671 90.89825439 C-54.33408516 95.20379604 -54.44902613 99.5093799 -54.56270981 103.81500244 C-54.74324208 110.63316176 -54.930828 117.45111586 -55.11990356 124.26904297 C-55.18475049 126.6103819 -55.24959076 128.95172101 -55.31442451 131.2930603 C-55.36310437 133.05085375 -55.36310437 133.05085375 -55.41276765 134.84415817 C-55.85126405 150.69861481 -56.28388996 166.55321205 -56.70263672 182.40820312 C-56.98586271 193.12984268 -57.27849435 203.85118168 -57.58170712 214.57227516 C-57.74145493 220.23468883 -57.89639753 225.89714188 -58.03969955 231.55999756 C-58.17450925 236.88576151 -58.3216772 242.211044 -58.47806168 247.53621674 C-58.53302705 249.48183647 -58.58354143 251.42758826 -58.62908936 253.37345123 C-59.26145289 280.10031356 -59.26145289 280.10031356 -65.625 289.5625 C-66.15480469 290.38492187 -66.68460938 291.20734375 -67.23046875 292.0546875 C-73.44988736 299.47395855 -81.11889274 304.15264982 -89.4375 308.9375 C-90.61025971 309.62086742 -91.78244614 310.30521949 -92.95410156 310.99047852 C-95.45648986 312.45338713 -97.96102576 313.9125232 -100.46679688 315.36962891 C-106.71085055 319.00721092 -112.91819789 322.70688726 -119.12890625 326.40100098 C-121.12170735 327.58588099 -123.11537923 328.76928023 -125.109375 329.95214844 C-131.38171888 333.67403228 -137.64645369 337.40806889 -143.8984375 341.1640625 C-153.09128953 346.68683186 -162.30942562 352.16698279 -171.5402832 357.62597656 C-172.93707258 358.4523711 -174.33380184 359.27886725 -175.73046875 360.10546875 C-176.4050563 360.50468536 -177.07964386 360.90390198 -177.77467346 361.31521606 C-181.57528759 363.56893483 -185.35438824 365.85282294 -189.11328125 368.17578125 C-190.29011475 368.89519897 -190.29011475 368.89519897 -191.49072266 369.62915039 C-192.86109863 370.469215 -194.22476225 371.32038594 -195.57958984 372.18530273 C-198.3624202 373.87818483 -200.00383746 374.7182646 -203.30078125 374.484375 C-205.4375 373.6875 -205.4375 373.6875 -206.4375 372.6875 C-206.5428552 370.82918503 -206.57499843 368.96671516 -206.58006287 367.10542297 C-206.58356027 365.8761996 -206.58705767 364.64697622 -206.59066105 363.38050365 C-206.58773803 361.98975148 -206.58410077 360.59900066 -206.57983398 359.20825195 C-206.57884292 358.48948147 -206.57785185 357.770711 -206.57683074 357.03015959 C-206.53615089 335.94221189 -205.86829308 314.8647696 -205.25885701 293.78730559 C-205.09070361 287.94059256 -204.92759642 282.09373829 -204.76377869 276.24690247 C-204.48865228 266.453166 -204.21000417 256.65953501 -203.92895508 246.8659668 C-203.60564155 235.59877095 -203.28711373 224.33144792 -202.971304 213.06403941 C-202.63213051 200.96450921 -202.28960825 188.86507549 -201.94604945 176.76566911 C-201.84839144 173.31891675 -201.75133138 169.872148 -201.65440559 166.42537498 C-201.5013491 160.98881638 -201.34601369 155.55232715 -201.18901634 150.11588097 C-201.13225541 148.13921691 -201.07619902 146.16253246 -201.02095795 144.18582535 C-200.7457144 134.35420569 -200.42053869 124.52690782 -199.95848083 114.70210266 C-199.9217539 113.8775515 -199.88502697 113.05300034 -199.8471871 112.20346278 C-199.33790325 101.96984803 -197.29652273 95.87976506 -190.27734375 88.20703125 C-180.75246938 79.75648934 -169.96723941 75.0165472 -158.4375 69.9375 C-156.56851397 69.10462878 -154.70003376 68.27062166 -152.83203125 67.43554688 C-148.957666 65.70459482 -145.08118829 63.97850937 -141.203125 62.25585938 C-133.12767775 58.66428932 -125.07926012 55.01329306 -117.03027344 51.36291504 C-112.66727938 49.38498332 -108.30228292 47.41148017 -103.9375 45.4375 C-102.18749054 44.64585424 -100.43749054 43.85418758 -98.6875 43.0625 C-88.18750001 38.31250001 -88.18750001 38.31250001 -85.56303406 37.12524414 C-83.81125132 36.3327693 -82.05947113 35.54028882 -80.30769348 34.74780273 C-75.95999017 32.78095512 -71.61224403 30.81420228 -67.2644043 28.84765625 C-59.06385051 25.13838894 -50.86375433 21.42811873 -42.66506958 17.71472168 C-38.79274188 15.96091027 -34.92018366 14.20760822 -31.04760742 12.4543457 C-29.20178887 11.6185003 -27.35608327 10.7824054 -25.51049805 9.94604492 C-22.95129494 8.78631429 -20.39170358 7.62744455 -17.83203125 6.46875 C-17.0829097 6.12900146 -16.33378815 5.78925293 -15.56196594 5.43920898 C-13.5228026 4.516694 -11.48032844 3.60186193 -9.4375 2.6875 C-8.780914 2.38666504 -8.124328 2.08583008 -7.44784546 1.77587891 C-2.71220232 -0.34771825 -2.71220232 -0.34771825 0 0 Z " fill="#FF6417" transform="translate(206.4375,0.3125)"/>
<path d="M0 0 C2 2 2 2 2.18140411 4.68430614 C2.13275837 6.41164218 2.13275837 6.41164218 2.08312988 8.1738739 C2.06787246 8.81565242 2.05261504 9.45743094 2.03689528 10.11865729 C1.98289982 12.28480135 1.91420819 14.45023653 1.84570312 16.6159668 C1.80403701 18.16983774 1.76328877 19.72373354 1.72338867 21.27765083 C1.61138541 25.54041253 1.4867284 29.80272525 1.36007118 34.06507325 C1.227058 38.61574605 1.10570054 43.16672932 0.98327637 47.71769714 C0.77309958 55.48316539 0.55634186 63.24842663 0.3359375 71.01361084 C0.00318046 82.76334575 -0.30559277 94.51364537 -0.609375 106.26416016 C-1.06510756 123.85598168 -1.53486531 141.44737611 -2.01622009 159.03851509 C-2.31792292 170.07070958 -2.61394614 181.10302802 -2.90320349 192.13555604 C-3.11232298 200.0933115 -3.32781094 208.05087945 -3.54799891 216.00833625 C-3.67740042 220.69111103 -3.80410843 225.37391864 -3.9236908 230.05695534 C-4.03463791 234.39773006 -4.15350767 238.73821705 -4.27836418 243.07861328 C-4.3223723 244.65548139 -4.36358033 246.23243079 -4.40162849 247.80945396 C-5.07968638 275.67971641 -5.07968638 275.67971641 -14.6875 286.4375 C-26.80815728 297.85776617 -44.5161259 303.48338981 -59.52986145 310.12495422 C-67.58806332 313.69473004 -75.61323539 317.33729492 -83.64038086 320.97622681 C-97.72886935 327.36254701 -111.82752705 333.72579124 -125.93753052 340.06442261 C-138.85141832 345.8658116 -151.75047623 351.6972718 -164.621521 357.59317017 C-166.83455683 358.60648176 -169.04825264 359.61833578 -171.26220703 360.62963867 C-172.6552824 361.26609366 -174.04834905 361.90256774 -175.44140625 362.5390625 C-176.43442749 362.99273949 -176.43442749 362.99273949 -177.44750977 363.45558167 C-181.2932188 365.21422722 -185.13118616 366.98870053 -188.96484375 368.7734375 C-190.58057869 369.51595252 -192.19644718 370.25817707 -193.8125 371 C-194.82449463 371.48073975 -194.82449463 371.48073975 -195.85693359 371.97119141 C-199.72384843 373.72962219 -202.76041538 374.31163869 -207 374 C-205.50548524 369.95996782 -203.31592268 368.71641795 -199.609375 366.6796875 C-198.51351074 366.06689941 -197.41764648 365.45411133 -196.28857422 364.82275391 C-195.42084381 364.34579071 -195.42084381 364.34579071 -194.5355835 363.85919189 C-169.22945462 350.64530568 -169.22945462 350.64530568 -153.69140625 327.87109375 C-152.14466509 321.44818555 -151.82939287 314.96385303 -151.65869141 308.38754272 C-151.63404123 307.55754057 -151.60939106 306.72753841 -151.58399391 305.87238467 C-151.50288848 303.11081568 -151.42723128 300.34912523 -151.3515625 297.58740234 C-151.29426266 295.59910116 -151.2366161 293.61080994 -151.1786499 291.62252808 C-151.05477713 287.34911356 -150.93329315 283.07564023 -150.81365967 278.80210495 C-150.62413532 272.03450589 -150.42892781 265.26707797 -150.23291016 258.49966431 C-149.85267684 245.34586163 -149.47805382 232.19190216 -149.10415649 219.03791809 C-148.62868259 202.31671442 -148.15113278 185.59557228 -147.66761589 168.8745991 C-147.47359266 162.15814608 -147.28256272 155.44161678 -147.09391785 148.72501063 C-146.97554328 144.53097126 -146.85469652 140.33700561 -146.73322296 136.14305496 C-146.67776135 134.21066483 -146.62331243 132.27824529 -146.56999969 130.34579468 C-145.4406958 89.48930239 -145.4406958 89.48930239 -133.42675781 77.41943359 C-127.9129291 72.31324755 -121.79464205 68.7579967 -115.25 65.125 C-112.91632013 63.80487502 -110.58404601 62.48258322 -108.25390625 61.15625 C-107.65584671 60.81663239 -107.05778717 60.47701477 -106.44160461 60.12710571 C-99.94365914 56.42381558 -93.5649521 52.53089609 -87.1875 48.625 C-77.61974406 42.77442678 -67.99865571 37.02742296 -58.3125 31.375 C-49.01116062 25.94556747 -39.73497593 20.47946089 -30.5 14.9375 C-29.46681641 14.31915283 -28.43363281 13.70080566 -27.36914062 13.0637207 C-23.13540345 10.52230005 -18.91608106 7.97087023 -14.76953125 5.2890625 C-14.16882813 4.90371338 -13.568125 4.51836426 -12.94921875 4.12133789 C-11.47493049 3.16758071 -10.01209481 2.19617632 -8.55078125 1.22265625 C-5.46907473 -0.25448639 -3.37837537 -0.38272504 0 0 Z " fill="#FF7F15" transform="translate(330,14)"/>


</svg>
