<?xml version="1.0" encoding="utf-8"?>
<!-- Generator: Adobe Illustrator 30.1.0, SVG Export Plug-In . SVG Version: 9.03 Build 0)  -->
<svg version="1.1" id="Isolation_Mode" xmlns="http://www.w3.org/2000/svg" xmlns:xlink="http://www.w3.org/1999/xlink" x="0px"
	 y="0px" viewBox="0 0 74.9 74.9" style="enable-background:new 0 0 74.9 74.9;" xml:space="preserve">
<style type="text/css">
	.st0{fill:#FFFFFF;}
</style>
<path class="st0" d="M74,35.3c-1.2-20-18.5-35.5-38.8-34.2C14.9,2.4-0.3,20,1,40c1.3,20.1,18.7,35.3,38.8,34.1
	C59.8,72.9,75.2,55.5,74,35.3z M64.5,21.1c-4,1.5-8,2.4-12.2,3.2c-0.7-3.8-1.5-7.3-2.7-10.8c-0.8-2.2-1.7-4.1-2.9-6.2
	C54.1,9.6,60.4,14.5,64.5,21.1z M48.1,45.5c-7.1-0.7-14.1-0.7-21.2,0c-0.5-5.3-0.5-10.5,0-15.7c7.1,0.7,14,0.7,21.2,0
	C48.6,34.9,48.6,40.1,48.1,45.5z M32.8,9.5c0.7-1.1,1.6-2.1,2.7-2.8c2.8-2,5.3,0.7,6.8,2.9c1.2,1.8,2,3.7,2.8,5.7
	c1.1,3.1,1.9,6.2,2.4,9.6c-6.7,0.7-13.3,0.7-19.9,0c0.5-3.4,1.3-6.5,2.4-9.6C30.7,13.2,31.6,11.3,32.8,9.5z M28.3,7.3
	c-1.2,2-2.1,4-2.9,6.1c-1.3,3.5-2.1,6.9-2.8,10.8c-4.2-0.6-8.2-1.6-12.3-3.1C14.5,14.5,20.8,9.6,28.3,7.3z M8.2,25.5
	c4.6,1.7,9.1,2.8,13.8,3.6c-0.5,5.7-0.6,11.2,0,17c-4.7,0.8-9.3,1.9-13.8,3.6C5,42,5,33.3,8.2,25.5z M10.4,54.1
	c4.1-1.5,8.1-2.5,12.2-3.1c0.6,3.8,1.5,7.3,2.8,10.9c0.8,2.2,1.8,4.1,2.8,6.1C20.7,65.6,14.5,60.7,10.4,54.1z M35.4,68.6
	c-1.1-0.8-1.9-1.7-2.7-2.8c-2.9-4.5-4.4-10-5.3-15.4c6.6-0.7,13.2-0.7,19.9,0c-0.8,5.2-2.3,10.8-5.1,15.3
	C40.8,67.8,38.3,70.6,35.4,68.6z M46.6,67.9c1.1-2,2.1-4,2.9-6.1c1.3-3.5,2.1-7.1,2.8-10.9c4.2,0.7,8.2,1.6,12.3,3.1
	C60.4,60.7,54.2,65.6,46.6,67.9z M66.7,49.7c-4.6-1.7-9.1-2.8-13.9-3.6c0.5-5.7,0.5-11.3,0-17c4.7-0.8,9.3-1.9,13.8-3.6
	C69.9,33.3,70,41.9,66.7,49.7z"/>
</svg>
