<?xml version="1.0" encoding="utf-8"?>
<!-- Generator: Adobe Illustrator 30.1.0, SVG Export Plug-In . SVG Version: 9.03 Build 0)  -->
<svg version="1.1" id="Layer_1" xmlns="http://www.w3.org/2000/svg" xmlns:xlink="http://www.w3.org/1999/xlink" x="0px" y="0px"
	 viewBox="0 0 384 384" style="enable-background:new 0 0 384 384;" xml:space="preserve">
<style type="text/css">
	.st0{fill:#FFFFFF;}
</style>
<g>
	<path class="st0" d="M368.2,340.5l-63.9-63.9c54.3-66.2,46.2-163.3-16.6-220C224.4-0.4,127.2,2.2,67.1,62.5
		C7,122.8,4.7,220,62.1,283.1c56.8,62.4,153.6,70.4,219.6,16.2l64.1,64.1c6.6,6.6,16.8,6,22.8-0.3
		C374.4,357,374.9,347.2,368.2,340.5z M190.6,303.6C120.3,308.9,59,256.3,53.4,186c-5.5-70.1,47-132.3,118.1-137.6
		c70.9-5.3,131.7,48,137.1,117.8C314,236.7,261.1,298.3,190.6,303.6z"/>
	<path class="st0" d="M229.2,160l-32.2-0.1l0-31.7c0-9.2-7.3-16.2-16.1-16.2c-8.7,0-15.9,7-15.9,16.2l-0.1,31.6l-32.4,0.2
		c-9.1,0-15.8,7.9-15.5,16.5c0.3,8.6,7.2,15.5,16.2,15.5l31.8,0l-0.1,30c0,9.6,6,17.5,15.3,17.9c9.2,0.5,16.9-6.8,16.9-16.7L197,192
		l32.3-0.1c9,0,15.7-7.5,15.7-16.1C244.9,167.4,238.2,160.1,229.2,160z"/>
</g>
</svg>
