<?xml version="1.0" encoding="UTF-8"?>
<svg id="Layer_2" data-name="Layer 2" xmlns="http://www.w3.org/2000/svg" viewBox="0 0 542.34 548">
  <defs>
    <style>
      .cls-1 {
        fill: #61605f58;
      }
    </style>
  </defs>
  <g id="Isolation_Mode" data-name="Isolation Mode">
    <path class="cls-1" d="M528.67,191.22c-3.08-9.74-54.29-163.19-193.59-187.97-96.14-17.1-171.85,38.19-196.39,56.11C54.82,120.61-28.84,248.15,9.63,367.97c50.24,156.49,288.46,236.37,429.25,134.67,95.38-68.9,123.49-204.82,89.78-311.42ZM416.44,337.11c-22.19,53.99-77.97,109.54-148.7,106.61-80.9-3.35-140.48-81.53-145.89-157.11-5.87-81.96,51.48-167.56,131.86-179.56,77.81-11.61,134.11,52.17,137.47,56.11,43.35,50.74,47.31,120.28,25.25,173.95Z"/>
  </g>
</svg>