<?xml version="1.0" encoding="utf-8"?>
<!-- Generator: Adobe Illustrator 30.1.0, SVG Export Plug-In . SVG Version: 9.03 Build 0)  -->
<svg version="1.1" id="Isolation_Mode" xmlns="http://www.w3.org/2000/svg" xmlns:xlink="http://www.w3.org/1999/xlink" x="0px"
	 y="0px" viewBox="0 0 384 384" style="enable-background:new 0 0 384 384;" xml:space="preserve">
<style type="text/css">
	.st0{fill:#FFFFFF;}
</style>
<g>
	<path class="st0" d="M188.4,323h-6.1c-7.5-2.6-12.7-10.6-8.6-18.2l12.4-23.4c3.3-6.2,11.4-8,17.2-4.7c5.6,3.1,8.4,10.7,5.2,16.8
		l-11,20.9C195.3,318.6,192.3,321,188.4,323z"/>
	<path class="st0" d="M254.7,200.8c-3.9-2.2-7.8-0.5-9.4,2.4c-1.9,3.4-0.9,7.5,2.6,9.5l42.5,24.3c6.1,3.5,7.5,11.7,4.2,17.3
		c-3.4,5.7-10.9,8.2-17.1,4.7l-53.2-29.7c-3.5-2-7.6-0.3-9.2,2.7c-1.8,3.3-0.8,7.4,2.7,9.4l42.1,23.9c6.2,3.5,7.9,11.2,4.9,17
		c-3.1,6-11.2,9.1-17.4,5.2c-9.6-6-20.5-9.9-29.4-17c-8.8-6.9-18.1-11.9-29.9-7.5c-4-15.8-19.7-23.5-34.5-18.6
		c-3.8-14.1-17.2-22.4-31.4-19.5c-1.3-10.6-8.1-18.8-16.9-22.1c-10.2-3.8-20.7-1.3-28.4,6.1c-3.7-11.5-4.1-16.7-15.8-22L23.2,170
		l41.2-88l44.3,20.3c7.4,3.4,15.4,2.4,23.2,1.4l22.3-4.8c10.2-2.2,20.5-1.7,30,3.1l-14.7,13.8c-13.8,13-29.2,23.6-45.6,33.2
		c-3.7,2.1-4.9,6.5-2.5,10c12,17.6,29.6,27.4,51.4,23.9c10.1-1.6,19.2-5,28.6-8.8c11.4-4.5,32.8-14.7,44.4-8l70.4,40.1
		c6.1,3.5,7.3,11.9,4.1,17.1c-3.5,5.7-11,8.2-17.1,4.8L254.7,200.8z"/>
	<path class="st0" d="M226.9,151.1c-30.8,5.3-63.7,35.7-89.5,5.8c18.7-11.1,35.1-24.3,50.3-39.5c6.4-6.4,13.5-11.3,21.3-15.6
		c13.2-7.3,28-8.5,42.1-3.1l24.2,9.2c9,2.9,18.5,4,26.9-0.5L331.3,92l35.7,92.3l-37.3,15.9c-2.7-3-5.2-5.1-8.6-7l-68.4-38.9
		C244.8,149.7,235.8,149.5,226.9,151.1z"/>
	<path class="st0" d="M122.2,288.2c-3.6,6.7-11.4,8.7-17.5,5.4c-5.9-3.2-8.5-10.9-5.1-17.3l17.6-32.6c3.2-6,11.8-7.1,17.1-4
		c5.9,3.6,7.9,11.2,4.5,17.5L122.2,288.2z"/>
	<path class="st0" d="M160.2,300.6c-3.6,6.7-11.4,8.7-17.3,5.5c-6.2-3.3-8.8-11-5.3-17.4l14-26.1c3.3-6.2,11.3-7.9,17.1-4.7
		c6,3.3,8.4,11,5,17.4L160.2,300.6z"/>
	<path class="st0" d="M94.6,256.4c-3.6,6.7-11.4,8.8-17.5,5.5c-6-3.2-8.6-11-5.1-17.4l12.5-23.4c3.2-6,10.8-8.1,16.5-5.4
		c6.2,2.9,9.4,10.8,6.1,17.1L94.6,256.4z"/>
	<path class="st0" d="M223.8,319.1c-3.8-1.7-6.8-3.6-10.2-5.6c3.9-9,8.5-13.2,10-23.4c4.2,2.2,8.1,4.1,12,6.6
		c5.6,3.5,7.5,10.7,4.6,16.5C237.5,318.8,230.4,322,223.8,319.1z"/>
</g>
</svg>
