<?xml version="1.0" encoding="UTF-8"?>
<svg id="Layer_1" data-name="Layer 1" xmlns="http://www.w3.org/2000/svg" viewBox="0 0 601.51 704.29">
  <defs>
    <style>
      .cls-1 {
        fill: #ff7f15;
      }

      .cls-2 {
        fill: #ff6417;
      }
    </style>
  </defs>
  <path class="cls-2" d="M376.54,1.14c-.67-1.1-2.08-1.47-3.19-.82l-8.43,3.31L64.71,139.37l-.49.24c-49.34,21.37-50.68,47.74-51.26,68.61L0,672.02c-.16,5.75,6.14,9.37,11.02,6.33l219.09-130.46c21.23-13.18,34.43-36.13,35.12-61.11l10.61-368.75c.58-20.89,1.09-31.53,10.34-49.99,7.31-14.57,32.32-30.08,40.96-35.36l48.88-28.47c.92-.74,1.15-2.04.53-3.04,0-.01-.02-.03-.02-.04Z"/>
  <path class="cls-1" d="M224.97,703.15c.67,1.1,2.08,1.47,3.19.82l8.43-3.31,300.21-135.74.49-.24c49.34-21.37,50.68-47.74,51.26-68.61l12.96-463.81c.16-5.75-6.14-9.37-11.02-6.33l-219.09,130.46c-21.23,13.18-34.43,36.13-35.12,61.11l-10.61,368.75c-.58,20.89-1.09,31.53-10.34,49.99-7.31,14.57-32.32,30.08-40.96,35.36l-48.88,28.47c-.92.74-1.15,2.04-.53,3.04,0,.01.02.03.02.04Z"/>
</svg>