<?xml version="1.0" encoding="UTF-8"?>
<svg id="Layer_2" data-name="Layer 2" xmlns="http://www.w3.org/2000/svg" viewBox="0 0 44.91 45">
  <g id="Isolation_Mode" data-name="Isolation Mode">
    <g>
      <path d="M22.52,3c-10.83-.02-19.5,8.78-19.52,19.45-.02,10.77,8.68,19.52,19.42,19.55,10.69.03,19.52-8.67,19.5-19.56,0-.78.7-1.42,1.45-1.44.8-.02,1.54.64,1.54,1.43.04,12.52-10.12,22.56-22.4,22.58C10.12,45.02.03,34.95,0,22.53-.03,10.2,10-.05,22.53,0c.75,0,1.4.69,1.42,1.45s-.64,1.54-1.44,1.54Z"/>
      <path d="M22.51,11.24c-6.28,0-11.25,5.07-11.28,11.21s5,11.27,11.19,11.3,11.27-4.98,11.27-11.27c0-.83.68-1.45,1.45-1.47.81-.02,1.53.63,1.54,1.46.02,7.93-6.4,14.27-14.17,14.29s-14.2-6.29-14.27-14.11,6.22-14.34,14.17-14.38c.8,0,1.47.56,1.54,1.37.07.76-.51,1.62-1.44,1.62Z"/>
      <path d="M29.93,17.14l-4.92,4.91c-.58.58-1.46.58-2.05.06-.55-.48-.74-1.49-.15-2.09l4.98-5.01-1.55-4.67c-.19-.58-.05-1.15.38-1.59L34.95.43c.39-.39.9-.51,1.43-.38.43.1.87.47,1.04.99l1.61,4.83,4.85,1.62c.48.16.84.58.95.98.16.55.05,1.1-.36,1.5l-8.36,8.38c-.41.36-.94.54-1.47.36l-4.72-1.58ZM40.63,9.59l-3.27-1.11c-.42-.15-.76-.49-.92-.92l-1.11-3.27-5.96,5.98,1.33,3.98,3.98,1.32,5.95-5.98Z"/>
    </g>
  </g>
</svg>