<?xml version="1.0" encoding="utf-8"?>
<!-- Generator: Adobe Illustrator 30.1.0, SVG Export Plug-In . SVG Version: 9.03 Build 0)  -->
<svg version="1.1" id="Layer_1" xmlns="http://www.w3.org/2000/svg" xmlns:xlink="http://www.w3.org/1999/xlink" x="0px" y="0px"
	 viewBox="0 0 384 384" style="enable-background:new 0 0 384 384;" xml:space="preserve">
<g>
	<path d="M252,312.9c26.9-40.1,36.9-90.8,36.6-137.7c0-5.6-4.8-10-10.2-10l-53.7-0.2c-6.1,0-10.5-4.9-10.5-11.1l0.1-84.9
		c0-5.8,4.6-10.4,10.4-10.4l84.9-0.1c6.1,0,11.1,4.4,11.1,10.6l0.2,99.8c0.1,55.6-14.6,109.1-45.8,155.7L252,312.9z"/>
	<path d="M81.6,312.8c27.1-40.6,36.2-89,36.7-136.3c0.1-6.4-4.5-11.2-11-11.2l-52.5-0.1c-6.4,0-11.1-4.7-11.1-11.2l0.1-84.8
		c0-6.2,5-10.6,11.1-10.6l84.9,0.1c5.7,0,10.4,4.6,10.4,10.4l0,106.2c0,53.6-16,104.9-45.6,149.5L81.6,312.8z"/>
</g>
</svg>
