<?xml version="1.0" encoding="UTF-8"?>
<svg id="Layer_2" data-name="Layer 2" xmlns="http://www.w3.org/2000/svg" viewBox="0 0 43.84 34.7">
  <defs>
    <style>
      .cls-1 {
        fill: #82c26b;
      }

      .cls-2 {
        fill: #d6b86f;
      }

      .cls-3 {
        fill: #2d4356;
      }

      .cls-4 {
        fill: #feda80;
      }

      .cls-5 {
        fill: #d6b86d;
      }

      .cls-6 {
        fill: #fdd97f;
      }

      .cls-7 {
        fill: #97df7e;
      }

      .cls-8 {
        fill: #b6dfa6;
      }

      .cls-9 {
        fill: #fdda80;
      }

      .cls-10 {
        fill: #2e4356;
      }

      .cls-11 {
        fill: #82c36b;
      }

      .cls-12 {
        fill: #2e4457;
      }

      .cls-13 {
        fill: #fbe3a8;
      }

      .cls-14 {
        fill: #2e4456;
      }

      .cls-15 {
        fill: #fdd980;
      }

      .cls-16 {
        fill: #97df7d;
      }
    </style>
  </defs>
  <g id="Layer_1-2" data-name="Layer 1">
    <g>
      <path class="cls-3" d="M43.84,18.14v.79c-.08.32-.22.56-.52.61l-6.46.02-.04.06c.17.19.21.38.11.55l.27.16.59,1.17c1.9.03,3.81.08,5.72.15.18.12.29.34.33.65v.48c-.03.38-.16.62-.4.74-1.51.06-3.03.09-4.56.09l.99,1.97,3.38.02c.45.13.52.3.59.82v.5c-.05.35-.2.57-.44.64l-2.44.05c.13.38.3.74.52,1.08v.34c.19.05.33.23.43.55l1.54.11c.2.06.36.21.4.45v.7c-.17.22-.27.59-.63.59H.63c-.36,0-.46-.36-.63-.58v-.71c.03-.23.18-.38.36-.44l1.57-.11c.11-.32.25-.5.44-.55v-.34c.21-.34.38-.7.51-1.08l-2.44-.05c-.25-.08-.4-.29-.45-.64v-.61c.04-.3.15-.52.33-.64,1.2-.09,2.4-.12,3.62-.09l1.01-1.98-4.36-.04c-.38-.1-.51-.23-.6-.68v-.61c.07-.53.26-.61.66-.72h5.36c.42-.83.63-1.25.63-1.25l.26-.14c-.08-.17-.04-.37.11-.61-2.23.04-4.46,0-6.68-.08-.19-.11-.31-.32-.35-.62v-.61c.21-.34.46-.52.86-.52h3.65c.05-.35.04-.63,0-.98-1.53-.99-1.73-3.73-.74-5.35.37-.6.92-.93,1.5-.91.54.02,1.06.36,1.41.93.98,1.6.78,4.21-.72,5.36-.14.21-.04.66-.01.95h31.98c.09-.26.1-.69.03-.95-1.52-1.08-1.72-3.74-.76-5.34.36-.6.9-.96,1.47-.96s1.11.35,1.47.96c.95,1.59.77,4.19-.72,5.32-.16.22-.05.69-.02.96l3.93.04c.23,0,.35.32.52.38Z"/>
      <path class="cls-16" d="M43.84,26.42c-.15-.38-.36-.63-.77-.63h-3.3s-1.2-2.4-1.2-2.4l4.65-.02c.32-.04.46-.33.61-.59v3.64Z"/>
      <path class="cls-16" d="M0,26.31v-3.43c.18.18.32.45.61.48l4.66.02-1.22,2.4H.6c-.3.01-.43.33-.6.52Z"/>
      <path class="cls-16" d="M6.91,20.17c-.23.53-.5,1.01-.79,1.59H.77c-.37,0-.57.22-.77.52v-2.62c.12-.11.29-.02.52.27l6.29.04.1.2Z"/>
      <path class="cls-16" d="M43.84,22.29c-.17-.2-.3-.52-.6-.52l-5.52-.02c-.29-.57-.56-1.06-.79-1.58l.08-.2c2.15.02,4.29-.01,6.42-.11.14-.25.28-.33.42-.21v2.64Z"/>
      <path class="cls-8" d="M6.91,20.17l-6.36-.04c-.27,0-.37-.35-.55-.47v-.81c.18.18.32.49.62.49h6.67c-.04.37-.26.57-.37.83Z"/>
      <path class="cls-8" d="M43.84,18.93v.72c-.17.13-.28.48-.55.48l-6.36.04c-.11-.26-.33-.46-.38-.81l6.74-.02c.24-.02.35-.35.54-.41Z"/>
      <path class="cls-16" d="M43.84,29.55c-.12.12-.25.05-.37-.2-.52-.17-1.08-.21-1.7-.13l-.31-.18c-.3-.48-.56-1.01-.84-1.62l2.67-.05c.26,0,.36-.33.54-.46v2.64Z"/>
      <path class="cls-16" d="M2.37,29.04c-.35.19-.75.25-1.22.17-.45-.1-.76.03-.95.38l-.2-.05v-2.62c.18.13.29.45.54.45l2.67.05c-.28.61-.53,1.14-.84,1.62Z"/>
      <path class="cls-12" d="M0,34.18v-.61c.23-.35.52-.58.95-.49.34.07.57.38.59.75s-.18.72-.51.82c-.45.14-.78-.1-1.02-.47Z"/>
      <path class="cls-12" d="M43.84,33.59v.57c-.22.36-.51.6-.95.51-.37-.08-.61-.43-.59-.85.02-.37.25-.68.59-.75.43-.09.72.14.95.51Z"/>
      <path class="cls-12" d="M0,15.62v-.61c.23-.35.51-.59.95-.5.35.07.58.39.59.76.01.39-.19.72-.53.82-.44.13-.76-.11-1-.47Z"/>
      <path class="cls-12" d="M43.84,15.03v.57c-.22.36-.51.59-.93.51-.37-.07-.62-.41-.61-.84.01-.37.24-.68.59-.76.43-.09.73.15.95.51Z"/>
      <path class="cls-1" d="M2.37,29.04c-.13.2-.17.67-.42.76l-1.5.09c-.18.01-.29.28-.46.26v-.61c.16-.15.26-.47.53-.5.63-.06,1.25-.04,1.85,0Z"/>
      <path class="cls-1" d="M43.84,29.55v.59c-.17.02-.28-.25-.46-.26l-1.54-.1c-.21-.15-.26-.55-.38-.75.6-.04,1.21-.06,1.85,0,.27.03.37.34.52.51Z"/>
      <path class="cls-3" d="M25.19,9.65l-.41-.15c-.66-1.73-1.77-2.88-3.73-2.88-2.02,0-3.12,1.13-3.77,2.89l-.47.15c-.36.04-.65-.04-.83-.23s-.28-.48-.21-.76c.72-2.58,3.14-4.11,5.79-3.86,2.25.21,4.11,1.6,4.71,3.79.09.33,0,.65-.22.86-.24.23-.55.19-.86.19Z"/>
      <path class="cls-4" d="M24.67,9.64h-7.24c-.2-.23.14-.83.32-1.09,1.42-2.07,5.28-2.03,6.63.1.16.25.43.75.29.99Z"/>
      <path class="cls-13" d="M25.19,9.65h-.53c-.83-2.36-3.79-3.08-5.86-1.8-.69.43-1.17,1.07-1.39,1.8-.27,0-.44.06-.62,0,.89-.48.41-1.71,2.13-2.69,2.09-1.19,5.03-.41,5.72,1.91.1.34.27.58.54.77Z"/>
      <path class="cls-3" d="M16.22,4.46c.33.36.33.83.06,1.13-.29.34-.85.38-1.18.03l-1.41-1.52c-.32-.35-.28-.86.06-1.15.31-.27.81-.28,1.13.07l1.34,1.44Z"/>
      <path class="cls-3" d="M27.08,5.55c-.35.38-.87.41-1.21.07-.29-.28-.34-.78,0-1.13l1.36-1.46c.32-.35.82-.35,1.13-.07.34.3.38.81.06,1.15l-1.33,1.45Z"/>
      <path class="cls-3" d="M21.85,2.67c0,.52-.36.83-.76.86-.45.03-.86-.31-.86-.81V.79c0-.47.36-.78.76-.79.44-.02.84.29.85.79v1.88Z"/>
      <path class="cls-3" d="M18.27,1.85c.4.69,1.11,1.74.23,2.17s-1.31-.66-1.65-1.45c-.18-.42-.01-.87.42-1.06.3-.13.77-.05,1,.34Z"/>
      <path class="cls-3" d="M25.25,2.58c-.33.8-.8,1.87-1.65,1.45-.36-.18-.56-.64-.36-1.05l.55-1.07c.2-.4.65-.53.96-.42.48.16.69.64.5,1.09Z"/>
      <path class="cls-14" d="M13.37,8c-.88-.3-1.89-.7-1.55-1.55.15-.38.62-.6,1.07-.42.75.32,1.82.64,1.5,1.49-.15.39-.55.64-1.02.48Z"/>
      <path class="cls-10" d="M29.88,7.48c-.63.31-1.76,1.01-2.14.09-.18-.44,0-.88.42-1.07l1.05-.48c.41-.19.85,0,1.03.35.21.4.07.89-.36,1.1Z"/>
      <path class="cls-12" d="M22.29,14.56c.41.14.54.61.45.99-.1.42-.44.58-.82.59s-.72-.17-.82-.58c-.09-.38.05-.84.42-.98.23-.09.5-.1.77-.01Z"/>
      <path class="cls-12" d="M28.36,14.56c.4.14.52.62.44.96-.1.43-.43.61-.81.61s-.69-.13-.81-.51-.02-.86.35-1.04c.23-.11.54-.12.82-.03Z"/>
      <path class="cls-12" d="M16.27,14.58c.38.16.49.61.41.97-.1.42-.44.59-.83.59s-.71-.17-.81-.61c-.08-.35.05-.81.41-.95.24-.1.55-.11.82,0Z"/>
      <path class="cls-12" d="M31.42,14.57c.39.15.5.61.41.97-.1.43-.45.59-.85.59-.38,0-.7-.18-.8-.61-.08-.34.05-.8.41-.95.24-.1.55-.11.82,0Z"/>
      <path class="cls-12" d="M13.21,14.56c.39.14.52.62.44.96-.1.43-.42.6-.8.61-.4,0-.74-.15-.85-.59-.09-.39.06-.86.44-.98.23-.08.5-.09.76,0Z"/>
      <path class="cls-14" d="M10.19,14.57c.39.15.5.61.42.97-.1.43-.45.59-.85.59s-.7-.17-.8-.63c-.07-.33.05-.79.41-.93.24-.1.55-.11.82,0Z"/>
      <path class="cls-14" d="M34.43,14.56c.39.14.51.62.44.94-.1.45-.42.62-.8.63s-.75-.15-.85-.59c-.09-.39.06-.86.45-.99.23-.07.5-.09.76,0Z"/>
      <path class="cls-10" d="M19.24,14.55c.36.1.53.54.49.86-.06.5-.4.72-.8.72-.37,0-.71-.13-.83-.49-.13-.41-.02-.89.37-1.06.24-.1.53-.1.77-.03Z"/>
      <path class="cls-10" d="M25.34,14.57c.4.15.51.6.42.99-.1.42-.45.59-.85.57s-.7-.18-.79-.64c-.07-.35.09-.83.48-.94.22-.06.49-.08.74.02Z"/>
      <path class="cls-12" d="M22.28,33.12c.41.14.54.61.45.98-.1.42-.43.59-.82.59s-.72-.17-.82-.59c-.09-.38.05-.83.42-.98.23-.09.5-.1.77,0Z"/>
      <path class="cls-12" d="M37.44,33.12c.42.13.55.61.46.99-.1.43-.44.59-.83.59s-.71-.17-.81-.62c-.08-.35.06-.81.42-.95.22-.09.5-.1.76-.01Z"/>
      <path class="cls-12" d="M7.13,33.12c.4.13.53.62.45.96-.1.45-.43.61-.81.62s-.73-.16-.83-.59c-.09-.38.05-.84.43-.98.23-.08.5-.09.76,0Z"/>
      <path class="cls-12" d="M28.34,33.12c.4.13.55.6.47.96-.1.44-.42.61-.81.62s-.73-.16-.84-.59c-.09-.38.05-.84.43-.98.22-.08.49-.09.75-.01Z"/>
      <path class="cls-12" d="M16.21,33.12c.42.13.55.61.46.99-.1.43-.44.59-.83.59s-.72-.18-.81-.62c-.09-.39.1-.87.5-.98.2-.05.44-.06.68.01Z"/>
      <path class="cls-10" d="M10.13,33.11c.42.12.57.61.48.99-.1.44-.45.6-.85.59s-.7-.19-.8-.62c-.09-.39.09-.86.49-.97.2-.06.44-.06.68,0Z"/>
      <path class="cls-10" d="M13.12,33.1c.41.09.58.54.54.9-.06.47-.41.7-.81.69-.37,0-.7-.12-.82-.52-.12-.37,0-.85.36-1.03.21-.1.48-.11.75-.05Z"/>
      <path class="cls-3" d="M19.24,33.11c.36.1.54.54.49.87-.06.49-.4.71-.8.71-.37,0-.71-.13-.83-.5-.13-.4-.01-.89.37-1.06.24-.11.52-.1.77-.03Z"/>
      <path class="cls-3" d="M25.34,33.13c.4.15.51.61.42.99-.1.42-.45.59-.85.58s-.7-.18-.79-.64c-.08-.36.09-.84.48-.95.22-.06.49-.08.74.02Z"/>
      <path class="cls-10" d="M31.43,33.14c.38.16.49.62.41.96-.1.44-.45.6-.85.59s-.71-.19-.8-.62c-.09-.39.09-.86.49-.97.23-.06.5-.07.75.03Z"/>
      <path class="cls-10" d="M34.36,33.1c.41.1.58.54.53.9-.06.47-.41.69-.81.7s-.75-.16-.85-.59c-.09-.39.06-.85.45-.98.2-.07.44-.08.68-.02Z"/>
      <path class="cls-3" d="M4.05,33.11c.44.12.59.6.49,1.01s-.46.59-.86.58c-.38,0-.69-.2-.78-.58-.1-.43.07-.88.46-1,.2-.06.44-.07.68,0Z"/>
      <path class="cls-3" d="M40.43,33.11c.41.1.57.53.52.92-.06.44-.39.67-.79.67s-.76-.15-.86-.58.06-.87.46-1c.2-.07.44-.07.68-.01Z"/>
      <path class="cls-7" d="M26.28,20.07c.31.54.52,1.09.72,1.68l-3.12.04c.44.49.75.99,1.03,1.59l2.81.02.98,2.39-3.35.02c-.02.58-.09,1.07-.18,1.59l4.22.02c.25.58.47,1.08.64,1.61l-.06.2c-2.41,0-4.83,0-7.25,0l-.1-.2c0-.18.04-.23.15-.31,1.35-.96,1.58-3.62.6-5.22-.37-.6-.92-.95-1.49-.93-.54.02-1.06.35-1.41.93-.77,1.27-.79,3.01-.13,4.36.44.89.86.7.87,1.16l-.06.2s-2.42,0-7.25,0l-.1-.2c.17-.57.4-1.04.64-1.6l4.23-.03c-.11-.58-.16-1.04-.19-1.58l-3.34-.04.99-2.37,2.82-.03c.25-.61.56-1.07.99-1.56l-3.11-.07c.25-.63.44-1.19.73-1.66l.15-.12h8.41s.16.12.16.12Z"/>
      <polygon class="cls-16" points="13.6 25.78 5.69 25.79 6.89 23.38 14.58 23.38 13.6 25.78"/>
      <polygon class="cls-16" points="38.16 25.78 30.27 25.79 29.25 23.38 36.92 23.37 38.16 25.78"/>
      <path class="cls-16" d="M39.73,28.95l-.06.2c-2.63.03-5.26.06-7.89.09l-.16-.2c-.23-.56-.49-1.03-.66-1.64h8.03c.3.55.54,1.03.74,1.55Z"/>
      <path class="cls-16" d="M12.57,27.41s.06.06.08.1c.04.08-.6,1.58-.67,1.65-2.58.05-5.17.05-7.77-.01l-.1-.2.73-1.55h7.73Z"/>
      <path class="cls-16" d="M35.25,20.15c.34.52.58,1.04.84,1.61h-7.53s-.64-1.6-.64-1.6l.06-.2s2.37,0,7.12-.01l.16.2Z"/>
      <path class="cls-16" d="M15.92,20.16c-.21.58-.4,1.09-.67,1.61l-7.51-.02c.29-.59.52-1.13.84-1.6l.16-.2c2.36,0,4.72,0,7.07.01l.1.2Z"/>
      <path class="cls-11" d="M4.11,28.95l7.78.07.68-1.61c.14,0,.2-.01.32.03l-1,2.39H3.65c.09-.34.25-.66.46-.89Z"/>
      <path class="cls-8" d="M26.28,20.07s-.03.08-.1.08h-8.53c-.07,0-.11-.03-.1-.08.04-.19.11-.54.29-.71h8.15c.21.14.2.55.29.71Z"/>
      <path class="cls-1" d="M31.62,29.04l8.11-.1c.11.3.44.48.46.89h-8.23c-.18-.27-.25-.54-.34-.79Z"/>
      <path class="cls-1" d="M30.03,29.02c.09.29.35.47.33.82h-7.72c-.08-.31-.01-.56-.01-.81h7.41Z"/>
      <path class="cls-1" d="M21.21,29.02c.01.31.06.53-.01.81h-7.72c-.02-.37.25-.57.33-.82h7.41Z"/>
      <path class="cls-8" d="M15.92,20.16h-7.34c.09-.24.2-.64.41-.8h7.24c-.03.33-.22.54-.31.8Z"/>
      <path class="cls-8" d="M35.25,20.15h-7.34c-.12-.23-.27-.46-.31-.79h7.24c.24.14.29.6.41.79Z"/>
      <path class="cls-15" d="M5.84,13.2c.21,1.57-1.13,2.23-1.29.3.04-.48.15-1.27.61-1.36.43-.09.64.67.67,1.07Z"/>
      <path class="cls-9" d="M39.31,13.5c-.05,1.5-1.16,1.62-1.31.13-.01-.55.1-1.02.39-1.39.14-.18.38-.18.53,0,.28.35.4.81.39,1.26Z"/>
      <path class="cls-6" d="M22.54,25.31c.2,1.93-1.43,1.93-1.24,0,.06-.41.22-1.09.62-1.08.42.01.58.69.62,1.08Z"/>
      <path class="cls-5" d="M22.54,25.31c.16.62.02,1.28-.25,1.81-.13.15-.24.28-.4.26-.56-.09-.78-1.67-.59-2.07,0,.44.15,1.24.62,1.24s.62-.8.62-1.24Z"/>
      <path class="cls-2" d="M4.55,13.5c.09.18.36,1.23.79.95.39-.25.49-.79.5-1.25.22.45-.07,2.12-.65,2.09-.47-.02-.75-1.29-.64-1.79Z"/>
      <path class="cls-2" d="M38,13.63l.32.62c.08.16.21.23.34.23.35,0,.55-.67.66-.99.1.56-.06,1.11-.31,1.56-.11.14-.22.23-.35.23-.48-.01-.76-1.22-.65-1.67Z"/>
    </g>
  </g>
</svg>