<?xml version="1.0" encoding="utf-8"?>
<!-- Generator: Adobe Illustrator 30.1.0, SVG Export Plug-In . SVG Version: 9.03 Build 0)  -->
<svg version="1.1" id="Isolation_Mode" xmlns="http://www.w3.org/2000/svg" xmlns:xlink="http://www.w3.org/1999/xlink" x="0px"
	 y="0px" viewBox="0 0 384 384" style="enable-background:new 0 0 384 384;" xml:space="preserve">
<g>
	<path d="M371,181.1v41.4c-3.9,24.2-22.7,43-47.6,43.1l-14.5,0.1c-5.9,0-10.9-4.6-10.9-10.9l0.1-105.7
		c0-59.1-46.2-106.4-103.2-106.5C137.5,42.3,90.9,89.7,90.9,149L91,254.7c0,5.9-4.1,10-9.5,10.8c-7,1.1-13.7,0.7-20.7-0.1
		c-22.9-2.8-39.2-20.5-42.8-42.9v-41.4c0-26,25.6-44.8,51.3-43.3C74.7,70.6,129.8,19.9,194.8,20c64.7,0.1,119.5,50.8,124.8,117.8
		C345.8,136.2,367.1,155.1,371,181.1z"/>
	<path d="M208.7,358.9l-28,0.1c-12.5,0-22-10.7-21.8-22.9c0.2-12.3,10-22.1,22.4-22.1l26.3,0c12.2,0,21.9,9.4,22.4,21.5
		C230.6,347.5,221.5,358.8,208.7,358.9z"/>
	<path d="M139.6,330.1l7.3,0c-0.3,4.2-0.5,7.6,0.2,12.3c-39.5,4.3-76.1-23.2-82.6-63.8l12.5,0C83.1,308.6,108.7,330.1,139.6,330.1z"
		/>
</g>
</svg>
